<?xml version="1.0" encoding="UTF-8"?>
<svg xmlns="http://www.w3.org/2000/svg" xmlns:xlink="http://www.w3.org/1999/xlink" width="108px" height="108px" viewBox="0 0 108 108" version="1.1">
<g id="surface1">
<path style=" stroke:none;fill-rule:nonzero;fill:rgb(14.509804%,69.019608%,55.686275%);fill-opacity:1;" d="M 23.03125 -0.136719 C 23.949219 -0.136719 24.863281 -0.140625 25.78125 -0.140625 C 27.570312 -0.148438 29.355469 -0.144531 31.144531 -0.144531 C 32.601562 -0.140625 34.054688 -0.140625 35.511719 -0.140625 C 35.71875 -0.140625 35.925781 -0.140625 36.140625 -0.140625 C 36.5625 -0.140625 36.984375 -0.140625 37.40625 -0.144531 C 41.359375 -0.144531 45.3125 -0.140625 49.261719 -0.136719 C 52.644531 -0.132812 56.027344 -0.132812 59.410156 -0.136719 C 63.351562 -0.144531 67.289062 -0.144531 71.226562 -0.140625 C 71.648438 -0.140625 72.070312 -0.140625 72.488281 -0.140625 C 72.800781 -0.140625 72.800781 -0.140625 73.117188 -0.140625 C 74.570312 -0.140625 76.019531 -0.140625 77.472656 -0.144531 C 79.242188 -0.148438 81.015625 -0.144531 82.785156 -0.140625 C 83.6875 -0.136719 84.589844 -0.136719 85.492188 -0.140625 C 92.308594 -0.164062 97.667969 0.875 102.78125 5.65625 C 107.53125 10.648438 108.164062 16.484375 108.136719 23.03125 C 108.136719 23.949219 108.140625 24.863281 108.140625 25.78125 C 108.148438 27.570312 108.144531 29.355469 108.144531 31.144531 C 108.140625 32.601562 108.140625 34.054688 108.140625 35.511719 C 108.140625 35.820312 108.140625 35.820312 108.140625 36.140625 C 108.140625 36.5625 108.140625 36.984375 108.144531 37.40625 C 108.144531 41.359375 108.140625 45.3125 108.136719 49.261719 C 108.132812 52.644531 108.132812 56.027344 108.136719 59.410156 C 108.144531 63.351562 108.144531 67.289062 108.140625 71.226562 C 108.140625 71.648438 108.140625 72.070312 108.140625 72.488281 C 108.140625 72.800781 108.140625 72.800781 108.140625 73.117188 C 108.140625 74.570312 108.140625 76.019531 108.144531 77.472656 C 108.148438 79.242188 108.144531 81.015625 108.140625 82.785156 C 108.136719 83.6875 108.136719 84.589844 108.140625 85.492188 C 108.164062 92.308594 107.125 97.667969 102.34375 102.777344 C 99.152344 105.816406 94.675781 108.019531 90.226562 108.027344 C 89.964844 108.027344 89.703125 108.03125 89.433594 108.03125 C 89.144531 108.03125 88.855469 108.03125 88.566406 108.03125 C 88.257812 108.03125 87.953125 108.03125 87.644531 108.035156 C 86.796875 108.035156 85.949219 108.035156 85.105469 108.035156 C 84.191406 108.039062 83.277344 108.039062 82.363281 108.042969 C 80.160156 108.046875 77.953125 108.046875 75.746094 108.050781 C 74.707031 108.050781 73.667969 108.050781 72.628906 108.054688 C 69.171875 108.054688 65.714844 108.058594 62.253906 108.0625 C 61.359375 108.0625 60.460938 108.0625 59.566406 108.0625 C 59.34375 108.0625 59.117188 108.0625 58.890625 108.0625 C 55.28125 108.0625 51.671875 108.070312 48.066406 108.078125 C 44.355469 108.082031 40.648438 108.085938 36.941406 108.089844 C 34.863281 108.089844 32.78125 108.089844 30.699219 108.09375 C 28.929688 108.101562 27.15625 108.101562 25.382812 108.101562 C 24.480469 108.097656 23.578125 108.097656 22.675781 108.101562 C 15.988281 108.132812 10.46875 107.324219 5.433594 102.46875 C 1.664062 98.660156 -0.105469 93.898438 -0.0820312 88.589844 C -0.0859375 88.277344 -0.0859375 87.964844 -0.0859375 87.65625 C -0.0898438 86.808594 -0.0898438 85.960938 -0.0898438 85.113281 C -0.0898438 84.199219 -0.0898438 83.28125 -0.09375 82.363281 C -0.0976562 80.570312 -0.0976562 78.777344 -0.0976562 76.984375 C -0.0976562 75.527344 -0.0976562 74.070312 -0.101562 72.609375 C -0.101562 72.1875 -0.101562 71.769531 -0.101562 71.347656 C -0.101562 71.136719 -0.101562 70.925781 -0.101562 70.710938 C -0.105469 66.75 -0.105469 62.789062 -0.105469 58.832031 C -0.105469 55.214844 -0.109375 51.597656 -0.117188 47.984375 C -0.121094 44.261719 -0.125 40.542969 -0.125 36.824219 C -0.125 34.738281 -0.125 32.652344 -0.128906 30.566406 C -0.136719 28.792969 -0.136719 27.015625 -0.132812 25.238281 C -0.128906 24.335938 -0.128906 23.429688 -0.132812 22.527344 C -0.164062 15.699219 0.871094 10.339844 5.65625 5.21875 C 10.648438 0.46875 16.484375 -0.164062 23.03125 -0.136719 Z M 23.03125 -0.136719 "/>
<path style=" stroke:none;fill-rule:nonzero;fill:rgb(72.54902%,41.960784%,29.019608%);fill-opacity:1;" d="M 58.773438 6.128906 C 60.355469 7.1875 61.480469 8.5 62.015625 10.335938 C 62.203125 10.230469 62.390625 10.128906 62.585938 10.019531 C 62.835938 9.882812 63.085938 9.746094 63.335938 9.609375 C 63.519531 9.507812 63.519531 9.507812 63.707031 9.402344 C 65.601562 8.371094 67.882812 8.339844 69.964844 8.832031 C 72.34375 9.6875 74.171875 11.105469 75.351562 13.359375 C 76.042969 14.847656 76.179688 16.089844 76.148438 17.71875 C 76.402344 17.699219 76.402344 17.699219 76.660156 17.683594 C 79.183594 17.578125 81.238281 18.332031 83.109375 20.039062 C 84.769531 21.585938 85.65625 23.390625 85.765625 25.664062 C 85.792969 27.523438 85.421875 28.910156 84.585938 30.585938 C 84.585938 30.726562 84.585938 30.863281 84.585938 31.007812 C 85.003906 31.285156 85.003906 31.285156 85.535156 31.5625 C 87.554688 32.746094 89.152344 34.460938 89.78125 36.773438 C 90.144531 39.429688 90.015625 41.808594 88.378906 44.03125 C 87.421875 45.160156 86.347656 46.167969 85.007812 46.828125 C 84.800781 46.828125 84.589844 46.828125 84.375 46.828125 C 84.503906 47.082031 84.503906 47.082031 84.636719 47.335938 C 84.808594 47.671875 84.808594 47.671875 84.980469 48.015625 C 85.09375 48.234375 85.207031 48.457031 85.324219 48.683594 C 86.289062 50.738281 86.40625 52.976562 85.683594 55.148438 C 85.421875 55.707031 85.097656 56.203125 84.75 56.714844 C 83.996094 57.726562 83.996094 57.726562 83.773438 58.90625 C 83.898438 59.203125 84.03125 59.496094 84.171875 59.785156 C 84.730469 61.277344 84.578125 63.375 84.046875 64.851562 C 82.871094 67.300781 80.996094 68.894531 78.46875 69.820312 C 77.929688 69.996094 77.539062 70.03125 76.964844 70.023438 C 75.4375 70 75.4375 70 74.117188 70.671875 C 73.644531 71.21875 73.207031 71.777344 72.773438 72.351562 C 69.792969 75.566406 65.09375 76.613281 60.960938 77.414062 C 60.820312 77.414062 60.683594 77.414062 60.539062 77.414062 C 60.609375 79.15625 60.679688 80.894531 60.75 82.6875 C 61.234375 82.828125 61.714844 82.964844 62.214844 83.109375 C 66.484375 84.414062 70.109375 86.671875 73.40625 89.648438 C 73.640625 89.859375 73.640625 89.859375 73.878906 90.074219 C 78.390625 94.367188 81.460938 100.757812 82.054688 106.945312 C 82.054688 107.292969 82.054688 107.640625 82.054688 108 C 63.539062 108 45.023438 108 25.945312 108 C 26.4375 103.574219 26.4375 103.574219 26.921875 102.082031 C 27.003906 101.820312 27.003906 101.820312 27.085938 101.554688 C 29.539062 94.035156 34.933594 88.148438 41.941406 84.589844 C 45.816406 82.6875 45.816406 82.6875 47.460938 82.6875 C 47.460938 80.878906 47.460938 79.066406 47.460938 77.203125 C 46.972656 77.203125 46.488281 77.203125 45.984375 77.203125 C 45.53125 77.140625 45.53125 77.140625 45.152344 77.054688 C 45.007812 77.023438 44.867188 76.992188 44.71875 76.957031 C 44.570312 76.921875 44.421875 76.882812 44.269531 76.847656 C 44.113281 76.808594 43.957031 76.769531 43.796875 76.730469 C 39.972656 75.769531 36.253906 74.066406 33.871094 70.8125 C 33.375 70.1875 33.375 70.1875 32.644531 70.09375 C 32.402344 70.09375 32.15625 70.097656 31.90625 70.097656 C 29.578125 70.019531 27.617188 69.296875 25.886719 67.6875 C 24.015625 65.671875 23.523438 63.859375 23.5625 61.160156 C 23.640625 60.101562 23.902344 59.523438 24.46875 58.640625 C 24.46875 58.5 24.46875 58.363281 24.46875 58.21875 C 24.316406 58.078125 24.164062 57.941406 24.007812 57.796875 C 22.703125 56.546875 22.042969 54.585938 21.859375 52.832031 C 21.824219 50.941406 22.125 49.558594 22.992188 47.882812 C 23.074219 47.71875 23.152344 47.558594 23.238281 47.390625 C 23.296875 47.273438 23.355469 47.160156 23.414062 47.039062 C 23.285156 46.96875 23.152344 46.898438 23.019531 46.828125 C 20.839844 45.605469 19.007812 44.023438 18.238281 41.5625 C 18.042969 40.707031 18.019531 39.847656 18.007812 38.96875 C 18.007812 38.796875 18.003906 38.621094 18 38.441406 C 18.050781 36.414062 18.957031 34.714844 20.304688 33.222656 C 21.257812 32.355469 22.242188 31.558594 23.414062 31.007812 C 23.1875 30.3125 22.949219 29.640625 22.664062 28.96875 C 22.3125 28.03125 22.253906 27.179688 22.265625 26.183594 C 22.269531 26.015625 22.269531 25.847656 22.273438 25.679688 C 22.335938 23.371094 23.261719 21.683594 24.867188 20.058594 C 26.484375 18.5625 28.328125 17.648438 30.558594 17.691406 C 30.800781 17.695312 31.046875 17.699219 31.296875 17.703125 C 31.570312 17.710938 31.570312 17.710938 31.851562 17.71875 C 31.839844 17.582031 31.828125 17.441406 31.816406 17.300781 C 31.707031 15.105469 32.453125 13.242188 33.835938 11.546875 C 35.3125 9.929688 37.179688 8.726562 39.402344 8.605469 C 42.007812 8.558594 43.730469 8.988281 45.984375 10.335938 C 46.023438 10.167969 46.0625 9.996094 46.101562 9.820312 C 46.945312 7.730469 48.570312 6.429688 50.53125 5.417969 C 53.289062 4.246094 56.242188 4.660156 58.773438 6.128906 Z M 58.773438 6.128906 "/>
<path style=" stroke:none;fill-rule:nonzero;fill:rgb(19.215686%,21.960784%,24.313725%);fill-opacity:1;" d="M 58.773438 6.128906 C 60.355469 7.1875 61.480469 8.5 62.015625 10.335938 C 62.203125 10.230469 62.390625 10.128906 62.585938 10.019531 C 62.835938 9.882812 63.085938 9.746094 63.335938 9.609375 C 63.519531 9.507812 63.519531 9.507812 63.707031 9.402344 C 65.601562 8.371094 67.882812 8.339844 69.964844 8.832031 C 72.34375 9.6875 74.171875 11.105469 75.351562 13.359375 C 76.042969 14.847656 76.179688 16.089844 76.148438 17.71875 C 76.402344 17.699219 76.402344 17.699219 76.660156 17.683594 C 79.183594 17.578125 81.238281 18.332031 83.109375 20.039062 C 84.769531 21.585938 85.65625 23.390625 85.765625 25.664062 C 85.792969 27.523438 85.421875 28.910156 84.585938 30.585938 C 84.585938 30.726562 84.585938 30.863281 84.585938 31.007812 C 85.003906 31.285156 85.003906 31.285156 85.535156 31.5625 C 87.554688 32.746094 89.152344 34.460938 89.78125 36.773438 C 90.144531 39.429688 90.015625 41.808594 88.378906 44.03125 C 87.421875 45.160156 86.347656 46.167969 85.007812 46.828125 C 84.800781 46.828125 84.589844 46.828125 84.375 46.828125 C 84.503906 47.082031 84.503906 47.082031 84.636719 47.335938 C 84.808594 47.671875 84.808594 47.671875 84.980469 48.015625 C 85.09375 48.234375 85.207031 48.457031 85.324219 48.683594 C 86.289062 50.746094 86.414062 52.996094 85.667969 55.167969 C 85.203125 56.179688 84.585938 57.09375 83.953125 58.007812 C 83.746094 57.839844 83.535156 57.667969 83.320312 57.492188 C 81.945312 56.453125 80.402344 55.667969 78.890625 54.84375 C 78.984375 54.230469 79.085938 53.636719 79.261719 53.039062 C 79.734375 51.417969 79.804688 49.859375 79.8125 48.171875 C 79.816406 47.839844 79.816406 47.839844 79.820312 47.503906 C 79.808594 45.371094 79.320312 43.46875 78.363281 41.566406 C 78.292969 41.425781 78.21875 41.28125 78.144531 41.136719 C 77.355469 39.644531 76.300781 38.5 75.09375 37.335938 C 74.960938 37.199219 74.832031 37.066406 74.695312 36.925781 C 70.726562 33.089844 64.566406 31.507812 59.273438 30.796875 C 59.042969 30.765625 59.042969 30.765625 58.808594 30.734375 C 57.136719 30.539062 55.457031 30.542969 53.777344 30.546875 C 53.621094 30.546875 53.464844 30.546875 53.304688 30.546875 C 45.570312 30.570312 37.925781 32.527344 32.121094 37.898438 C 29.769531 40.308594 28.257812 43.675781 28.054688 47.039062 C 28.042969 47.230469 28.027344 47.421875 28.011719 47.617188 C 27.953125 49.25 28.210938 50.707031 28.617188 52.273438 C 28.65625 52.429688 28.695312 52.582031 28.734375 52.742188 C 28.769531 52.878906 28.808594 53.011719 28.84375 53.152344 C 28.914062 53.714844 28.871094 54.097656 28.6875 54.632812 C 28.28125 54.949219 28.28125 54.949219 27.75 55.207031 C 27.5625 55.304688 27.375 55.398438 27.179688 55.5 C 26.777344 55.695312 26.378906 55.890625 25.976562 56.085938 C 25.789062 56.183594 25.597656 56.28125 25.40625 56.378906 C 25.230469 56.464844 25.054688 56.550781 24.875 56.636719 C 24.414062 56.929688 24.414062 56.929688 24.304688 57.515625 C 24.289062 57.679688 24.273438 57.839844 24.257812 58.007812 C 22.9375 56.949219 22.242188 55.222656 21.9375 53.578125 C 21.757812 51.441406 21.996094 49.804688 22.992188 47.882812 C 23.074219 47.71875 23.152344 47.558594 23.238281 47.390625 C 23.296875 47.273438 23.355469 47.160156 23.414062 47.039062 C 23.285156 46.96875 23.152344 46.898438 23.019531 46.828125 C 20.839844 45.605469 19.007812 44.023438 18.238281 41.5625 C 18.042969 40.707031 18.019531 39.847656 18.007812 38.96875 C 18.007812 38.796875 18.003906 38.621094 18 38.441406 C 18.050781 36.414062 18.957031 34.714844 20.304688 33.222656 C 21.257812 32.355469 22.242188 31.558594 23.414062 31.007812 C 23.1875 30.3125 22.949219 29.640625 22.664062 28.96875 C 22.3125 28.03125 22.253906 27.179688 22.265625 26.183594 C 22.269531 26.015625 22.269531 25.847656 22.273438 25.679688 C 22.335938 23.371094 23.261719 21.683594 24.867188 20.058594 C 26.484375 18.5625 28.328125 17.648438 30.558594 17.691406 C 30.800781 17.695312 31.046875 17.699219 31.296875 17.703125 C 31.570312 17.710938 31.570312 17.710938 31.851562 17.71875 C 31.839844 17.582031 31.828125 17.441406 31.816406 17.300781 C 31.707031 15.105469 32.453125 13.242188 33.835938 11.546875 C 35.3125 9.929688 37.179688 8.726562 39.402344 8.605469 C 42.007812 8.558594 43.730469 8.988281 45.984375 10.335938 C 46.023438 10.167969 46.0625 9.996094 46.101562 9.820312 C 46.945312 7.730469 48.570312 6.429688 50.53125 5.417969 C 53.289062 4.246094 56.242188 4.660156 58.773438 6.128906 Z M 58.773438 6.128906 "/>
<path style=" stroke:none;fill-rule:nonzero;fill:rgb(72.54902%,41.568627%,29.019608%);fill-opacity:1;" d="M 65.179688 31.851562 C 65.441406 31.925781 65.703125 32.003906 65.972656 32.082031 C 70.953125 33.628906 75.664062 36.460938 78.324219 41.066406 C 80.191406 44.734375 80.609375 49.050781 79.492188 53.039062 C 79.402344 53.304688 79.402344 53.304688 79.3125 53.578125 C 79.234375 53.808594 79.160156 54.042969 79.082031 54.28125 C 79.019531 54.464844 78.953125 54.652344 78.890625 54.84375 C 79.0625 54.890625 79.234375 54.941406 79.414062 54.992188 C 80.320312 55.324219 81.089844 55.773438 81.910156 56.28125 C 82.0625 56.371094 82.214844 56.460938 82.375 56.554688 C 83.472656 57.230469 83.472656 57.230469 83.765625 57.945312 C 83.742188 58.429688 83.742188 58.429688 83.320312 58.851562 C 82.464844 58.78125 81.835938 58.445312 81.101562 58.019531 C 80.886719 57.898438 80.671875 57.773438 80.449219 57.648438 C 80.226562 57.519531 80.003906 57.390625 79.773438 57.257812 C 79.546875 57.125 79.320312 56.996094 79.085938 56.863281 C 78.527344 56.542969 77.972656 56.222656 77.414062 55.898438 C 77.382812 56.0625 77.351562 56.226562 77.320312 56.398438 C 76.8125 58.835938 75.140625 60.765625 73.195312 62.226562 C 70.652344 63.761719 67.796875 64.152344 64.890625 63.558594 C 62.417969 62.71875 60.195312 60.960938 58.871094 58.699219 C 58.234375 57.375 57.796875 56.105469 57.796875 54.632812 C 55.082031 54.632812 52.367188 54.632812 49.570312 54.632812 C 49.570312 55.121094 49.570312 55.605469 49.570312 56.109375 C 48.789062 58.757812 47.21875 61.203125 44.757812 62.550781 C 44.1875 62.816406 43.621094 63.058594 43.03125 63.28125 C 42.839844 63.359375 42.652344 63.433594 42.457031 63.515625 C 40.273438 64.109375 37.582031 63.988281 35.566406 62.976562 C 32.902344 61.394531 31.207031 59.726562 30.164062 56.742188 C 30.15625 56.390625 30.152344 56.039062 30.164062 55.6875 C 30.023438 55.773438 29.882812 55.859375 29.734375 55.945312 C 29.09375 56.328125 28.449219 56.707031 27.804688 57.085938 C 27.582031 57.21875 27.359375 57.355469 27.128906 57.492188 C 26.914062 57.617188 26.699219 57.742188 26.476562 57.871094 C 26.277344 57.988281 26.082031 58.105469 25.878906 58.226562 C 25.3125 58.429688 25.3125 58.429688 24.710938 58.253906 C 24.5625 58.171875 24.414062 58.089844 24.257812 58.007812 C 24.148438 57.550781 24.148438 57.550781 24.257812 56.953125 C 24.785156 56.5 25.386719 56.1875 26 55.859375 C 26.160156 55.765625 26.324219 55.675781 26.496094 55.578125 C 27.21875 55.175781 27.945312 54.789062 28.6875 54.421875 C 28.582031 53.363281 28.390625 52.359375 28.148438 51.324219 C 27.363281 47.695312 27.945312 43.78125 29.859375 40.582031 C 31.378906 38.316406 33.183594 36.546875 35.4375 35.015625 C 35.71875 34.824219 35.71875 34.824219 36.007812 34.628906 C 44.316406 29.398438 55.984375 29.167969 65.179688 31.851562 Z M 65.179688 31.851562 "/>
<path style=" stroke:none;fill-rule:nonzero;fill:rgb(19.215686%,21.960784%,23.921569%);fill-opacity:1;" d="M 64.335938 83.953125 C 70.984375 86.28125 76.300781 91.617188 79.359375 97.863281 C 80.933594 101.1875 81.769531 104.289062 82.054688 108 C 63.539062 108 45.023438 108 25.945312 108 C 26.4375 103.574219 26.4375 103.574219 26.921875 102.082031 C 26.976562 101.90625 27.03125 101.730469 27.085938 101.554688 C 29.441406 94.339844 34.503906 88.613281 41.132812 85.007812 C 41.761719 84.699219 42.382812 84.425781 43.03125 84.164062 C 43.117188 84.296875 43.207031 84.429688 43.296875 84.566406 C 45.074219 87.207031 47.449219 89.378906 50.617188 90.199219 C 54.585938 90.714844 58.242188 90.058594 61.476562 87.59375 C 62.660156 86.546875 63.546875 85.308594 64.335938 83.953125 Z M 64.335938 83.953125 "/>
<path style=" stroke:none;fill-rule:nonzero;fill:rgb(92.54902%,59.607843%,7.843137%);fill-opacity:1;" d="M 45.484375 45.617188 C 47.566406 47.140625 48.757812 49.03125 49.570312 51.46875 C 49.570312 51.957031 49.570312 52.441406 49.570312 52.945312 C 52.285156 52.945312 55 52.945312 57.796875 52.945312 C 57.867188 52.320312 57.9375 51.691406 58.007812 51.046875 C 59.140625 48 60.996094 45.953125 63.914062 44.507812 C 66.472656 43.53125 69.058594 43.613281 71.597656 44.589844 C 74.058594 45.695312 75.960938 47.589844 77.054688 50.066406 C 77.203125 50.625 77.203125 50.625 77.199219 51.382812 C 77.214844 52.363281 77.269531 53.171875 77.835938 54 C 79.3125 55.207031 81.070312 56.046875 82.777344 56.878906 C 83.320312 57.164062 83.320312 57.164062 83.742188 57.585938 C 83.664062 58.140625 83.664062 58.140625 83.53125 58.640625 C 82.855469 58.855469 82.554688 58.886719 81.890625 58.605469 C 81.683594 58.480469 81.480469 58.355469 81.265625 58.226562 C 81.042969 58.09375 80.816406 57.957031 80.585938 57.820312 C 80.351562 57.679688 80.117188 57.535156 79.878906 57.386719 C 79.644531 57.246094 79.40625 57.105469 79.164062 56.957031 C 78.578125 56.609375 77.996094 56.253906 77.414062 55.898438 C 77.382812 56.0625 77.351562 56.226562 77.320312 56.398438 C 76.8125 58.835938 75.140625 60.765625 73.195312 62.226562 C 70.652344 63.761719 67.796875 64.152344 64.890625 63.558594 C 62.417969 62.71875 60.195312 60.960938 58.871094 58.699219 C 58.234375 57.375 57.796875 56.105469 57.796875 54.632812 C 55.082031 54.632812 52.367188 54.632812 49.570312 54.632812 C 49.570312 55.121094 49.570312 55.605469 49.570312 56.109375 C 48.789062 58.757812 47.21875 61.203125 44.757812 62.550781 C 44.1875 62.816406 43.621094 63.058594 43.03125 63.28125 C 42.839844 63.359375 42.652344 63.433594 42.457031 63.515625 C 40.273438 64.109375 37.582031 63.988281 35.566406 62.976562 C 32.902344 61.394531 31.207031 59.726562 30.164062 56.742188 C 30.15625 56.390625 30.152344 56.039062 30.164062 55.6875 C 30.023438 55.773438 29.882812 55.859375 29.734375 55.945312 C 29.09375 56.328125 28.449219 56.707031 27.804688 57.085938 C 27.582031 57.21875 27.359375 57.355469 27.128906 57.492188 C 26.804688 57.679688 26.804688 57.679688 26.476562 57.871094 C 26.277344 57.988281 26.082031 58.105469 25.878906 58.226562 C 25.3125 58.429688 25.3125 58.429688 24.710938 58.253906 C 24.5625 58.171875 24.414062 58.089844 24.257812 58.007812 C 24.152344 57.546875 24.152344 57.546875 24.257812 56.953125 C 24.761719 56.511719 25.34375 56.214844 25.933594 55.898438 C 26.097656 55.804688 26.261719 55.710938 26.429688 55.613281 C 27.105469 55.230469 27.769531 54.875 28.488281 54.578125 C 29.015625 54.359375 29.355469 54.207031 29.742188 53.789062 C 29.929688 53.0625 29.996094 52.363281 30.058594 51.617188 C 30.375 49.25 31.992188 47.28125 33.796875 45.8125 C 37.4375 43.242188 41.746094 43.203125 45.484375 45.617188 Z M 45.484375 45.617188 "/>
<path style=" stroke:none;fill-rule:nonzero;fill:rgb(72.941176%,41.960784%,29.019608%);fill-opacity:1;" d="M 44.378906 46.917969 C 46.289062 48.269531 47.644531 50.199219 48.09375 52.523438 C 48.355469 55.101562 47.621094 57.378906 46.027344 59.40625 C 45.320312 60.167969 44.582031 60.691406 43.664062 61.171875 C 43.515625 61.257812 43.363281 61.34375 43.207031 61.433594 C 41.472656 62.292969 39.191406 62.410156 37.328125 61.898438 C 35.074219 61.078125 33.292969 59.582031 32.273438 57.414062 C 31.4375 55.402344 31.203125 52.8125 31.96875 50.730469 C 33.152344 48.289062 35.019531 46.699219 37.546875 45.773438 C 39.921875 45.042969 42.300781 45.675781 44.378906 46.917969 Z M 44.378906 46.917969 "/>
<path style=" stroke:none;fill-rule:nonzero;fill:rgb(72.941176%,41.960784%,29.019608%);fill-opacity:1;" d="M 72.417969 46.972656 C 72.683594 47.199219 72.941406 47.433594 73.195312 47.671875 C 73.339844 47.808594 73.484375 47.945312 73.636719 48.085938 C 75.207031 49.699219 75.984375 51.425781 76.054688 53.683594 C 75.953125 56.328125 75.09375 58.289062 73.179688 60.109375 C 71.117188 61.855469 68.875 62.289062 66.238281 62.070312 C 64.144531 61.800781 62.558594 60.585938 61.171875 59.0625 C 60.195312 57.777344 59.609375 56.464844 59.484375 54.84375 C 59.46875 54.640625 59.453125 54.4375 59.433594 54.226562 C 59.335938 51.921875 59.933594 50.195312 61.4375 48.4375 C 64.371094 45.417969 68.765625 44.398438 72.417969 46.972656 Z M 72.417969 46.972656 "/>
<path style=" stroke:none;fill-rule:nonzero;fill:rgb(72.156863%,41.568627%,29.411765%);fill-opacity:1;" d="M 47.460938 80.789062 C 47.648438 80.804688 47.839844 80.820312 48.035156 80.835938 C 49.882812 80.96875 51.71875 81.035156 53.574219 81.027344 C 54 81.027344 54.425781 81.027344 54.851562 81.027344 C 56.757812 81.03125 58.640625 80.9375 60.539062 80.789062 C 60.644531 81.730469 60.644531 81.730469 60.75 82.6875 C 61.113281 82.792969 61.113281 82.792969 61.480469 82.902344 C 61.796875 83 62.109375 83.09375 62.425781 83.1875 C 62.582031 83.234375 62.742188 83.28125 62.90625 83.332031 C 63.316406 83.457031 63.722656 83.597656 64.125 83.742188 C 64.230469 83.949219 64.230469 83.949219 64.335938 84.164062 C 62.332031 87.296875 59.894531 89.5625 56.148438 90.417969 C 53.628906 90.699219 51.046875 90.765625 48.726562 89.648438 C 48.515625 89.546875 48.308594 89.449219 48.09375 89.34375 C 46.035156 88.25 44.195312 86.625 43.03125 84.585938 C 43.242188 83.953125 43.242188 83.953125 43.609375 83.765625 C 43.761719 83.714844 43.917969 83.664062 44.078125 83.613281 C 44.246094 83.558594 44.414062 83.503906 44.589844 83.449219 C 44.855469 83.363281 44.855469 83.363281 45.128906 83.28125 C 45.304688 83.222656 45.480469 83.164062 45.664062 83.105469 C 46.96875 82.6875 46.96875 82.6875 47.460938 82.6875 C 47.460938 82.0625 47.460938 81.433594 47.460938 80.789062 Z M 47.460938 80.789062 "/>
<path style=" stroke:none;fill-rule:nonzero;fill:rgb(52.941176%,26.27451%,16.470588%);fill-opacity:1;" d="M 46.40625 64.335938 C 51.417969 64.335938 56.429688 64.335938 61.59375 64.335938 C 61.308594 66.890625 60.757812 68.484375 58.851562 70.242188 C 56.875 71.785156 54.722656 71.871094 52.3125 71.71875 C 50.453125 71.425781 48.976562 70.246094 47.816406 68.804688 C 46.800781 67.347656 46.40625 66.121094 46.40625 64.335938 Z M 46.40625 64.335938 "/>
<path style=" stroke:none;fill-rule:nonzero;fill:rgb(20%,22.745098%,24.313725%);fill-opacity:1;" d="M 74.25 90.703125 C 74.597656 91.050781 74.945312 91.398438 75.304688 91.757812 C 75.417969 91.871094 75.53125 91.980469 75.648438 92.097656 C 79.40625 96.078125 82.054688 102.523438 82.054688 108 C 79.480469 108 76.902344 108 74.25 108 C 74.25 102.292969 74.25 96.585938 74.25 90.703125 Z M 74.25 90.703125 "/>
<path style=" stroke:none;fill-rule:nonzero;fill:rgb(20%,22.745098%,24.313725%);fill-opacity:1;" d="M 33.539062 90.703125 C 33.609375 90.703125 33.679688 90.703125 33.75 90.703125 C 33.75 96.410156 33.75 102.117188 33.75 108 C 31.175781 108 28.597656 108 25.945312 108 C 26.4375 103.574219 26.4375 103.574219 26.921875 102.082031 C 26.976562 101.90625 27.03125 101.730469 27.085938 101.554688 C 28.417969 97.472656 30.632812 93.855469 33.539062 90.703125 Z M 33.539062 90.703125 "/>
<path style=" stroke:none;fill-rule:nonzero;fill:rgb(64.705882%,35.686275%,23.921569%);fill-opacity:1;" d="M 29.742188 56.109375 C 29.980469 56.644531 30.21875 57.179688 30.453125 57.71875 C 30.519531 57.867188 30.585938 58.019531 30.65625 58.171875 C 31.335938 59.71875 31.867188 61.175781 31.886719 62.878906 C 31.9375 65.148438 32.011719 67.082031 32.90625 69.1875 C 32.980469 69.46875 33.054688 69.75 33.117188 70.03125 C 30.457031 70.140625 28.53125 69.738281 26.367188 68.132812 C 24.820312 66.695312 23.730469 65.085938 23.566406 62.957031 C 23.507812 61.269531 23.460938 59.546875 24.679688 58.21875 C 25.03125 58.144531 25.382812 58.074219 25.734375 58.007812 C 26.324219 57.71875 26.882812 57.382812 27.449219 57.046875 C 27.746094 56.867188 28.046875 56.691406 28.347656 56.515625 C 28.476562 56.4375 28.609375 56.359375 28.746094 56.28125 C 29.109375 56.109375 29.109375 56.109375 29.742188 56.109375 Z M 29.742188 56.109375 "/>
<path style=" stroke:none;fill-rule:nonzero;fill:rgb(64.705882%,35.686275%,23.921569%);fill-opacity:1;" d="M 78.257812 56.320312 C 80.695312 57.503906 80.695312 57.503906 81.726562 58.191406 C 82.347656 58.601562 82.769531 58.761719 83.53125 58.640625 C 84.59375 60.234375 84.554688 61.859375 84.375 63.703125 C 83.910156 65.777344 82.535156 67.503906 80.8125 68.707031 C 79.304688 69.621094 77.964844 70.0625 76.203125 70.042969 C 75.953125 70.042969 75.707031 70.039062 75.453125 70.039062 C 75.171875 70.035156 75.171875 70.035156 74.882812 70.03125 C 75.304688 68.765625 75.304688 68.765625 75.46875 68.34375 C 75.957031 67.042969 76.027344 65.859375 76.042969 64.480469 C 76.136719 61.382812 76.886719 59.066406 78.257812 56.320312 Z M 78.257812 56.320312 "/>
<path style=" stroke:none;fill-rule:nonzero;fill:rgb(92.941176%,60%,7.45098%);fill-opacity:1;" d="M 70.242188 87.328125 C 71.867188 87.976562 73.273438 89.011719 74.25 90.492188 C 74.730469 91.800781 74.597656 93.21875 74.539062 94.589844 C 74.53125 94.976562 74.527344 95.367188 74.527344 95.753906 C 74.515625 96.769531 74.484375 97.78125 74.453125 98.796875 C 74.421875 99.835938 74.410156 100.871094 74.394531 101.910156 C 74.363281 103.941406 74.3125 105.96875 74.25 108 C 72.925781 108 71.605469 108 70.242188 108 C 70.242188 101.179688 70.242188 94.355469 70.242188 87.328125 Z M 70.242188 87.328125 "/>
<path style=" stroke:none;fill-rule:nonzero;fill:rgb(92.941176%,60%,7.45098%);fill-opacity:1;" d="M 37.757812 87.328125 C 37.757812 94.148438 37.757812 100.972656 37.757812 108 C 36.433594 108 35.113281 108 33.75 108 C 33.710938 105.746094 33.679688 103.492188 33.664062 101.238281 C 33.652344 100.191406 33.640625 99.144531 33.621094 98.101562 C 33.605469 97.089844 33.59375 96.078125 33.589844 95.066406 C 33.585938 94.683594 33.582031 94.296875 33.570312 93.914062 C 33.503906 90.898438 33.503906 90.898438 34.117188 89.886719 C 34.535156 89.460938 34.941406 89.132812 35.4375 88.804688 C 35.625 88.644531 35.8125 88.484375 36.003906 88.316406 C 36.15625 88.199219 36.308594 88.082031 36.464844 87.960938 C 36.699219 87.777344 36.699219 87.777344 36.9375 87.59375 C 37.335938 87.328125 37.335938 87.328125 37.757812 87.328125 Z M 37.757812 87.328125 "/>
<path style=" stroke:none;fill-rule:nonzero;fill:rgb(65.098039%,35.686275%,23.921569%);fill-opacity:1;" d="M 47.460938 77.414062 C 47.964844 77.464844 47.964844 77.464844 48.476562 77.519531 C 50.140625 77.65625 51.800781 77.65625 53.46875 77.652344 C 54 77.652344 54.53125 77.652344 55.058594 77.652344 C 56.898438 77.65625 58.707031 77.601562 60.539062 77.414062 C 60.539062 78.527344 60.539062 79.640625 60.539062 80.789062 C 58.480469 81.101562 56.507812 81.277344 54.425781 81.265625 C 54 81.265625 53.574219 81.265625 53.148438 81.269531 C 51.210938 81.269531 49.375 81.078125 47.460938 80.789062 C 47.460938 79.675781 47.460938 78.5625 47.460938 77.414062 Z M 47.460938 77.414062 "/>
<path style=" stroke:none;fill-rule:nonzero;fill:rgb(65.098039%,36.862745%,26.27451%);fill-opacity:1;" d="M 69.820312 56.109375 C 70.5625 56.585938 71.28125 57.128906 71.507812 58.007812 C 71.539062 58.914062 71.53125 59.410156 70.949219 60.117188 C 69.460938 61.480469 68.09375 61.691406 66.113281 61.660156 C 64.59375 61.519531 63.640625 60.839844 62.648438 59.695312 C 62.3125 59.019531 62.351562 58.546875 62.4375 57.796875 C 62.96875 56.75 63.753906 56.234375 64.824219 55.804688 C 66.589844 55.25 68.132812 55.3125 69.820312 56.109375 Z M 69.820312 56.109375 "/>
<path style=" stroke:none;fill-rule:nonzero;fill:rgb(65.098039%,36.862745%,26.27451%);fill-opacity:1;" d="M 44.261719 56.355469 C 44.875 56.839844 45.277344 57.285156 45.5625 58.007812 C 45.632812 58.808594 45.589844 59.601562 45.082031 60.25 C 43.722656 61.40625 42.324219 61.664062 40.578125 61.640625 C 39.089844 61.503906 37.960938 60.953125 36.914062 59.90625 C 36.472656 59.332031 36.492188 59.078125 36.519531 58.335938 C 36.757812 57.363281 37.078125 56.816406 37.949219 56.285156 C 39.992188 55.222656 42.25 55.070312 44.261719 56.355469 Z M 44.261719 56.355469 "/>
<path style=" stroke:none;fill-rule:nonzero;fill:rgb(89.803922%,58.431373%,8.235294%);fill-opacity:1;" d="M 52.101562 100.828125 C 52.789062 100.917969 53.078125 100.960938 53.578125 101.460938 C 54.214844 101.378906 54.503906 101.195312 55.054688 100.828125 C 55.621094 100.90625 55.621094 100.90625 56.109375 101.039062 C 56.265625 101.515625 56.265625 101.515625 56.320312 102.09375 C 55.910156 102.582031 55.910156 102.582031 55.476562 102.9375 C 55.71875 103.457031 55.910156 103.792969 56.320312 104.203125 C 56.242188 104.757812 56.242188 104.757812 56.109375 105.257812 C 55.632812 105.414062 55.632812 105.414062 55.054688 105.46875 C 54.566406 105.058594 54.566406 105.058594 54.210938 104.625 C 53.691406 104.867188 53.355469 105.058594 52.945312 105.46875 C 52.390625 105.390625 52.390625 105.390625 51.890625 105.257812 C 51.734375 104.808594 51.734375 104.808594 51.679688 104.203125 C 52.089844 103.503906 52.089844 103.503906 52.523438 102.9375 C 52.378906 102.820312 52.234375 102.703125 52.089844 102.582031 C 51.679688 102.09375 51.679688 102.09375 51.71875 101.527344 C 51.890625 101.039062 51.890625 101.039062 52.101562 100.828125 Z M 52.101562 100.828125 "/>
<path style=" stroke:none;fill-rule:nonzero;fill:rgb(90.980392%,59.215686%,7.843137%);fill-opacity:1;" d="M 52.101562 94.5 C 52.882812 94.582031 53.285156 94.734375 53.789062 95.34375 C 54.308594 95.101562 54.644531 94.910156 55.054688 94.5 C 55.609375 94.578125 55.609375 94.578125 56.109375 94.710938 C 56.265625 95.1875 56.265625 95.1875 56.320312 95.765625 C 55.910156 96.253906 55.910156 96.253906 55.476562 96.609375 C 55.71875 97.128906 55.910156 97.464844 56.320312 97.875 C 56.242188 98.429688 56.242188 98.429688 56.109375 98.929688 C 55.632812 99.085938 55.632812 99.085938 55.054688 99.140625 C 54.566406 98.730469 54.566406 98.730469 54.210938 98.296875 C 53.691406 98.539062 53.355469 98.730469 52.945312 99.140625 C 52.390625 99.0625 52.390625 99.0625 51.890625 98.929688 C 51.734375 98.453125 51.734375 98.453125 51.679688 97.875 C 52.089844 97.386719 52.089844 97.386719 52.523438 97.03125 C 52.28125 96.511719 52.089844 96.175781 51.679688 95.765625 C 51.796875 94.804688 51.796875 94.804688 52.101562 94.5 Z M 52.101562 94.5 "/>
<path style=" stroke:none;fill-rule:nonzero;fill:rgb(27.45098%,29.019608%,30.196078%);fill-opacity:1;" d="M 68.636719 49.777344 C 69.367188 50.214844 70.074219 50.6875 70.453125 51.46875 C 70.507812 52.140625 70.507812 52.140625 70.453125 52.734375 C 70.242188 52.945312 70.242188 52.945312 69.742188 53.023438 C 69.46875 52.984375 69.46875 52.984375 69.1875 52.945312 C 68.96875 52.597656 68.757812 52.246094 68.554688 51.890625 C 67.730469 51.410156 66.964844 51.367188 66.023438 51.46875 C 65.457031 51.914062 65.160156 52.34375 64.757812 52.945312 C 64.230469 53.011719 64.230469 53.011719 63.703125 52.945312 C 63.5625 52.804688 63.425781 52.667969 63.28125 52.523438 C 63.308594 51.523438 63.847656 50.867188 64.546875 50.203125 C 65.726562 49.359375 67.292969 49.222656 68.636719 49.777344 Z M 68.636719 49.777344 "/>
<path style=" stroke:none;fill-rule:nonzero;fill:rgb(27.45098%,29.019608%,30.196078%);fill-opacity:1;" d="M 42.683594 49.761719 C 43.609375 50.300781 44.242188 50.914062 44.71875 51.890625 C 44.679688 52.375 44.640625 52.601562 44.296875 52.945312 C 43.796875 53.023438 43.796875 53.023438 43.242188 52.945312 C 42.914062 52.445312 42.914062 52.445312 42.609375 51.890625 C 41.886719 51.351562 41.164062 51.40625 40.289062 51.46875 C 39.617188 51.671875 39.484375 51.820312 39.140625 52.445312 C 39.035156 52.609375 38.925781 52.773438 38.8125 52.945312 C 38.257812 53.023438 38.257812 53.023438 37.757812 52.945312 C 37.546875 52.734375 37.546875 52.734375 37.46875 52.167969 C 37.570312 51.265625 37.949219 50.792969 38.601562 50.203125 C 39.78125 49.359375 41.332031 49.238281 42.683594 49.761719 Z M 42.683594 49.761719 "/>
<path style=" stroke:none;fill-rule:nonzero;fill:rgb(65.098039%,35.686275%,23.921569%);fill-opacity:1;" d="M 52.3125 55.898438 C 52.660156 56.597656 52.542969 57.375 52.535156 58.140625 C 52.535156 58.308594 52.535156 58.476562 52.535156 58.652344 C 52.53125 59.070312 52.527344 59.488281 52.523438 59.90625 C 52.65625 59.902344 52.792969 59.902344 52.929688 59.898438 C 53.105469 59.898438 53.28125 59.894531 53.460938 59.894531 C 53.632812 59.890625 53.808594 59.886719 53.984375 59.886719 C 54.421875 59.90625 54.421875 59.90625 54.632812 60.117188 C 54.660156 60.644531 54.660156 60.644531 54.632812 61.171875 C 54.25 61.554688 53.722656 61.410156 53.214844 61.410156 C 53.054688 61.410156 52.898438 61.410156 52.734375 61.410156 C 52.496094 61.410156 52.496094 61.410156 52.253906 61.410156 C 51.074219 61.410156 51.074219 61.410156 50.835938 61.171875 C 50.816406 60.78125 50.8125 60.390625 50.816406 59.996094 C 50.816406 59.761719 50.816406 59.523438 50.816406 59.277344 C 50.820312 59.027344 50.820312 58.777344 50.824219 58.523438 C 50.824219 58.269531 50.824219 58.019531 50.824219 57.761719 C 50.828125 57.140625 50.832031 56.519531 50.835938 55.898438 C 51.40625 55.613281 51.710938 55.730469 52.3125 55.898438 Z M 52.3125 55.898438 "/>
<path style=" stroke:none;fill-rule:nonzero;fill:rgb(74.901961%,43.921569%,25.490196%);fill-opacity:1;" d="M 30.164062 55.6875 C 30.203125 55.824219 30.246094 55.960938 30.289062 56.105469 C 30.582031 57.097656 30.882812 58.082031 31.21875 59.0625 C 30.679688 58.582031 30.410156 58.128906 30.125 57.46875 C 30.050781 57.300781 29.980469 57.136719 29.90625 56.964844 C 29.742188 56.53125 29.742188 56.53125 29.742188 56.109375 C 29.601562 56.039062 29.464844 55.96875 29.320312 55.898438 C 29.742188 55.6875 29.742188 55.6875 30.164062 55.6875 Z M 30.164062 55.6875 "/>
</g>
</svg>
