<?xml version="1.0" encoding="UTF-8"?>
<svg xmlns="http://www.w3.org/2000/svg" xmlns:xlink="http://www.w3.org/1999/xlink" width="108px" height="108px" viewBox="0 0 108 108" version="1.1">
<g id="surface1">
<path style=" stroke:none;fill-rule:nonzero;fill:rgb(99.607843%,87.843137%,49.803922%);fill-opacity:1;" d="M 23.03125 -0.136719 C 23.949219 -0.136719 24.863281 -0.140625 25.78125 -0.140625 C 27.570312 -0.148438 29.355469 -0.144531 31.144531 -0.144531 C 32.601562 -0.140625 34.054688 -0.140625 35.511719 -0.140625 C 35.71875 -0.140625 35.925781 -0.140625 36.140625 -0.140625 C 36.5625 -0.140625 36.984375 -0.140625 37.40625 -0.144531 C 41.359375 -0.144531 45.3125 -0.140625 49.261719 -0.136719 C 52.644531 -0.132812 56.027344 -0.132812 59.410156 -0.136719 C 63.351562 -0.144531 67.289062 -0.144531 71.226562 -0.140625 C 71.648438 -0.140625 72.070312 -0.140625 72.488281 -0.140625 C 72.800781 -0.140625 72.800781 -0.140625 73.117188 -0.140625 C 74.570312 -0.140625 76.019531 -0.140625 77.472656 -0.144531 C 79.242188 -0.148438 81.015625 -0.144531 82.785156 -0.140625 C 83.6875 -0.136719 84.589844 -0.136719 85.492188 -0.140625 C 92.308594 -0.164062 97.667969 0.875 102.78125 5.65625 C 107.53125 10.648438 108.164062 16.484375 108.136719 23.03125 C 108.136719 23.949219 108.140625 24.863281 108.140625 25.78125 C 108.148438 27.570312 108.144531 29.355469 108.144531 31.144531 C 108.140625 32.601562 108.140625 34.054688 108.140625 35.511719 C 108.140625 35.820312 108.140625 35.820312 108.140625 36.140625 C 108.140625 36.5625 108.140625 36.984375 108.144531 37.40625 C 108.144531 41.359375 108.140625 45.3125 108.136719 49.261719 C 108.132812 52.644531 108.132812 56.027344 108.136719 59.410156 C 108.144531 63.351562 108.144531 67.289062 108.140625 71.226562 C 108.140625 71.648438 108.140625 72.070312 108.140625 72.488281 C 108.140625 72.800781 108.140625 72.800781 108.140625 73.117188 C 108.140625 74.570312 108.140625 76.019531 108.144531 77.472656 C 108.148438 79.242188 108.144531 81.015625 108.140625 82.785156 C 108.136719 83.6875 108.136719 84.589844 108.140625 85.492188 C 108.164062 92.308594 107.125 97.667969 102.34375 102.777344 C 99.152344 105.816406 94.675781 108.019531 90.226562 108.027344 C 89.964844 108.027344 89.703125 108.03125 89.433594 108.03125 C 89.144531 108.03125 88.855469 108.03125 88.566406 108.03125 C 88.257812 108.03125 87.953125 108.03125 87.644531 108.035156 C 86.796875 108.035156 85.949219 108.035156 85.105469 108.035156 C 84.191406 108.039062 83.277344 108.039062 82.363281 108.042969 C 80.160156 108.046875 77.953125 108.046875 75.746094 108.050781 C 74.707031 108.050781 73.667969 108.050781 72.628906 108.054688 C 69.171875 108.054688 65.714844 108.058594 62.253906 108.0625 C 61.359375 108.0625 60.460938 108.0625 59.566406 108.0625 C 59.34375 108.0625 59.117188 108.0625 58.890625 108.0625 C 55.28125 108.0625 51.671875 108.070312 48.066406 108.078125 C 44.355469 108.082031 40.648438 108.085938 36.941406 108.089844 C 34.863281 108.089844 32.78125 108.089844 30.699219 108.09375 C 28.929688 108.101562 27.15625 108.101562 25.382812 108.101562 C 24.480469 108.097656 23.578125 108.097656 22.675781 108.101562 C 15.988281 108.132812 10.46875 107.324219 5.433594 102.46875 C 1.664062 98.660156 -0.105469 93.898438 -0.0820312 88.589844 C -0.0859375 88.277344 -0.0859375 87.964844 -0.0859375 87.65625 C -0.0898438 86.808594 -0.0898438 85.960938 -0.0898438 85.113281 C -0.0898438 84.199219 -0.0898438 83.28125 -0.09375 82.363281 C -0.0976562 80.570312 -0.0976562 78.777344 -0.0976562 76.984375 C -0.0976562 75.527344 -0.0976562 74.070312 -0.101562 72.609375 C -0.101562 72.1875 -0.101562 71.769531 -0.101562 71.347656 C -0.101562 71.136719 -0.101562 70.925781 -0.101562 70.710938 C -0.105469 66.75 -0.105469 62.789062 -0.105469 58.832031 C -0.105469 55.214844 -0.109375 51.597656 -0.117188 47.984375 C -0.121094 44.261719 -0.125 40.542969 -0.125 36.824219 C -0.125 34.738281 -0.125 32.652344 -0.128906 30.566406 C -0.136719 28.792969 -0.136719 27.015625 -0.132812 25.238281 C -0.128906 24.335938 -0.128906 23.429688 -0.132812 22.527344 C -0.164062 15.699219 0.871094 10.339844 5.65625 5.21875 C 10.648438 0.46875 16.484375 -0.164062 23.03125 -0.136719 Z M 23.03125 -0.136719 "/>
<path style=" stroke:none;fill-rule:nonzero;fill:rgb(97.254902%,76.862745%,71.764706%);fill-opacity:1;" d="M 53.210938 4.796875 C 53.480469 4.800781 53.75 4.800781 54.027344 4.804688 C 55.953125 4.824219 57.796875 4.929688 59.695312 5.273438 C 59.84375 5.296875 59.992188 5.320312 60.148438 5.34375 C 68.183594 6.640625 75.640625 11.566406 80.433594 18.097656 C 84.492188 23.789062 86.796875 30.242188 86.761719 37.257812 C 86.761719 37.414062 86.761719 37.574219 86.761719 37.738281 C 86.75 40.117188 86.660156 42.410156 86.0625 44.71875 C 86.023438 44.878906 85.984375 45.039062 85.941406 45.203125 C 85.179688 48.199219 83.972656 50.984375 82.6875 53.789062 C 82.851562 53.851562 83.019531 53.914062 83.191406 53.980469 C 84.410156 54.492188 85.183594 55.695312 85.734375 56.859375 C 86.425781 58.8125 86.316406 61.050781 85.511719 62.953125 C 84.203125 65.371094 82.210938 66.984375 79.589844 67.785156 C 78.304688 68.035156 77.03125 67.984375 75.726562 67.921875 C 75.640625 68.105469 75.640625 68.105469 75.554688 68.296875 C 73.644531 71.902344 69.183594 73.667969 65.5 74.820312 C 64.140625 75.222656 62.773438 75.480469 61.382812 75.726562 C 61.382812 77.535156 61.382812 79.347656 61.382812 81.210938 C 61.847656 81.339844 62.3125 81.472656 62.792969 81.605469 C 70.640625 83.988281 76.898438 89.535156 80.828125 96.648438 C 82.617188 100.042969 83.953125 104.140625 83.953125 108 C 64.460938 108 44.972656 108 24.890625 108 C 24.890625 106.480469 24.890625 105.285156 25.234375 103.859375 C 25.289062 103.617188 25.289062 103.617188 25.347656 103.371094 C 26.691406 97.863281 29.414062 93.285156 33.328125 89.226562 C 33.480469 89.058594 33.636719 88.894531 33.792969 88.722656 C 37.367188 84.941406 42.34375 82.660156 47.25 81.210938 C 47.320312 79.402344 47.390625 77.589844 47.460938 75.726562 C 46.765625 75.65625 46.070312 75.585938 45.351562 75.515625 C 44.695312 75.375 44.058594 75.230469 43.414062 75.054688 C 43.242188 75.007812 43.070312 74.960938 42.890625 74.914062 C 38.785156 73.773438 34.875 71.847656 32.273438 68.34375 C 32.273438 68.203125 32.273438 68.066406 32.273438 67.921875 C 32.070312 67.929688 31.867188 67.9375 31.65625 67.945312 C 29.015625 68 27.238281 67.613281 25.101562 66.023438 C 24.917969 65.902344 24.734375 65.78125 24.546875 65.65625 C 22.734375 63.9375 21.925781 62.0625 21.84375 59.601562 C 21.894531 57.464844 22.507812 55.910156 24.046875 54.421875 C 24.78125 53.789062 24.78125 53.789062 25.3125 53.789062 C 25.246094 53.632812 25.179688 53.480469 25.109375 53.320312 C 24.800781 52.605469 24.496094 51.890625 24.191406 51.179688 C 24.085938 50.933594 23.980469 50.691406 23.871094 50.441406 C 23.070312 48.5625 22.441406 46.71875 22.03125 44.71875 C 21.980469 44.488281 21.933594 44.257812 21.882812 44.019531 C 21.832031 43.761719 21.78125 43.507812 21.726562 43.242188 C 21.691406 43.097656 21.652344 42.957031 21.617188 42.808594 C 21.238281 41.214844 21.234375 39.621094 21.238281 37.992188 C 21.238281 37.511719 21.234375 37.03125 21.226562 36.550781 C 21.21875 34.480469 21.453125 32.605469 21.9375 30.585938 C 21.976562 30.402344 22.019531 30.214844 22.0625 30.023438 C 23.929688 21.644531 29.347656 14.414062 36.519531 9.789062 C 39.957031 7.625 43.679688 6.066406 47.671875 5.273438 C 47.855469 5.234375 48.039062 5.199219 48.230469 5.160156 C 49.898438 4.847656 51.515625 4.785156 53.210938 4.796875 Z M 53.210938 4.796875 "/>
<path style=" stroke:none;fill-rule:nonzero;fill:rgb(19.215686%,21.960784%,24.313725%);fill-opacity:1;" d="M 53.210938 4.796875 C 53.480469 4.800781 53.75 4.800781 54.027344 4.804688 C 55.953125 4.824219 57.796875 4.929688 59.695312 5.273438 C 59.84375 5.296875 59.992188 5.320312 60.148438 5.34375 C 68.183594 6.640625 75.640625 11.566406 80.433594 18.097656 C 84.492188 23.789062 86.796875 30.242188 86.761719 37.257812 C 86.761719 37.414062 86.761719 37.574219 86.761719 37.738281 C 86.75 40.113281 86.660156 42.410156 86.0625 44.71875 C 86.023438 44.882812 85.980469 45.046875 85.9375 45.214844 C 85.402344 47.3125 84.6875 49.304688 83.808594 51.285156 C 83.6875 51.554688 83.6875 51.554688 83.566406 51.832031 C 82.980469 53.101562 82.980469 53.101562 82.265625 53.578125 C 81.777344 53.40625 81.777344 53.40625 81.210938 53.15625 C 80.789062 53.078125 80.367188 53.003906 79.945312 52.945312 C 80.25 51.503906 80.625 50.089844 81.019531 48.671875 C 82.085938 44.242188 81.46875 39.886719 79.113281 36 C 77.847656 34 76.03125 32.097656 74.039062 30.796875 C 73.832031 30.796875 73.621094 30.796875 73.40625 30.796875 C 73.265625 31.089844 73.265625 31.089844 73.117188 31.386719 C 70.464844 36.671875 66.296875 40.421875 60.644531 42.34375 C 55.621094 43.960938 49.53125 43.722656 44.757812 41.367188 C 43.152344 40.53125 41.667969 39.566406 40.289062 38.390625 C 40.125 38.257812 39.957031 38.125 39.785156 37.988281 C 37.394531 35.980469 35.753906 33.359375 34.382812 30.585938 C 30.640625 33.28125 27.734375 36.601562 26.683594 41.226562 C 26.171875 44.847656 26.738281 48.328125 27.890625 51.769531 C 28.054688 52.3125 28.054688 52.3125 28.054688 52.945312 C 27.925781 52.972656 27.800781 53 27.667969 53.03125 C 27.417969 53.085938 27.417969 53.085938 27.15625 53.144531 C 26.992188 53.179688 26.824219 53.214844 26.652344 53.253906 C 26.203125 53.355469 25.757812 53.464844 25.3125 53.578125 C 22.871094 48.523438 21.171875 43.546875 21.222656 37.882812 C 21.226562 37.414062 21.222656 36.945312 21.21875 36.476562 C 21.214844 34.433594 21.460938 32.578125 21.9375 30.585938 C 21.976562 30.402344 22.019531 30.214844 22.0625 30.023438 C 23.933594 21.640625 29.34375 14.414062 36.519531 9.789062 C 39.957031 7.625 43.679688 6.066406 47.671875 5.273438 C 47.855469 5.234375 48.039062 5.199219 48.230469 5.160156 C 49.898438 4.847656 51.515625 4.785156 53.210938 4.796875 Z M 53.210938 4.796875 "/>
<path style=" stroke:none;fill-rule:nonzero;fill:rgb(10.196078%,36.470588%,62.745098%);fill-opacity:1;" d="M 65.179688 82.6875 C 66.175781 82.816406 66.992188 83.234375 67.867188 83.703125 C 68.023438 83.785156 68.179688 83.867188 68.339844 83.953125 C 69.523438 84.601562 70.640625 85.316406 71.746094 86.089844 C 71.890625 86.191406 72.035156 86.289062 72.183594 86.394531 C 73.179688 87.113281 74.035156 87.917969 74.882812 88.804688 C 75.128906 89.046875 75.128906 89.046875 75.382812 89.292969 C 80.148438 94.171875 83.953125 101.003906 83.953125 108 C 64.460938 108 44.972656 108 24.890625 108 C 24.890625 106.480469 24.890625 105.285156 25.234375 103.859375 C 25.269531 103.699219 25.308594 103.539062 25.347656 103.371094 C 26.691406 97.863281 29.414062 93.285156 33.328125 89.226562 C 33.480469 89.058594 33.636719 88.894531 33.792969 88.722656 C 36.164062 86.214844 39.292969 84.355469 42.398438 82.898438 C 42.539062 82.898438 42.675781 82.898438 42.820312 82.898438 C 43.101562 83.269531 43.101562 83.269531 43.414062 83.769531 C 45.25 86.691406 48.117188 88.511719 51.46875 89.292969 C 55.019531 89.878906 58.375 89.023438 61.382812 87.117188 C 63.042969 85.894531 64.179688 84.480469 65.179688 82.6875 Z M 65.179688 82.6875 "/>
<path style=" stroke:none;fill-rule:nonzero;fill:rgb(10.588235%,36.470588%,62.745098%);fill-opacity:1;" d="M 71.507812 86.0625 C 72.832031 86.945312 73.828125 87.679688 74.882812 88.804688 C 75.046875 88.964844 75.214844 89.125 75.382812 89.292969 C 80.148438 94.171875 83.953125 101.003906 83.953125 108 C 79.847656 108 75.738281 108 71.507812 108 C 71.507812 100.761719 71.507812 93.519531 71.507812 86.0625 Z M 71.507812 86.0625 "/>
<path style=" stroke:none;fill-rule:nonzero;fill:rgb(10.588235%,36.470588%,62.745098%);fill-opacity:1;" d="M 37.125 86.273438 C 37.125 93.441406 37.125 100.613281 37.125 108 C 33.085938 108 29.050781 108 24.890625 108 C 24.890625 106.480469 24.890625 105.285156 25.234375 103.859375 C 25.269531 103.699219 25.308594 103.539062 25.347656 103.371094 C 26.6875 97.867188 29.410156 93.277344 33.328125 89.226562 C 33.5 89.046875 33.667969 88.867188 33.84375 88.683594 C 36.1875 86.273438 36.1875 86.273438 37.125 86.273438 Z M 37.125 86.273438 "/>
<path style=" stroke:none;fill-rule:nonzero;fill:rgb(96.862745%,76.862745%,71.764706%);fill-opacity:1;" d="M 47.460938 79.3125 C 48.414062 79.296875 49.332031 79.308594 50.28125 79.417969 C 51.601562 79.554688 52.921875 79.554688 54.246094 79.550781 C 54.667969 79.550781 55.089844 79.550781 55.507812 79.550781 C 57.40625 79.550781 59.28125 79.460938 61.171875 79.3125 C 61.277344 80.253906 61.277344 80.253906 61.382812 81.210938 C 61.738281 81.316406 61.738281 81.316406 62.097656 81.425781 C 62.410156 81.523438 62.71875 81.617188 63.03125 81.710938 C 63.1875 81.757812 63.34375 81.804688 63.503906 81.855469 C 63.652344 81.898438 63.804688 81.945312 63.957031 81.992188 C 64.097656 82.035156 64.234375 82.078125 64.375 82.121094 C 64.757812 82.265625 64.757812 82.265625 65.390625 82.6875 C 63.507812 85.886719 60.960938 88.191406 57.320312 89.207031 C 53.488281 90.113281 50.21875 89.566406 46.828125 87.539062 C 45.171875 86.414062 43.820312 85.070312 42.820312 83.320312 C 42.820312 83.113281 42.820312 82.902344 42.820312 82.6875 C 44.28125 82.199219 45.742188 81.714844 47.25 81.210938 C 47.320312 80.585938 47.390625 79.957031 47.460938 79.3125 Z M 47.460938 79.3125 "/>
<path style=" stroke:none;fill-rule:nonzero;fill:rgb(95.294118%,66.27451%,60.784314%);fill-opacity:1;" d="M 28.054688 52.734375 C 28.503906 53.410156 28.855469 54.109375 29.203125 54.84375 C 29.296875 55.035156 29.296875 55.035156 29.394531 55.234375 C 30.324219 57.203125 30.667969 59.097656 30.691406 61.265625 C 30.738281 62.996094 30.855469 64.585938 31.429688 66.234375 C 31.488281 66.40625 31.550781 66.582031 31.613281 66.757812 C 31.753906 67.148438 31.90625 67.535156 32.0625 67.921875 C 29.242188 68.03125 27.375 67.714844 25.101562 66.023438 C 24.917969 65.902344 24.734375 65.78125 24.546875 65.65625 C 22.734375 63.9375 21.925781 62.0625 21.84375 59.601562 C 21.890625 57.652344 22.375 56.164062 23.714844 54.730469 C 24.9375 53.589844 26.402344 52.9375 28.054688 52.734375 Z M 28.054688 52.734375 "/>
<path style=" stroke:none;fill-rule:nonzero;fill:rgb(95.294118%,66.27451%,60.392157%);fill-opacity:1;" d="M 79.734375 52.734375 C 79.859375 52.761719 79.984375 52.789062 80.113281 52.820312 C 80.96875 53.011719 81.824219 53.199219 82.6875 53.367188 C 82.6875 53.507812 82.6875 53.644531 82.6875 53.789062 C 82.832031 53.824219 82.976562 53.859375 83.121094 53.894531 C 84.511719 54.605469 85.410156 55.949219 85.921875 57.394531 C 86.394531 59.472656 86.234375 61.609375 85.21875 63.492188 C 83.847656 65.640625 82.011719 67.039062 79.578125 67.785156 C 78.367188 68.027344 77.164062 67.988281 75.9375 67.921875 C 76.011719 67.742188 76.085938 67.558594 76.160156 67.375 C 76.304688 67.011719 76.304688 67.011719 76.453125 66.644531 C 76.546875 66.40625 76.640625 66.167969 76.742188 65.921875 C 77.214844 64.515625 77.242188 63.101562 77.296875 61.632812 C 77.402344 59.308594 77.753906 57.40625 78.679688 55.265625 C 78.875 54.800781 79.066406 54.335938 79.257812 53.867188 C 79.417969 53.488281 79.574219 53.113281 79.734375 52.734375 Z M 79.734375 52.734375 "/>
<path style=" stroke:none;fill-rule:nonzero;fill:rgb(76.862745%,46.27451%,31.764706%);fill-opacity:1;" d="M 45.984375 61.804688 C 51.273438 61.804688 56.566406 61.804688 62.015625 61.804688 C 61.730469 64.640625 61.160156 66.183594 59.0625 68.132812 C 57.109375 69.691406 55.050781 70 52.613281 69.769531 C 50.5625 69.457031 48.726562 68.296875 47.460938 66.65625 C 46.515625 65.09375 45.984375 63.644531 45.984375 61.804688 Z M 45.984375 61.804688 "/>
<path style=" stroke:none;fill-rule:nonzero;fill:rgb(5.098039%,23.137255%,41.176471%);fill-opacity:1;" d="M 71.507812 86.0625 C 72.828125 86.945312 73.828125 87.683594 74.882812 88.804688 C 75.027344 88.914062 75.171875 89.023438 75.320312 89.136719 C 75.898438 89.863281 75.839844 90.539062 75.824219 91.429688 C 75.824219 91.609375 75.824219 91.785156 75.824219 91.972656 C 75.820312 92.5625 75.816406 93.152344 75.808594 93.746094 C 75.808594 94.15625 75.804688 94.566406 75.804688 94.976562 C 75.800781 96.054688 75.792969 97.132812 75.785156 98.214844 C 75.777344 99.316406 75.773438 100.417969 75.769531 101.519531 C 75.757812 103.679688 75.742188 105.839844 75.726562 108 C 74.335938 108 72.941406 108 71.507812 108 C 71.507812 100.761719 71.507812 93.519531 71.507812 86.0625 Z M 71.507812 86.0625 "/>
<path style=" stroke:none;fill-rule:nonzero;fill:rgb(5.098039%,23.137255%,41.176471%);fill-opacity:1;" d="M 37.125 86.273438 C 37.125 93.441406 37.125 100.613281 37.125 108 C 35.734375 108 34.339844 108 32.90625 108 C 32.855469 105.648438 32.8125 103.296875 32.785156 100.941406 C 32.773438 99.847656 32.757812 98.757812 32.730469 97.664062 C 32.707031 96.609375 32.691406 95.550781 32.6875 94.496094 C 32.683594 94.09375 32.671875 93.695312 32.660156 93.292969 C 32.554688 89.820312 32.554688 89.820312 33.710938 88.5625 C 34.1875 88.113281 34.695312 87.714844 35.226562 87.328125 C 35.378906 87.207031 35.535156 87.082031 35.691406 86.957031 C 36.582031 86.273438 36.582031 86.273438 37.125 86.273438 Z M 37.125 86.273438 "/>
<path style=" stroke:none;fill-rule:nonzero;fill:rgb(95.686275%,66.27451%,60.784314%);fill-opacity:1;" d="M 47.460938 75.726562 C 47.734375 75.761719 48.003906 75.796875 48.285156 75.832031 C 49.9375 75.996094 51.589844 75.96875 53.25 75.964844 C 53.417969 75.964844 53.585938 75.964844 53.757812 75.964844 C 56.238281 75.960938 58.699219 75.898438 61.171875 75.726562 C 61.171875 76.910156 61.171875 78.09375 61.171875 79.3125 C 59.023438 79.636719 56.96875 79.800781 54.789062 79.789062 C 54.652344 79.785156 54.511719 79.785156 54.367188 79.785156 C 52.035156 79.777344 49.769531 79.617188 47.460938 79.3125 C 47.460938 78.128906 47.460938 76.945312 47.460938 75.726562 Z M 47.460938 75.726562 "/>
<path style=" stroke:none;fill-rule:nonzero;fill:rgb(95.294118%,61.960784%,61.176471%);fill-opacity:1;" d="M 40.289062 52.628906 C 40.449219 52.625 40.609375 52.621094 40.773438 52.617188 C 42.09375 52.628906 43.191406 52.992188 44.207031 53.859375 C 44.914062 54.621094 45.140625 55.292969 45.140625 56.320312 C 44.703125 57.398438 43.847656 58.132812 42.820312 58.636719 C 41.242188 59.238281 39.585938 59.359375 38.007812 58.707031 C 37.097656 58.246094 36.117188 57.679688 35.648438 56.742188 C 35.507812 55.722656 35.53125 55.035156 36.070312 54.144531 C 37.261719 52.9375 38.644531 52.59375 40.289062 52.628906 Z M 40.289062 52.628906 "/>
<path style=" stroke:none;fill-rule:nonzero;fill:rgb(95.294118%,61.960784%,61.176471%);fill-opacity:1;" d="M 67.460938 52.667969 C 67.6875 52.667969 67.6875 52.667969 67.914062 52.671875 C 69.554688 52.707031 70.710938 53.066406 71.929688 54.210938 C 72.5 55.066406 72.539062 55.738281 72.351562 56.742188 C 71.730469 57.894531 70.84375 58.453125 69.609375 58.851562 C 67.550781 59.332031 65.871094 59.050781 64.046875 58.035156 C 63.265625 57.402344 62.917969 56.910156 62.765625 55.910156 C 62.917969 54.855469 63.449219 54.234375 64.21875 53.523438 C 65.273438 52.804688 66.195312 52.660156 67.460938 52.667969 Z M 67.460938 52.667969 "/>
<path style=" stroke:none;fill-rule:nonzero;fill:rgb(90.588235%,91.764706%,93.72549%);fill-opacity:1;" d="M 52.789062 93.800781 C 53.539062 93.886719 53.871094 94.207031 54.421875 94.710938 C 54.574219 94.566406 54.726562 94.421875 54.882812 94.277344 C 55.476562 93.867188 55.476562 93.867188 56.070312 93.921875 C 56.296875 94 56.296875 94 56.53125 94.078125 C 56.6875 94.554688 56.6875 94.554688 56.742188 95.132812 C 56.332031 95.621094 56.332031 95.621094 55.898438 95.976562 C 56.140625 96.496094 56.332031 96.832031 56.742188 97.242188 C 56.664062 97.902344 56.664062 97.902344 56.53125 98.507812 C 55.699219 98.585938 55.355469 98.570312 54.660156 98.085938 C 54.511719 97.945312 54.363281 97.808594 54.210938 97.664062 C 54.09375 97.804688 53.976562 97.941406 53.855469 98.085938 C 53.367188 98.507812 53.367188 98.507812 52.8125 98.585938 C 52.3125 98.507812 52.3125 98.507812 51.890625 98.085938 C 51.960938 97.375 52.289062 96.941406 52.734375 96.398438 C 52.492188 95.878906 52.300781 95.542969 51.890625 95.132812 C 52.039062 93.90625 52.039062 93.90625 52.789062 93.800781 Z M 52.789062 93.800781 "/>
<path style=" stroke:none;fill-rule:nonzero;fill:rgb(91.764706%,92.941176%,94.117647%);fill-opacity:1;" d="M 52.3125 100.40625 C 52.921875 100.46875 53.265625 100.511719 53.695312 100.960938 C 53.796875 101.054688 53.898438 101.152344 54 101.25 C 54.558594 101.214844 54.773438 101.117188 55.148438 100.695312 C 55.308594 100.550781 55.308594 100.550781 55.476562 100.40625 C 56.042969 100.472656 56.042969 100.472656 56.53125 100.617188 C 56.703125 101.066406 56.703125 101.066406 56.742188 101.671875 C 56.4375 102.15625 56.085938 102.519531 55.6875 102.9375 C 55.867188 103.09375 56.042969 103.25 56.226562 103.414062 C 56.742188 103.992188 56.742188 103.992188 56.730469 104.453125 C 56.53125 104.835938 56.53125 104.835938 56.109375 105.257812 C 55.296875 105.203125 54.808594 104.71875 54.210938 104.203125 C 54.058594 104.382812 53.90625 104.558594 53.75 104.742188 C 53.15625 105.257812 53.15625 105.257812 52.5625 105.21875 C 52.410156 105.160156 52.257812 105.105469 52.101562 105.046875 C 51.929688 104.597656 51.929688 104.597656 51.890625 103.992188 C 52.195312 103.507812 52.546875 103.144531 52.945312 102.726562 C 52.765625 102.574219 52.589844 102.421875 52.40625 102.265625 C 51.890625 101.671875 51.890625 101.671875 51.917969 101.09375 C 52.101562 100.617188 52.101562 100.617188 52.3125 100.40625 Z M 52.3125 100.40625 "/>
<path style=" stroke:none;fill-rule:nonzero;fill:rgb(28.627451%,30.196078%,32.156863%);fill-opacity:1;" d="M 69.539062 46.652344 C 70.394531 47.195312 71.148438 47.75 71.507812 48.726562 C 71.457031 49.191406 71.417969 49.449219 71.085938 49.78125 C 70.609375 49.875 70.609375 49.875 70.03125 49.78125 C 69.664062 49.371094 69.3125 48.949219 68.976562 48.515625 C 68.191406 48.253906 67.46875 48.160156 66.65625 48.304688 C 66.089844 48.761719 65.714844 49.128906 65.390625 49.78125 C 64.96875 49.789062 64.546875 49.789062 64.125 49.78125 C 63.914062 49.570312 63.914062 49.570312 63.820312 49.121094 C 63.996094 47.988281 64.839844 47.289062 65.734375 46.628906 C 67 46.230469 68.300781 46.109375 69.539062 46.652344 Z M 69.539062 46.652344 "/>
<path style=" stroke:none;fill-rule:nonzero;fill:rgb(27.843137%,29.803922%,31.764706%);fill-opacity:1;" d="M 42.476562 46.867188 C 43.136719 47.339844 43.664062 47.8125 44.085938 48.515625 C 44.152344 49.09375 44.152344 49.09375 44.085938 49.570312 C 43.875 49.78125 43.875 49.78125 43.398438 49.875 C 42.535156 49.734375 42.285156 49.1875 41.765625 48.515625 C 40.984375 48.253906 40.257812 48.1875 39.445312 48.304688 C 38.753906 48.742188 38.421875 49.101562 37.96875 49.78125 C 37.429688 49.835938 37.429688 49.835938 36.914062 49.78125 C 36.703125 49.570312 36.703125 49.570312 36.636719 48.992188 C 36.71875 48.136719 36.945312 47.851562 37.546875 47.25 C 38.992188 46.238281 40.914062 45.933594 42.476562 46.867188 Z M 42.476562 46.867188 "/>
<path style=" stroke:none;fill-rule:nonzero;fill:rgb(89.019608%,63.137255%,56.862745%);fill-opacity:1;" d="M 51.046875 52.734375 C 51.585938 52.789062 51.585938 52.789062 52.101562 52.945312 C 52.34375 53.429688 52.335938 53.699219 52.332031 54.238281 C 52.332031 54.410156 52.332031 54.578125 52.332031 54.753906 C 52.328125 54.929688 52.328125 55.109375 52.324219 55.292969 C 52.324219 55.472656 52.324219 55.648438 52.324219 55.835938 C 52.320312 56.277344 52.316406 56.722656 52.3125 57.164062 C 52.511719 57.15625 52.511719 57.15625 52.714844 57.148438 C 52.886719 57.144531 53.058594 57.140625 53.234375 57.136719 C 53.492188 57.128906 53.492188 57.128906 53.753906 57.121094 C 54.210938 57.164062 54.210938 57.164062 54.632812 57.585938 C 54.515625 58.546875 54.515625 58.546875 54.210938 58.851562 C 53.683594 58.878906 53.167969 58.890625 52.640625 58.890625 C 52.421875 58.894531 52.421875 58.894531 52.199219 58.898438 C 51.8125 58.898438 51.429688 58.878906 51.046875 58.851562 C 50.488281 58.292969 50.570312 58.027344 50.570312 57.25 C 50.570312 57.015625 50.566406 56.78125 50.566406 56.539062 C 50.570312 56.167969 50.570312 56.167969 50.570312 55.792969 C 50.570312 55.546875 50.570312 55.300781 50.566406 55.046875 C 50.566406 54.8125 50.570312 54.578125 50.570312 54.335938 C 50.570312 54.121094 50.570312 53.902344 50.570312 53.679688 C 50.625 53.15625 50.625 53.15625 51.046875 52.734375 Z M 51.046875 52.734375 "/>
</g>
</svg>
