<?xml version="1.0" encoding="UTF-8"?>
<svg xmlns="http://www.w3.org/2000/svg" xmlns:xlink="http://www.w3.org/1999/xlink" width="105px" height="105px" viewBox="0 0 105 105" version="1.1">
<g id="surface1">
<path style=" stroke:none;fill-rule:nonzero;fill:rgb(99.607843%,86.27451%,80.392157%);fill-opacity:1;" d="M 45.246094 -0.03125 C 45.417969 -0.0351562 45.589844 -0.0351562 45.765625 -0.0351562 C 46.328125 -0.0390625 46.894531 -0.0390625 47.457031 -0.0429688 C 47.648438 -0.0429688 47.84375 -0.0429688 48.042969 -0.0429688 C 49.070312 -0.046875 50.097656 -0.046875 51.125 -0.0507812 C 52.179688 -0.0507812 53.234375 -0.0546875 54.285156 -0.0625 C 55.101562 -0.0664062 55.917969 -0.0664062 56.738281 -0.0664062 C 57.125 -0.0664062 57.511719 -0.0703125 57.898438 -0.0703125 C 61.890625 -0.0976562 65.292969 0.617188 68.957031 2.257812 C 69.800781 2.636719 70.652344 3 71.507812 3.347656 C 77.976562 5.96875 83.757812 9.5 88.800781 14.355469 C 89 14.550781 89 14.550781 89.207031 14.75 C 91.15625 16.625 92.945312 18.53125 94.542969 20.710938 C 94.71875 20.949219 94.894531 21.183594 95.070312 21.421875 C 96.308594 23.101562 97.40625 24.847656 98.4375 26.660156 C 98.511719 26.789062 98.585938 26.917969 98.664062 27.054688 C 103.09375 34.792969 105.097656 43.566406 105.0625 52.421875 C 105.0625 52.632812 105.0625 52.839844 105.0625 53.054688 C 105.050781 56.050781 105 58.992188 104.386719 61.933594 C 104.324219 62.234375 104.324219 62.234375 104.261719 62.539062 C 102.1875 72.460938 97.691406 81.484375 90.644531 88.796875 C 90.515625 88.933594 90.386719 89.070312 90.25 89.207031 C 88.375 91.15625 86.46875 92.945312 84.289062 94.539062 C 84.050781 94.71875 83.816406 94.894531 83.578125 95.070312 C 81.898438 96.308594 80.152344 97.40625 78.339844 98.4375 C 78.210938 98.511719 78.082031 98.585938 77.945312 98.664062 C 73.320312 101.3125 68.234375 103.0625 63.023438 104.128906 C 62.824219 104.167969 62.625 104.210938 62.417969 104.253906 C 59.136719 104.886719 55.925781 105.078125 52.589844 105.0625 C 52.390625 105.0625 52.191406 105.0625 51.988281 105.0625 C 48.976562 105.050781 46.027344 104.964844 43.066406 104.382812 C 42.855469 104.34375 42.644531 104.304688 42.425781 104.261719 C 33.582031 102.503906 25.296875 98.59375 18.457031 92.695312 C 18.304688 92.566406 18.152344 92.433594 17.992188 92.300781 C 15.222656 89.878906 12.625 87.265625 10.460938 84.285156 C 10.285156 84.050781 10.109375 83.816406 9.933594 83.578125 C 8.691406 81.898438 7.589844 80.15625 6.5625 78.339844 C 6.480469 78.195312 6.398438 78.050781 6.3125 77.898438 C 3.640625 73.15625 1.847656 67.992188 0.757812 62.664062 C 0.726562 62.515625 0.695312 62.371094 0.664062 62.21875 C 0.0546875 59.007812 -0.078125 55.835938 -0.0625 52.578125 C -0.0625 52.367188 -0.0625 52.160156 -0.0625 51.945312 C -0.0507812 48.949219 0 46.007812 0.617188 43.066406 C 0.65625 42.867188 0.695312 42.667969 0.738281 42.460938 C 2.8125 32.539062 7.308594 23.515625 14.355469 16.199219 C 14.484375 16.066406 14.613281 15.929688 14.75 15.792969 C 16.625 13.84375 18.53125 12.054688 20.714844 10.457031 C 20.949219 10.28125 21.183594 10.105469 21.421875 9.929688 C 23.101562 8.691406 24.84375 7.589844 26.660156 6.5625 C 26.800781 6.480469 26.941406 6.402344 27.085938 6.320312 C 29.777344 4.796875 32.585938 3.640625 35.457031 2.507812 C 36.175781 2.222656 36.886719 1.921875 37.597656 1.621094 C 40.09375 0.558594 42.53125 -0.0273438 45.246094 -0.03125 Z M 45.246094 -0.03125 "/>
<path style=" stroke:none;fill-rule:nonzero;fill:rgb(86.27451%,41.176471%,21.960784%);fill-opacity:1;" d="M 45.246094 -0.03125 C 45.417969 -0.0351562 45.589844 -0.0351562 45.765625 -0.0351562 C 46.328125 -0.0390625 46.894531 -0.0390625 47.457031 -0.0429688 C 47.648438 -0.0429688 47.84375 -0.0429688 48.042969 -0.0429688 C 49.070312 -0.046875 50.097656 -0.046875 51.125 -0.0507812 C 52.179688 -0.0507812 53.234375 -0.0546875 54.285156 -0.0625 C 55.101562 -0.0664062 55.917969 -0.0664062 56.738281 -0.0664062 C 57.125 -0.0664062 57.511719 -0.0703125 57.898438 -0.0703125 C 62.136719 -0.0976562 65.742188 0.65625 69.523438 2.664062 C 69.523438 2.800781 69.523438 2.9375 69.523438 3.074219 C 69.636719 3.097656 69.753906 3.117188 69.871094 3.140625 C 71.628906 3.667969 73.140625 5.332031 74.445312 6.5625 C 74.574219 6.683594 74.707031 6.804688 74.839844 6.925781 C 78.355469 10.261719 80.390625 15.28125 80.878906 20.039062 C 81.011719 20.753906 81.113281 20.941406 81.632812 21.417969 C 82.382812 22.203125 82.847656 23.042969 83.324219 24.007812 C 83.429688 24.214844 83.429688 24.214844 83.535156 24.425781 C 84.402344 26.210938 84.558594 27.71875 84.566406 29.695312 C 84.570312 29.953125 84.570312 30.207031 84.574219 30.46875 C 84.578125 31.003906 84.578125 31.542969 84.578125 32.082031 C 84.582031 32.894531 84.59375 33.707031 84.601562 34.519531 C 84.625 38.199219 84.40625 41.195312 82.238281 44.296875 C 82.027344 44.234375 82.027344 44.234375 81.816406 44.167969 C 81.542969 44.085938 81.542969 44.085938 81.261719 44.003906 C 81.082031 43.949219 80.902344 43.894531 80.714844 43.835938 C 79.925781 43.605469 79.214844 43.449219 78.386719 43.410156 C 78.207031 43.402344 78.023438 43.394531 77.835938 43.386719 C 77.644531 43.378906 77.457031 43.371094 77.261719 43.359375 C 77.070312 43.351562 76.878906 43.34375 76.679688 43.335938 C 76.207031 43.3125 75.738281 43.292969 75.265625 43.269531 C 75.257812 42.90625 75.257812 42.90625 75.253906 42.53125 C 75.242188 41.617188 75.226562 40.707031 75.210938 39.792969 C 75.203125 39.398438 75.199219 39.003906 75.191406 38.609375 C 75.1875 38.042969 75.175781 37.472656 75.164062 36.902344 C 75.160156 36.644531 75.160156 36.644531 75.160156 36.378906 C 75.117188 34.59375 74.714844 33.011719 73.625 31.582031 C 73.472656 31.785156 73.472656 31.785156 73.316406 31.992188 C 71.421875 34.261719 69.121094 36.007812 66.101562 36.363281 C 65.539062 36.394531 64.984375 36.40625 64.421875 36.402344 C 64.222656 36.398438 64.023438 36.398438 63.820312 36.398438 C 62.261719 36.359375 61.027344 36.085938 59.679688 35.273438 C 59.511719 35.179688 59.347656 35.085938 59.179688 34.988281 C 56.601562 33.402344 55.09375 31.207031 54.347656 28.300781 C 53.128906 28.300781 51.910156 28.300781 50.65625 28.300781 C 50.546875 28.664062 50.441406 29.027344 50.332031 29.402344 C 49.40625 32.179688 47.480469 34.152344 44.914062 35.476562 C 44.753906 35.5625 44.597656 35.648438 44.4375 35.738281 C 42.183594 36.765625 38.988281 36.707031 36.671875 35.886719 C 34.773438 35.007812 32.984375 33.734375 31.789062 31.992188 C 31.789062 31.855469 31.789062 31.722656 31.789062 31.582031 C 31.652344 31.582031 31.515625 31.582031 31.378906 31.582031 C 31.320312 31.75 31.265625 31.921875 31.210938 32.09375 C 30.964844 32.8125 30.964844 32.8125 30.652344 33.546875 C 30.277344 34.542969 30.253906 35.488281 30.246094 36.542969 C 30.242188 36.734375 30.238281 36.929688 30.234375 37.128906 C 30.222656 37.742188 30.21875 38.351562 30.210938 38.964844 C 30.203125 39.382812 30.195312 39.800781 30.1875 40.21875 C 30.171875 41.234375 30.160156 42.253906 30.148438 43.269531 C 30.007812 43.273438 29.871094 43.273438 29.726562 43.277344 C 29.089844 43.289062 28.453125 43.304688 27.8125 43.324219 C 27.597656 43.324219 27.378906 43.328125 27.15625 43.332031 C 25.824219 43.371094 24.796875 43.5625 23.589844 44.144531 C 23.171875 44.296875 23.171875 44.296875 22.558594 44.089844 C 22.253906 43.597656 21.992188 43.121094 21.738281 42.605469 C 21.667969 42.472656 21.597656 42.339844 21.523438 42.203125 C 20.195312 39.542969 20.199219 36.824219 20.210938 33.917969 C 20.214844 33.265625 20.207031 32.613281 20.199219 31.957031 C 20.1875 28.207031 20.5625 24.488281 23.210938 21.597656 C 24.046875 20.609375 24.21875 19.65625 24.390625 18.417969 C 25.179688 12.84375 28.484375 7.695312 32.960938 4.328125 C 34.707031 3.074219 34.707031 3.074219 35.273438 3.074219 C 35.273438 2.941406 35.273438 2.804688 35.273438 2.664062 C 38.523438 1.132812 41.601562 -0.0273438 45.246094 -0.03125 Z M 45.246094 -0.03125 "/>
<path style=" stroke:none;fill-rule:nonzero;fill:rgb(86.27451%,41.176471%,21.960784%);fill-opacity:1;" d="M 32.589844 69.851562 C 32.765625 69.851562 32.941406 69.851562 33.125 69.847656 C 33.710938 69.847656 34.300781 69.847656 34.886719 69.847656 C 35.3125 69.847656 35.734375 69.847656 36.15625 69.84375 C 37.304688 69.839844 38.453125 69.839844 39.597656 69.84375 C 40.558594 69.84375 41.515625 69.839844 42.472656 69.839844 C 44.734375 69.835938 47 69.835938 49.261719 69.839844 C 51.589844 69.84375 53.921875 69.839844 56.253906 69.835938 C 58.257812 69.828125 60.261719 69.828125 62.265625 69.828125 C 63.460938 69.832031 64.65625 69.828125 65.851562 69.824219 C 66.976562 69.824219 68.101562 69.824219 69.226562 69.828125 C 69.640625 69.828125 70.050781 69.828125 70.460938 69.824219 C 73.105469 69.8125 75.347656 69.832031 77.363281 71.773438 C 78.644531 73.242188 78.902344 74.636719 78.839844 76.566406 C 78.714844 77.59375 78.410156 78.453125 77.929688 79.363281 C 78.089844 79.417969 78.246094 79.46875 78.410156 79.523438 C 82.761719 81.066406 85.996094 83.957031 88.09375 88.066406 C 88.164062 88.207031 88.234375 88.34375 88.308594 88.488281 C 88.667969 89.222656 88.949219 89.824219 88.796875 90.644531 C 86.574219 93.917969 81.722656 96.511719 78.339844 98.4375 C 78.210938 98.511719 78.082031 98.585938 77.945312 98.664062 C 73.320312 101.3125 68.234375 103.0625 63.023438 104.128906 C 62.824219 104.167969 62.625 104.210938 62.417969 104.253906 C 59.136719 104.886719 55.925781 105.078125 52.589844 105.0625 C 52.292969 105.0625 52.292969 105.0625 51.988281 105.0625 C 48.976562 105.050781 46.027344 104.964844 43.066406 104.382812 C 42.855469 104.34375 42.644531 104.304688 42.425781 104.261719 C 33.582031 102.503906 25.296875 98.597656 18.457031 92.695312 C 18.265625 92.53125 18.074219 92.367188 17.878906 92.199219 C 16.203125 90.734375 16.203125 90.734375 15.996094 90.027344 C 16.214844 89.226562 16.636719 88.507812 17.019531 87.773438 C 17.125 87.574219 17.226562 87.371094 17.332031 87.164062 C 19.53125 83.113281 22.960938 80.96875 27.070312 79.160156 C 27.011719 79.042969 26.953125 78.929688 26.894531 78.808594 C 26.089844 77.121094 25.90625 75.472656 26.417969 73.640625 C 27.109375 72.078125 28.300781 70.90625 29.859375 70.222656 C 30.78125 69.886719 31.613281 69.84375 32.589844 69.851562 Z M 32.589844 69.851562 "/>
<path style=" stroke:none;fill-rule:nonzero;fill:rgb(50.196078%,70.196078%,98.039216%);fill-opacity:1;" d="M 69.523438 2.664062 C 75.820312 4.671875 81.527344 8.019531 86.542969 12.304688 C 86.773438 12.5 86.773438 12.5 87.007812 12.699219 C 89.777344 15.125 92.375 17.734375 94.539062 20.710938 C 94.714844 20.949219 94.890625 21.183594 95.066406 21.421875 C 96.308594 23.101562 97.40625 24.847656 98.4375 26.660156 C 98.511719 26.789062 98.585938 26.917969 98.664062 27.054688 C 103.09375 34.792969 105.097656 43.566406 105.0625 52.421875 C 105.0625 52.734375 105.0625 52.734375 105.0625 53.054688 C 105.050781 56.050781 105 58.992188 104.382812 61.933594 C 104.324219 62.234375 104.324219 62.234375 104.261719 62.539062 C 102.003906 73.324219 96.886719 82.757812 89.003906 90.4375 C 88.742188 89.925781 88.492188 89.40625 88.246094 88.886719 C 87.472656 87.28125 86.691406 85.847656 85.515625 84.492188 C 85.296875 84.1875 85.296875 84.1875 85.070312 83.875 C 83.175781 81.660156 80.339844 80.472656 77.726562 79.367188 C 77.8125 79.195312 77.8125 79.195312 77.902344 79.023438 C 78.707031 77.3125 78.90625 75.460938 78.363281 73.628906 C 77.65625 72.078125 76.640625 71.164062 75.097656 70.484375 C 74.070312 70.101562 73.070312 69.976562 71.984375 69.929688 C 72.054688 69.808594 72.125 69.6875 72.199219 69.5625 C 73.039062 68.089844 73.691406 66.578125 74.316406 65.011719 C 74.375 64.875 74.429688 64.738281 74.488281 64.597656 C 74.59375 64.328125 74.691406 64.054688 74.777344 63.78125 C 74.910156 63.390625 74.910156 63.390625 75.265625 62.753906 C 75.917969 62.476562 75.917969 62.476562 76.699219 62.332031 C 79.707031 61.667969 82.042969 59.980469 83.75 57.394531 C 85.3125 54.65625 86.078125 51.671875 85.300781 48.539062 C 84.714844 46.886719 83.640625 45.527344 82.234375 44.5 C 82.511719 43.542969 82.921875 42.714844 83.402344 41.847656 C 84.199219 39.996094 84.382812 38.230469 84.375 36.230469 C 84.378906 35.972656 84.378906 35.71875 84.378906 35.457031 C 84.378906 34.921875 84.378906 34.382812 84.378906 33.847656 C 84.375 33.035156 84.382812 32.21875 84.390625 31.40625 C 84.390625 30.878906 84.390625 30.355469 84.390625 29.832031 C 84.390625 29.59375 84.394531 29.351562 84.394531 29.105469 C 84.375 26.664062 83.648438 23.761719 81.859375 21.976562 C 81.734375 21.859375 81.609375 21.742188 81.480469 21.621094 C 80.617188 20.703125 80.566406 19.671875 80.402344 18.46875 C 79.667969 13.128906 76.511719 7.984375 72.234375 4.730469 C 70.957031 3.757812 70.957031 3.757812 69.523438 3.078125 C 69.523438 2.941406 69.523438 2.804688 69.523438 2.664062 Z M 69.523438 2.664062 "/>
<path style=" stroke:none;fill-rule:nonzero;fill:rgb(50.196078%,70.196078%,98.039216%);fill-opacity:1;" d="M 35.273438 3.078125 C 35.140625 3.152344 35.003906 3.230469 34.867188 3.3125 C 33.234375 4.292969 31.917969 5.457031 30.554688 6.765625 C 30.425781 6.886719 30.292969 7.003906 30.15625 7.125 C 26.929688 10.0625 24.882812 14.992188 24.441406 19.265625 C 24.28125 20.5 23.800781 21.128906 22.988281 22.046875 C 20.515625 25 20.371094 28.917969 20.402344 32.574219 C 20.40625 33.222656 20.402344 33.871094 20.394531 34.515625 C 20.390625 37.855469 20.710938 40.664062 22.519531 43.542969 C 22.765625 44.09375 22.765625 44.09375 22.632812 44.546875 C 22.351562 44.914062 22.351562 44.914062 21.789062 45.347656 C 20.660156 46.25 19.808594 47.726562 19.535156 49.140625 C 19.175781 52.523438 19.921875 55.695312 21.988281 58.4375 C 23.503906 60.195312 25.445312 61.640625 27.6875 62.34375 C 27.855469 62.347656 28.027344 62.351562 28.207031 62.355469 C 28.847656 62.371094 29.183594 62.414062 29.734375 62.753906 C 30.246094 63.578125 30.511719 64.523438 30.816406 65.433594 C 31.144531 66.410156 31.570312 67.289062 32.070312 68.1875 C 32.140625 68.316406 32.210938 68.445312 32.285156 68.578125 C 32.460938 68.894531 32.636719 69.207031 32.8125 69.523438 C 32.878906 69.65625 32.949219 69.792969 33.015625 69.929688 C 32.875 69.9375 32.734375 69.941406 32.589844 69.949219 C 30.730469 70.058594 29.183594 70.519531 27.804688 71.816406 C 26.542969 73.257812 26.304688 74.683594 26.363281 76.566406 C 26.488281 77.59375 26.796875 78.453125 27.273438 79.367188 C 27.066406 79.453125 26.855469 79.539062 26.636719 79.628906 C 21.675781 81.710938 18.671875 84.554688 16.40625 89.414062 C 16.269531 89.6875 16.132812 89.960938 15.996094 90.234375 C 13.863281 88.464844 12.117188 86.5 10.460938 84.289062 C 10.371094 84.167969 10.28125 84.050781 10.1875 83.925781 C 8.855469 82.136719 7.660156 80.28125 6.5625 78.339844 C 6.480469 78.195312 6.398438 78.050781 6.3125 77.898438 C 3.640625 73.15625 1.847656 67.992188 0.757812 62.664062 C 0.726562 62.515625 0.695312 62.371094 0.664062 62.21875 C 0.0546875 59.007812 -0.078125 55.835938 -0.0625 52.578125 C -0.0625 52.367188 -0.0625 52.160156 -0.0625 51.945312 C -0.0507812 48.949219 0 46.007812 0.617188 43.066406 C 0.65625 42.867188 0.695312 42.667969 0.738281 42.460938 C 2.8125 32.539062 7.308594 23.515625 14.355469 16.203125 C 14.484375 16.066406 14.613281 15.929688 14.75 15.792969 C 16.625 13.84375 18.53125 12.054688 20.710938 10.460938 C 20.949219 10.28125 21.183594 10.105469 21.421875 9.929688 C 24.925781 7.347656 28.78125 5.191406 32.8125 3.550781 C 32.988281 3.476562 33.164062 3.40625 33.34375 3.332031 C 33.589844 3.234375 33.589844 3.234375 33.835938 3.136719 C 33.980469 3.082031 34.125 3.023438 34.273438 2.964844 C 34.65625 2.871094 34.65625 2.871094 35.273438 3.078125 Z M 35.273438 3.078125 "/>
<path style=" stroke:none;fill-rule:nonzero;fill:rgb(21.176471%,36.862745%,48.627451%);fill-opacity:1;" d="M 27.480469 79.367188 C 27.828125 79.703125 28.167969 80.046875 28.507812 80.390625 C 28.800781 80.527344 29.09375 80.664062 29.390625 80.800781 C 29.820312 81.054688 29.820312 81.054688 30.148438 81.414062 C 30.234375 82.089844 30.195312 82.714844 30.15625 83.394531 C 30.136719 84.871094 30.828125 86.183594 31.820312 87.253906 C 33.238281 88.433594 34.738281 88.828125 36.539062 88.796875 C 36.832031 88.796875 37.121094 88.800781 37.414062 88.800781 C 37.867188 88.800781 38.324219 88.800781 38.777344 88.789062 C 41.285156 88.734375 41.285156 88.734375 42.058594 89.335938 C 42.390625 89.820312 42.621094 90.308594 42.859375 90.851562 C 43.105469 91.28125 43.351562 91.710938 43.605469 92.136719 C 43.996094 92.835938 44.390625 93.53125 44.777344 94.230469 C 45.726562 95.90625 46.683594 97.539062 48.398438 98.515625 C 48.558594 98.609375 48.71875 98.703125 48.886719 98.800781 C 50.929688 99.757812 53.230469 99.792969 55.34375 99.039062 C 57.53125 98.074219 58.65625 96.878906 59.824219 94.804688 C 60.273438 94.003906 60.742188 93.214844 61.207031 92.421875 C 61.699219 91.578125 62.1875 90.738281 62.675781 89.894531 C 62.894531 89.523438 63.128906 89.160156 63.367188 88.796875 C 63.882812 88.738281 64.347656 88.71875 64.863281 88.722656 C 65.167969 88.71875 65.476562 88.714844 65.785156 88.710938 C 66.265625 88.710938 66.75 88.710938 67.230469 88.710938 C 69.371094 88.707031 71.109375 88.570312 72.96875 87.414062 C 73.949219 86.40625 74.597656 85.265625 74.851562 83.875 C 74.824219 83.460938 74.792969 83.046875 74.765625 82.632812 C 74.738281 81.539062 74.738281 81.539062 75.234375 81.011719 C 75.726562 80.699219 75.726562 80.699219 76.214844 80.449219 C 76.75 80.15625 77.105469 79.8125 77.519531 79.367188 C 80.011719 79.914062 81.925781 81.027344 83.875 82.648438 C 84 82.738281 84.121094 82.828125 84.246094 82.925781 C 85.96875 84.269531 87.117188 86.144531 88.09375 88.066406 C 88.199219 88.277344 88.199219 88.277344 88.308594 88.488281 C 88.667969 89.222656 88.949219 89.824219 88.796875 90.644531 C 86.574219 93.917969 81.722656 96.511719 78.339844 98.4375 C 78.210938 98.511719 78.082031 98.585938 77.945312 98.664062 C 73.320312 101.3125 68.234375 103.0625 63.023438 104.128906 C 62.824219 104.167969 62.625 104.210938 62.417969 104.253906 C 59.136719 104.886719 55.925781 105.078125 52.589844 105.0625 C 52.292969 105.0625 52.292969 105.0625 51.988281 105.0625 C 48.976562 105.050781 46.027344 104.964844 43.066406 104.382812 C 42.855469 104.34375 42.644531 104.304688 42.425781 104.261719 C 33.582031 102.503906 25.296875 98.597656 18.457031 92.695312 C 18.265625 92.53125 18.074219 92.367188 17.878906 92.199219 C 16.203125 90.734375 16.203125 90.734375 15.996094 90.03125 C 16.214844 89.226562 16.636719 88.507812 17.023438 87.773438 C 17.125 87.574219 17.226562 87.371094 17.332031 87.164062 C 19.140625 83.832031 23.363281 79.367188 27.480469 79.367188 Z M 27.480469 79.367188 "/>
<path style=" stroke:none;fill-rule:nonzero;fill:rgb(21.568627%,36.862745%,48.627451%);fill-opacity:1;" d="M 40.167969 15.535156 C 40.328125 15.53125 40.484375 15.53125 40.644531 15.53125 C 43.5 15.539062 46.128906 16.820312 48.167969 18.785156 C 48.859375 19.566406 49.359375 20.40625 49.835938 21.328125 C 49.957031 21.542969 50.078125 21.757812 50.207031 21.980469 C 50.449219 22.558594 50.449219 22.558594 50.65625 23.992188 C 51.871094 23.992188 53.089844 23.992188 54.34375 23.992188 C 54.386719 23.734375 54.429688 23.476562 54.472656 23.210938 C 55.039062 20.726562 56.703125 18.574219 58.78125 17.136719 C 61.40625 15.519531 64.4375 15.066406 67.445312 15.773438 C 68.804688 16.269531 70.011719 16.964844 71.164062 17.84375 C 71.328125 17.964844 71.496094 18.085938 71.667969 18.210938 C 73.625 19.90625 74.773438 22.355469 74.96875 24.902344 C 75.066406 26.585938 75.066406 26.585938 76.007812 27.929688 C 76.226562 28.105469 76.226562 28.105469 76.449219 28.289062 C 77.015625 28.8125 77.390625 29.40625 77.777344 30.070312 C 77.96875 30.398438 77.96875 30.398438 78.164062 30.730469 C 79.476562 33.46875 79.46875 36.074219 79.417969 39.042969 C 79.414062 39.453125 79.410156 39.867188 79.40625 40.277344 C 79.398438 41.273438 79.382812 42.273438 79.367188 43.273438 C 78.011719 43.273438 76.65625 43.273438 75.265625 43.273438 C 75.257812 42.6875 75.25 42.105469 75.242188 41.503906 C 75.230469 40.933594 75.21875 40.363281 75.210938 39.792969 C 75.203125 39.398438 75.199219 39.003906 75.191406 38.609375 C 75.1875 38.042969 75.175781 37.472656 75.164062 36.902344 C 75.160156 36.644531 75.160156 36.644531 75.160156 36.378906 C 75.117188 34.59375 74.714844 33.011719 73.625 31.582031 C 73.472656 31.785156 73.472656 31.785156 73.316406 31.992188 C 71.421875 34.261719 69.121094 36.007812 66.101562 36.363281 C 65.539062 36.394531 64.984375 36.40625 64.421875 36.402344 C 64.222656 36.398438 64.023438 36.398438 63.820312 36.398438 C 62.261719 36.359375 61.027344 36.085938 59.679688 35.273438 C 59.511719 35.179688 59.347656 35.085938 59.179688 34.988281 C 56.601562 33.402344 55.09375 31.207031 54.34375 28.300781 C 53.128906 28.300781 51.910156 28.300781 50.65625 28.300781 C 50.546875 28.664062 50.441406 29.027344 50.332031 29.402344 C 49.40625 32.179688 47.480469 34.152344 44.914062 35.476562 C 44.675781 35.605469 44.675781 35.605469 44.4375 35.738281 C 42.183594 36.765625 38.988281 36.707031 36.671875 35.890625 C 34.773438 35.007812 32.984375 33.734375 31.789062 31.992188 C 31.789062 31.855469 31.789062 31.722656 31.789062 31.582031 C 31.652344 31.582031 31.515625 31.582031 31.375 31.582031 C 31.320312 31.75 31.265625 31.921875 31.210938 32.09375 C 30.96875 32.8125 30.96875 32.8125 30.652344 33.546875 C 30.277344 34.542969 30.253906 35.488281 30.246094 36.542969 C 30.242188 36.734375 30.238281 36.929688 30.234375 37.128906 C 30.222656 37.742188 30.21875 38.351562 30.210938 38.964844 C 30.203125 39.382812 30.195312 39.800781 30.1875 40.21875 C 30.171875 41.234375 30.160156 42.253906 30.148438 43.273438 C 28.792969 43.273438 27.4375 43.273438 26.046875 43.273438 C 26.035156 42.117188 26.027344 40.964844 26.023438 39.8125 C 26.019531 39.421875 26.015625 39.03125 26.015625 38.640625 C 25.964844 33.046875 25.964844 33.046875 27.199219 30.722656 C 27.269531 30.582031 27.339844 30.441406 27.414062 30.296875 C 27.855469 29.464844 28.324219 28.832031 29.003906 28.171875 C 29.914062 27.242188 29.878906 26.40625 29.902344 25.148438 C 30.035156 22.582031 31.359375 20.007812 33.222656 18.25 C 34.421875 17.285156 35.675781 16.535156 37.117188 15.996094 C 37.394531 15.886719 37.394531 15.886719 37.675781 15.773438 C 38.523438 15.539062 39.292969 15.527344 40.167969 15.535156 Z M 40.167969 15.535156 "/>
<path style=" stroke:none;fill-rule:nonzero;fill:rgb(99.607843%,79.215686%,74.117647%);fill-opacity:1;" d="M 31.375 31.582031 C 31.511719 31.582031 31.648438 31.582031 31.789062 31.582031 C 32.023438 31.882812 32.023438 31.882812 32.300781 32.300781 C 33.710938 34.226562 35.808594 35.578125 38.144531 36.09375 C 38.425781 36.121094 38.707031 36.144531 38.988281 36.160156 C 39.140625 36.167969 39.296875 36.175781 39.457031 36.183594 C 39.617188 36.191406 39.773438 36.199219 39.9375 36.210938 C 40.101562 36.21875 40.265625 36.226562 40.429688 36.234375 C 40.832031 36.257812 41.230469 36.277344 41.632812 36.296875 C 41.496094 36.367188 41.359375 36.433594 41.21875 36.503906 C 41.207031 39.246094 41.195312 41.984375 41.1875 44.726562 C 41.1875 45.996094 41.179688 47.269531 41.175781 48.542969 C 41.167969 49.773438 41.164062 51.003906 41.164062 52.238281 C 41.160156 52.703125 41.160156 53.171875 41.15625 53.636719 C 41.113281 59.757812 42.285156 64.632812 45.320312 69.929688 C 43.738281 69.972656 42.15625 70.007812 40.574219 70.027344 C 39.835938 70.035156 39.101562 70.050781 38.367188 70.070312 C 37.65625 70.089844 36.949219 70.101562 36.238281 70.105469 C 35.835938 70.113281 35.433594 70.125 35.03125 70.140625 C 33.246094 70.140625 33.246094 70.140625 32.585938 69.535156 C 32.265625 69.0625 32.019531 68.605469 31.789062 68.085938 C 31.714844 67.953125 31.644531 67.820312 31.574219 67.683594 C 30.734375 66.113281 30.117188 64.496094 29.734375 62.753906 C 29.464844 62.753906 29.195312 62.753906 28.914062 62.753906 C 26.179688 62.46875 23.710938 60.667969 21.945312 58.652344 C 19.867188 55.847656 19.089844 53.074219 19.277344 49.628906 C 19.605469 47.433594 20.90625 45.753906 22.621094 44.414062 C 24.355469 43.402344 25.816406 43.15625 27.8125 43.21875 C 28.039062 43.222656 28.265625 43.226562 28.496094 43.230469 C 29.046875 43.242188 29.597656 43.253906 30.148438 43.273438 C 30.140625 43.015625 30.136719 42.761719 30.128906 42.5 C 30.113281 41.546875 30.101562 40.59375 30.089844 39.640625 C 30.085938 39.226562 30.078125 38.816406 30.070312 38.40625 C 29.976562 34.054688 29.976562 34.054688 31.171875 31.992188 C 31.238281 31.855469 31.308594 31.722656 31.375 31.582031 Z M 31.375 31.582031 "/>
<path style=" stroke:none;fill-rule:nonzero;fill:rgb(86.27451%,32.941176%,18.039216%);fill-opacity:1;" d="M 45.03125 -0.0234375 C 45.179688 -0.0234375 45.328125 -0.0234375 45.480469 -0.0234375 C 45.964844 -0.0234375 46.453125 -0.0234375 46.9375 -0.0195312 C 47.273438 -0.0195312 47.613281 -0.0195312 47.949219 -0.0195312 C 48.835938 -0.0195312 49.722656 -0.015625 50.609375 -0.015625 C 51.515625 -0.0117188 52.421875 -0.0117188 53.328125 -0.0117188 C 55.101562 -0.0078125 56.878906 -0.00390625 58.652344 0 C 58.652344 0.0664062 58.652344 0.136719 58.652344 0.203125 C 58.390625 0.25 58.132812 0.296875 57.863281 0.339844 C 51.890625 1.421875 46.515625 4.285156 42.914062 9.28125 C 41.769531 11.007812 40.75 12.875 40.097656 14.847656 C 39.785156 15.585938 39.785156 15.585938 39.386719 15.753906 C 39.082031 15.816406 38.777344 15.867188 38.472656 15.914062 C 36.714844 16.1875 35.246094 17.003906 33.839844 18.046875 C 33.660156 18.164062 33.484375 18.285156 33.300781 18.40625 C 31.65625 19.964844 30.550781 22.179688 30.148438 24.402344 C 30.140625 24.863281 30.136719 25.320312 30.132812 25.777344 C 30.042969 27.144531 29.730469 27.671875 28.765625 28.601562 C 28.179688 29.257812 27.800781 29.941406 27.402344 30.722656 C 27.335938 30.851562 27.265625 30.980469 27.195312 31.113281 C 25.96875 33.601562 26.167969 36.515625 26.121094 39.222656 C 26.113281 39.613281 26.105469 40.007812 26.097656 40.402344 C 26.078125 41.359375 26.0625 42.316406 26.046875 43.269531 C 25.652344 43.40625 25.257812 43.535156 24.867188 43.667969 C 24.539062 43.78125 24.539062 43.78125 24.203125 43.890625 C 23.722656 44.046875 23.253906 44.183594 22.765625 44.296875 C 21.054688 41.667969 20.242188 39.050781 20.234375 35.925781 C 20.234375 35.71875 20.230469 35.511719 20.230469 35.296875 C 20.226562 34.855469 20.226562 34.417969 20.226562 33.980469 C 20.226562 33.320312 20.21875 32.660156 20.210938 32 C 20.191406 28.230469 20.546875 24.507812 23.210938 21.597656 C 24.046875 20.609375 24.21875 19.65625 24.390625 18.417969 C 25.179688 12.84375 28.484375 7.695312 32.960938 4.328125 C 34.707031 3.074219 34.707031 3.074219 35.273438 3.074219 C 35.273438 2.941406 35.273438 2.804688 35.273438 2.664062 C 38.441406 1.171875 41.46875 -0.03125 45.03125 -0.0234375 Z M 45.03125 -0.0234375 "/>
<path style=" stroke:none;fill-rule:nonzero;fill:rgb(88.235294%,49.019608%,27.843137%);fill-opacity:1;" d="M 46.523438 69.902344 C 46.761719 69.898438 47 69.898438 47.25 69.898438 C 47.511719 69.894531 47.773438 69.894531 48.042969 69.894531 C 48.320312 69.894531 48.601562 69.894531 48.878906 69.890625 C 49.796875 69.886719 50.714844 69.886719 51.628906 69.882812 C 51.945312 69.882812 52.261719 69.882812 52.582031 69.878906 C 54.066406 69.875 55.554688 69.875 57.042969 69.871094 C 58.753906 69.871094 60.464844 69.863281 62.179688 69.855469 C 63.503906 69.851562 64.832031 69.847656 66.15625 69.847656 C 66.949219 69.84375 67.738281 69.84375 68.53125 69.839844 C 69.277344 69.832031 70.019531 69.832031 70.765625 69.835938 C 71.164062 69.835938 71.566406 69.832031 71.96875 69.828125 C 74.085938 69.839844 75.804688 70.273438 77.363281 71.773438 C 78.636719 73.234375 78.921875 74.648438 78.847656 76.570312 C 78.640625 78.140625 77.898438 79.425781 76.714844 80.476562 C 75.09375 81.710938 73.289062 81.742188 71.328125 81.730469 C 71.039062 81.730469 70.75 81.734375 70.464844 81.734375 C 69.6875 81.742188 68.910156 81.738281 68.132812 81.738281 C 67.484375 81.738281 66.835938 81.738281 66.183594 81.738281 C 64.648438 81.742188 63.113281 81.742188 61.578125 81.738281 C 60 81.734375 58.421875 81.738281 56.84375 81.746094 C 55.480469 81.75 54.121094 81.753906 52.761719 81.75 C 51.949219 81.75 51.140625 81.75 50.332031 81.753906 C 49.566406 81.757812 48.804688 81.757812 48.042969 81.753906 C 47.632812 81.75 47.222656 81.753906 46.8125 81.757812 C 44.90625 81.738281 43.558594 81.335938 42.078125 80.121094 C 40.617188 78.328125 40.246094 76.964844 40.398438 74.648438 C 40.648438 73.191406 41.351562 72.132812 42.449219 71.160156 C 43.773438 70.25 44.914062 69.910156 46.523438 69.902344 Z M 46.523438 69.902344 "/>
<path style=" stroke:none;fill-rule:nonzero;fill:rgb(16.862745%,30.196078%,40%);fill-opacity:1;" d="M 27.480469 79.367188 C 27.828125 79.703125 28.167969 80.046875 28.507812 80.390625 C 28.800781 80.527344 29.09375 80.664062 29.390625 80.800781 C 29.820312 81.054688 29.820312 81.054688 30.148438 81.414062 C 30.234375 82.089844 30.195312 82.714844 30.15625 83.394531 C 30.136719 84.867188 30.828125 86.1875 31.820312 87.253906 C 32.925781 88.179688 34.296875 88.671875 35.683594 89.003906 C 35.582031 89.636719 35.414062 90.210938 35.195312 90.8125 C 34.761719 92.09375 34.566406 93.414062 34.351562 94.746094 C 34.261719 95.273438 34.175781 95.804688 34.085938 96.332031 C 34.042969 96.585938 34 96.839844 33.957031 97.101562 C 33.800781 98.050781 33.632812 98.992188 33.464844 99.9375 C 33.417969 100.210938 33.371094 100.480469 33.320312 100.753906 C 33.289062 100.9375 33.257812 101.121094 33.222656 101.308594 C 31.957031 101.203125 30.914062 100.648438 29.789062 100.105469 C 29.578125 100.003906 29.371094 99.902344 29.15625 99.796875 C 24.796875 97.660156 18.988281 94.449219 16.121094 90.449219 C 15.847656 89.527344 16.601562 88.574219 17.023438 87.773438 C 17.125 87.574219 17.226562 87.371094 17.332031 87.164062 C 19.140625 83.832031 23.363281 79.367188 27.480469 79.367188 Z M 27.480469 79.367188 "/>
<path style=" stroke:none;fill-rule:nonzero;fill:rgb(86.27451%,41.176471%,22.352941%);fill-opacity:1;" d="M 35.683594 16.609375 C 35.199219 17.003906 34.714844 17.390625 34.203125 17.753906 C 32.003906 19.335938 30.632812 21.730469 30.148438 24.40625 C 30.140625 24.863281 30.136719 25.320312 30.132812 25.777344 C 30.042969 27.144531 29.730469 27.671875 28.765625 28.601562 C 28.179688 29.257812 27.800781 29.941406 27.402344 30.722656 C 27.335938 30.851562 27.265625 30.980469 27.195312 31.113281 C 25.96875 33.601562 26.167969 36.515625 26.121094 39.222656 C 26.113281 39.613281 26.105469 40.007812 26.097656 40.402344 C 26.078125 41.359375 26.0625 42.316406 26.046875 43.273438 C 25.652344 43.40625 25.257812 43.535156 24.867188 43.667969 C 24.539062 43.78125 24.539062 43.78125 24.203125 43.890625 C 23.722656 44.046875 23.253906 44.183594 22.765625 44.296875 C 21.054688 41.667969 20.242188 39.050781 20.234375 35.925781 C 20.234375 35.71875 20.230469 35.511719 20.230469 35.296875 C 20.226562 34.855469 20.226562 34.417969 20.226562 33.980469 C 20.226562 33.320312 20.21875 32.660156 20.210938 32 C 20.1875 28.125 20.632812 24.546875 23.238281 21.480469 C 23.992188 20.59375 24.199219 20.027344 24.199219 18.867188 C 24.265625 18.867188 24.335938 18.867188 24.40625 18.867188 C 24.472656 19.207031 24.539062 19.542969 24.609375 19.890625 C 24.769531 19.769531 24.933594 19.648438 25.097656 19.523438 C 28.425781 17.085938 31.648438 16.527344 35.683594 16.609375 Z M 35.683594 16.609375 "/>
<path style=" stroke:none;fill-rule:nonzero;fill:rgb(88.235294%,49.019608%,27.843137%);fill-opacity:1;" d="M 69.726562 16.816406 C 73.46875 16.640625 76.410156 17.058594 79.570312 19.277344 C 79.851562 19.542969 80.125 19.816406 80.390625 20.097656 C 80.527344 19.828125 80.660156 19.554688 80.800781 19.277344 C 80.804688 19.480469 80.808594 19.683594 80.8125 19.890625 C 80.914062 20.597656 81.140625 20.914062 81.632812 21.417969 C 82.382812 22.203125 82.847656 23.042969 83.324219 24.007812 C 83.429688 24.214844 83.429688 24.214844 83.535156 24.425781 C 84.402344 26.210938 84.558594 27.71875 84.566406 29.695312 C 84.570312 29.953125 84.570312 30.207031 84.574219 30.46875 C 84.578125 31.003906 84.578125 31.542969 84.578125 32.082031 C 84.582031 32.894531 84.59375 33.707031 84.601562 34.519531 C 84.625 38.199219 84.40625 41.195312 82.234375 44.296875 C 82.027344 44.234375 82.027344 44.234375 81.816406 44.167969 C 81.542969 44.085938 81.542969 44.085938 81.261719 44.003906 C 81.082031 43.949219 80.902344 43.894531 80.714844 43.835938 C 80.265625 43.707031 79.816406 43.589844 79.367188 43.476562 C 79.363281 43.089844 79.363281 43.089844 79.359375 42.695312 C 79.351562 41.722656 79.335938 40.75 79.324219 39.777344 C 79.316406 39.359375 79.3125 38.941406 79.308594 38.523438 C 79.277344 33.871094 78.449219 30.460938 75.058594 27.070312 C 75.019531 26.695312 74.980469 26.324219 74.945312 25.949219 C 74.683594 23.023438 73.816406 20.644531 71.777344 18.457031 C 71.238281 18.019531 70.699219 17.636719 70.109375 17.269531 C 69.984375 17.1875 69.855469 17.105469 69.726562 17.023438 C 69.726562 16.953125 69.726562 16.886719 69.726562 16.816406 Z M 69.726562 16.816406 "/>
<path style=" stroke:none;fill-rule:nonzero;fill:rgb(16.862745%,30.196078%,40.392157%);fill-opacity:1;" d="M 44.191406 19.75 C 45.773438 20.820312 46.703125 22.101562 47.460938 23.851562 C 47.839844 26.332031 47.628906 28.328125 46.195312 30.402344 C 44.863281 32.046875 43.125 33.03125 41.019531 33.300781 C 38.890625 33.382812 37.109375 32.738281 35.480469 31.375 C 34.796875 30.695312 34.296875 29.964844 33.835938 29.121094 C 33.769531 28.996094 33.699219 28.871094 33.625 28.738281 C 32.945312 27.261719 32.9375 25.257812 33.453125 23.726562 C 34.347656 21.777344 35.664062 20.136719 37.617188 19.1875 C 39.832031 18.40625 42.164062 18.601562 44.191406 19.75 Z M 44.191406 19.75 "/>
<path style=" stroke:none;fill-rule:nonzero;fill:rgb(16.862745%,30.196078%,40.392157%);fill-opacity:1;" d="M 68.289062 19.6875 C 69.933594 20.867188 71.269531 22.375 71.703125 24.398438 C 71.988281 26.769531 71.710938 28.546875 70.304688 30.503906 C 68.925781 32.164062 67.207031 33.011719 65.085938 33.292969 C 63.09375 33.40625 61.230469 32.710938 59.691406 31.453125 C 58.117188 29.929688 57.398438 28.171875 57.359375 26.019531 C 57.351562 23.9375 58.011719 22.21875 59.472656 20.710938 C 60.054688 20.234375 60.660156 19.847656 61.320312 19.484375 C 61.441406 19.414062 61.5625 19.34375 61.6875 19.269531 C 63.613281 18.355469 66.511719 18.570312 68.289062 19.6875 Z M 68.289062 19.6875 "/>
<path style=" stroke:none;fill-rule:nonzero;fill:rgb(99.607843%,79.215686%,74.509804%);fill-opacity:1;" d="M 50.65625 28.09375 C 51.871094 28.09375 53.089844 28.09375 54.34375 28.09375 C 54.546875 28.636719 54.75 29.179688 54.960938 29.734375 C 55.746094 31.660156 56.992188 33 58.445312 34.453125 C 57.296875 34.453125 56.144531 34.453125 54.960938 34.453125 C 54.964844 35.132812 54.964844 35.132812 54.96875 35.828125 C 54.972656 37.332031 54.980469 38.835938 54.980469 40.335938 C 54.984375 41.246094 54.988281 42.15625 54.992188 43.066406 C 54.996094 43.945312 55 44.824219 55 45.703125 C 55 46.039062 55.003906 46.375 55.003906 46.710938 C 55.007812 47.179688 55.007812 47.648438 55.007812 48.121094 C 55.007812 48.386719 55.007812 48.652344 55.011719 48.929688 C 54.949219 49.8125 54.730469 50.394531 54.230469 51.117188 C 53.496094 51.644531 52.78125 51.722656 51.882812 51.679688 C 51.214844 51.386719 50.710938 51.011719 50.242188 50.449219 C 50.003906 49.734375 50.011719 49.09375 50.015625 48.351562 C 50.015625 48.203125 50.015625 48.050781 50.015625 47.898438 C 50.015625 47.402344 50.015625 46.90625 50.019531 46.410156 C 50.019531 46.066406 50.019531 45.722656 50.019531 45.378906 C 50.019531 44.472656 50.023438 43.566406 50.023438 42.660156 C 50.027344 41.738281 50.027344 40.8125 50.027344 39.890625 C 50.03125 38.078125 50.035156 36.265625 50.039062 34.453125 C 48.886719 34.453125 47.738281 34.453125 46.554688 34.453125 C 46.890625 34.113281 47.230469 33.777344 47.578125 33.429688 C 49.140625 31.828125 49.871094 30.183594 50.65625 28.09375 Z M 50.65625 28.09375 "/>
<path style=" stroke:none;fill-rule:nonzero;fill:rgb(88.235294%,48.627451%,27.45098%);fill-opacity:1;" d="M 74.851562 84.492188 C 74.25 86.402344 73.378906 87.460938 71.601562 88.398438 C 70.859375 88.726562 70.195312 88.824219 69.386719 88.832031 C 69.195312 88.832031 69.007812 88.835938 68.808594 88.839844 C 68.601562 88.839844 68.394531 88.839844 68.179688 88.839844 C 67.960938 88.84375 67.738281 88.84375 67.511719 88.847656 C 66.78125 88.855469 66.054688 88.859375 65.324219 88.863281 C 65.074219 88.863281 64.824219 88.863281 64.566406 88.867188 C 63.246094 88.871094 61.921875 88.878906 60.601562 88.882812 C 59.511719 88.886719 58.417969 88.894531 57.328125 88.902344 C 56.007812 88.914062 54.6875 88.921875 53.367188 88.921875 C 52.863281 88.925781 52.363281 88.929688 51.863281 88.933594 C 46.671875 88.996094 46.671875 88.996094 44.914062 87.570312 C 43.9375 86.578125 43.476562 85.875 43.273438 84.492188 C 47.269531 84.460938 51.265625 84.429688 55.261719 84.402344 C 57.117188 84.386719 58.972656 84.375 60.828125 84.359375 C 62.445312 84.347656 64.0625 84.335938 65.679688 84.324219 C 66.535156 84.316406 67.394531 84.3125 68.25 84.304688 C 69.054688 84.296875 69.863281 84.289062 70.667969 84.285156 C 70.964844 84.285156 71.257812 84.28125 71.554688 84.277344 C 71.960938 84.273438 72.363281 84.273438 72.765625 84.269531 C 72.992188 84.269531 73.21875 84.265625 73.453125 84.265625 C 73.957031 84.285156 74.371094 84.34375 74.851562 84.492188 Z M 74.851562 84.492188 "/>
<path style=" stroke:none;fill-rule:nonzero;fill:rgb(88.235294%,48.627451%,27.843137%);fill-opacity:1;" d="M 47.167969 91.257812 C 52.039062 91.257812 56.914062 91.257812 61.933594 91.257812 C 58.703125 97.71875 58.703125 97.71875 55.050781 99.386719 C 53.585938 99.546875 52.40625 98.636719 51.273438 97.792969 C 50 96.621094 49.160156 95.261719 48.320312 93.757812 C 48.210938 93.5625 48.097656 93.367188 47.984375 93.167969 C 47.167969 91.726562 47.167969 91.726562 47.167969 91.257812 Z M 47.167969 91.257812 "/>
<path style=" stroke:none;fill-rule:nonzero;fill:rgb(49.803922%,70.196078%,97.647059%);fill-opacity:1;" d="M 42.121094 21.453125 C 43.367188 22.007812 44.359375 23.0625 44.945312 24.289062 C 45.371094 25.601562 45.269531 26.90625 44.707031 28.160156 C 44.019531 29.382812 43.09375 30.058594 41.835938 30.632812 C 40.398438 30.933594 39.238281 30.816406 37.9375 30.148438 C 36.738281 29.316406 35.972656 28.316406 35.683594 26.867188 C 35.539062 25.464844 35.648438 24.324219 36.503906 23.171875 C 38.140625 21.472656 39.738281 20.839844 42.121094 21.453125 Z M 42.121094 21.453125 "/>
<path style=" stroke:none;fill-rule:nonzero;fill:rgb(49.803922%,70.196078%,98.039216%);fill-opacity:1;" d="M 66.738281 21.648438 C 68.03125 22.421875 68.867188 23.59375 69.316406 25.019531 C 69.472656 26.390625 69.191406 27.515625 68.496094 28.710938 C 67.558594 29.796875 66.429688 30.59375 64.992188 30.832031 C 63.660156 30.925781 62.617188 30.476562 61.523438 29.734375 C 60.5625 28.867188 59.976562 27.964844 59.800781 26.664062 C 59.75 24.992188 59.976562 23.824219 61.113281 22.558594 C 62.683594 21.144531 64.777344 20.789062 66.738281 21.648438 Z M 66.738281 21.648438 "/>
<path style=" stroke:none;fill-rule:nonzero;fill:rgb(18.039216%,30.588235%,39.607843%);fill-opacity:1;" d="M 74.851562 26.867188 C 76.6875 28.324219 77.949219 29.980469 78.75 32.195312 C 78.804688 32.335938 78.859375 32.472656 78.914062 32.613281 C 79.613281 34.671875 79.429688 36.859375 79.402344 39.003906 C 79.402344 39.417969 79.398438 39.832031 79.394531 40.246094 C 79.390625 41.253906 79.378906 42.261719 79.367188 43.273438 C 78.011719 43.273438 76.65625 43.273438 75.265625 43.273438 C 75.257812 42.6875 75.25 42.105469 75.242188 41.503906 C 75.230469 40.933594 75.21875 40.363281 75.210938 39.792969 C 75.203125 39.398438 75.199219 39.003906 75.191406 38.609375 C 75.1875 38.042969 75.175781 37.472656 75.164062 36.902344 C 75.164062 36.730469 75.160156 36.554688 75.160156 36.378906 C 75.125 34.882812 74.886719 33.363281 73.980469 32.132812 C 73.625 31.582031 73.625 31.582031 73.636719 31.082031 C 73.828125 30.554688 73.828125 30.554688 74.121094 29.914062 C 74.5625 28.945312 74.691406 27.910156 74.851562 26.867188 Z M 74.851562 26.867188 "/>
<path style=" stroke:none;fill-rule:nonzero;fill:rgb(17.647059%,30.196078%,40%);fill-opacity:1;" d="M 29.941406 24.40625 C 30.007812 24.40625 30.078125 24.40625 30.148438 24.40625 C 30.152344 24.660156 30.15625 24.914062 30.164062 25.175781 C 30.230469 27.351562 30.464844 29.101562 31.425781 31.078125 C 31.582031 31.582031 31.582031 31.582031 31.457031 31.996094 C 31.378906 32.128906 31.300781 32.257812 31.222656 32.390625 C 30.429688 33.75 30.285156 34.957031 30.265625 36.503906 C 30.261719 36.695312 30.257812 36.890625 30.253906 37.089844 C 30.242188 37.707031 30.234375 38.324219 30.222656 38.9375 C 30.214844 39.359375 30.207031 39.777344 30.199219 40.195312 C 30.179688 41.222656 30.164062 42.246094 30.148438 43.273438 C 28.792969 43.273438 27.4375 43.273438 26.046875 43.273438 C 26.035156 42.117188 26.027344 40.964844 26.023438 39.8125 C 26.019531 39.421875 26.015625 39.03125 26.015625 38.640625 C 25.964844 33.046875 25.964844 33.046875 27.199219 30.722656 C 27.269531 30.582031 27.339844 30.441406 27.414062 30.296875 C 27.855469 29.464844 28.324219 28.832031 29.003906 28.171875 C 29.949219 27.226562 29.933594 26.257812 29.953125 24.96875 C 29.949219 24.78125 29.945312 24.597656 29.941406 24.40625 Z M 29.941406 24.40625 "/>
<path style=" stroke:none;fill-rule:nonzero;fill:rgb(87.843137%,48.627451%,27.843137%);fill-opacity:1;" d="M 47.789062 16.769531 C 48.171875 16.769531 48.171875 16.769531 48.5625 16.769531 C 48.839844 16.773438 49.117188 16.773438 49.394531 16.777344 C 49.679688 16.777344 49.960938 16.777344 50.246094 16.777344 C 50.996094 16.78125 51.742188 16.785156 52.488281 16.789062 C 53.253906 16.792969 54.015625 16.792969 54.777344 16.796875 C 56.273438 16.800781 57.769531 16.808594 59.269531 16.816406 C 58.675781 17.414062 58.089844 17.972656 57.433594 18.496094 C 56.5 19.304688 55.945312 20.246094 55.371094 21.328125 C 55.253906 21.542969 55.132812 21.757812 55.011719 21.980469 C 54.683594 22.683594 54.683594 22.683594 54.347656 23.992188 C 53.128906 23.992188 51.910156 23.992188 50.65625 23.992188 C 50.539062 23.660156 50.425781 23.324219 50.308594 22.980469 C 49.441406 20.625 48.167969 18.507812 45.9375 17.226562 C 46.65625 16.746094 46.941406 16.765625 47.789062 16.769531 Z M 47.789062 16.769531 "/>
<path style=" stroke:none;fill-rule:nonzero;fill:rgb(91.764706%,67.45098%,61.568627%);fill-opacity:1;" d="M 48.160156 57.800781 C 48.46875 57.796875 48.46875 57.796875 48.78125 57.792969 C 49.007812 57.792969 49.230469 57.792969 49.460938 57.789062 C 49.6875 57.789062 49.917969 57.789062 50.152344 57.785156 C 50.640625 57.785156 51.125 57.785156 51.609375 57.78125 C 52.355469 57.78125 53.097656 57.773438 53.839844 57.769531 C 54.308594 57.765625 54.78125 57.765625 55.253906 57.765625 C 55.476562 57.761719 55.699219 57.757812 55.925781 57.757812 C 57.871094 57.761719 57.871094 57.761719 58.652344 58.445312 C 59.089844 59.105469 59.117188 59.230469 59.050781 59.972656 C 59.039062 60.128906 59.027344 60.285156 59.015625 60.445312 C 58.769531 61.15625 58.484375 61.339844 57.832031 61.726562 C 57.035156 61.851562 56.242188 61.84375 55.433594 61.835938 C 55.203125 61.839844 54.96875 61.839844 54.730469 61.839844 C 54.238281 61.839844 53.746094 61.839844 53.253906 61.835938 C 52.503906 61.832031 51.75 61.835938 51 61.839844 C 50.519531 61.839844 50.042969 61.839844 49.566406 61.835938 C 49.226562 61.839844 49.226562 61.839844 48.882812 61.84375 C 47.324219 61.824219 47.324219 61.824219 46.519531 61.335938 C 46.027344 60.773438 45.945312 60.574219 45.875 59.820312 C 45.949219 58.945312 46.148438 58.648438 46.757812 58.035156 C 47.261719 57.785156 47.59375 57.804688 48.160156 57.800781 Z M 48.160156 57.800781 "/>
<path style=" stroke:none;fill-rule:nonzero;fill:rgb(100%,79.607843%,74.509804%);fill-opacity:1;" d="M 76.085938 47.375 C 79.59375 47.375 79.59375 47.375 80.488281 48.070312 C 81.355469 48.980469 81.667969 49.878906 81.722656 51.128906 C 81.625 53.347656 80.632812 55.175781 79.160156 56.804688 C 78.179688 57.636719 77.316406 58.035156 76.085938 58.445312 C 76.085938 54.792969 76.085938 51.136719 76.085938 47.375 Z M 76.085938 47.375 "/>
<path style=" stroke:none;fill-rule:nonzero;fill:rgb(91.764706%,67.45098%,61.568627%);fill-opacity:1;" d="M 28.914062 47.375 C 28.914062 51.027344 28.914062 54.683594 28.914062 58.445312 C 26.578125 57.667969 25.113281 56.3125 23.992188 54.140625 C 23.464844 52.679688 22.957031 50.886719 23.558594 49.382812 C 24.832031 47.101562 26.265625 47.375 28.914062 47.375 Z M 28.914062 47.375 "/>
<path style=" stroke:none;fill-rule:nonzero;fill:rgb(17.647059%,30.588235%,40.392157%);fill-opacity:1;" d="M 46.347656 37.324219 C 46.925781 37.742188 47.3125 38.066406 47.464844 38.785156 C 47.503906 39.320312 47.503906 39.847656 47.496094 40.386719 C 47.496094 40.582031 47.496094 40.78125 47.496094 40.984375 C 47.492188 41.398438 47.488281 41.8125 47.484375 42.226562 C 47.476562 42.859375 47.476562 43.492188 47.476562 44.125 C 47.476562 44.527344 47.472656 44.933594 47.46875 45.335938 C 47.46875 45.523438 47.46875 45.710938 47.46875 45.90625 C 47.449219 46.898438 47.417969 47.601562 46.757812 48.398438 C 46.003906 48.902344 45.378906 48.957031 44.5 48.808594 C 43.894531 48.355469 43.714844 48.09375 43.476562 47.375 C 43.453125 47.078125 43.441406 46.785156 43.4375 46.492188 C 43.433594 46.3125 43.429688 46.136719 43.425781 45.953125 C 43.417969 45.144531 43.410156 44.335938 43.40625 43.527344 C 43.402344 43.101562 43.394531 42.675781 43.386719 42.25 C 43.375 41.632812 43.371094 41.019531 43.371094 40.402344 C 43.363281 40.210938 43.359375 40.023438 43.355469 39.824219 C 43.359375 38.882812 43.371094 38.484375 43.96875 37.722656 C 44.855469 37.058594 45.257812 37.066406 46.347656 37.324219 Z M 46.347656 37.324219 "/>
<path style=" stroke:none;fill-rule:nonzero;fill:rgb(17.647059%,30.588235%,40%);fill-opacity:1;" d="M 60.5 37.324219 C 61.078125 37.742188 61.460938 38.066406 61.617188 38.785156 C 61.652344 39.320312 61.65625 39.847656 61.644531 40.386719 C 61.644531 40.582031 61.644531 40.78125 61.644531 40.984375 C 61.644531 41.398438 61.640625 41.8125 61.632812 42.226562 C 61.625 42.859375 61.625 43.492188 61.628906 44.125 C 61.625 44.527344 61.621094 44.933594 61.621094 45.335938 C 61.621094 45.523438 61.621094 45.710938 61.621094 45.90625 C 61.601562 46.898438 61.566406 47.601562 60.90625 48.398438 C 60.15625 48.902344 59.527344 48.957031 58.652344 48.808594 C 58.042969 48.355469 57.867188 48.09375 57.625 47.375 C 57.605469 47.078125 57.59375 46.785156 57.585938 46.492188 C 57.585938 46.3125 57.582031 46.136719 57.578125 45.953125 C 57.566406 45.144531 57.558594 44.335938 57.554688 43.527344 C 57.550781 43.101562 57.546875 42.675781 57.539062 42.25 C 57.527344 41.632812 57.523438 41.019531 57.519531 40.402344 C 57.515625 40.210938 57.511719 40.023438 57.503906 39.824219 C 57.507812 38.882812 57.519531 38.484375 58.121094 37.722656 C 59.007812 37.058594 59.410156 37.066406 60.5 37.324219 Z M 60.5 37.324219 "/>
<path style=" stroke:none;fill-rule:nonzero;fill:rgb(37.647059%,62.745098%,96.078431%);fill-opacity:1;" d="M 40.347656 21.300781 C 40.589844 21.304688 40.828125 21.308594 41.078125 21.3125 C 41.351562 21.320312 41.351562 21.320312 41.632812 21.328125 C 41.300781 21.546875 40.96875 21.765625 40.632812 21.976562 C 39.441406 22.773438 38.804688 23.65625 38.351562 25.019531 C 38.128906 26.179688 38.414062 27.277344 38.964844 28.300781 C 39.605469 29.191406 40.25 30.015625 41.363281 30.273438 C 41.519531 30.300781 41.675781 30.324219 41.835938 30.351562 C 41.066406 30.863281 40.46875 30.863281 39.578125 30.761719 C 38.308594 30.457031 37.226562 29.859375 36.457031 28.765625 C 35.6875 27.476562 35.53125 26.292969 35.683594 24.8125 C 36.109375 23.304688 37.238281 22.328125 38.519531 21.496094 C 39.140625 21.261719 39.6875 21.289062 40.347656 21.300781 Z M 40.347656 21.300781 "/>
<path style=" stroke:none;fill-rule:nonzero;fill:rgb(37.647059%,62.745098%,96.078431%);fill-opacity:1;" d="M 65.828125 21.328125 C 65.441406 21.585938 65.042969 21.835938 64.636719 22.070312 C 63.679688 22.785156 62.929688 23.671875 62.546875 24.8125 C 62.355469 26.414062 62.511719 27.5625 63.425781 28.902344 C 64.152344 29.777344 64.910156 30.21875 66.035156 30.351562 C 65.191406 30.914062 64.5625 30.90625 63.574219 30.761719 C 62.179688 30.292969 61.082031 29.554688 60.292969 28.300781 C 59.648438 26.964844 59.601562 25.421875 60.085938 24.023438 C 61.367188 21.632812 63.253906 21.109375 65.828125 21.328125 Z M 65.828125 21.328125 "/>
<path style=" stroke:none;fill-rule:nonzero;fill:rgb(17.647059%,30.196078%,39.607843%);fill-opacity:1;" d="M 50.65625 23.992188 C 51.871094 23.992188 53.089844 23.992188 54.34375 23.992188 C 54.34375 25.347656 54.34375 26.703125 54.34375 28.09375 C 53.128906 28.09375 51.910156 28.09375 50.65625 28.09375 C 50.65625 26.742188 50.65625 25.390625 50.65625 23.992188 Z M 50.65625 23.992188 "/>
<path style=" stroke:none;fill-rule:nonzero;fill:rgb(96.862745%,84.313725%,79.215686%);fill-opacity:1;" d="M 51.015625 28.074219 C 51.171875 28.074219 51.324219 28.074219 51.480469 28.074219 C 51.648438 28.078125 51.8125 28.078125 51.984375 28.078125 C 52.160156 28.078125 52.332031 28.082031 52.511719 28.082031 C 52.6875 28.082031 52.863281 28.085938 53.042969 28.085938 C 53.476562 28.089844 53.910156 28.089844 54.347656 28.09375 C 54.652344 28.785156 54.757812 29.164062 54.757812 29.941406 C 53.265625 29.941406 51.777344 29.941406 50.246094 29.941406 C 50.472656 28.105469 50.472656 28.105469 51.015625 28.074219 Z M 51.015625 28.074219 "/>
</g>
</svg>
