<?xml version="1.0" encoding="UTF-8"?>
<svg xmlns="http://www.w3.org/2000/svg" xmlns:xlink="http://www.w3.org/1999/xlink" width="80px" height="80px" viewBox="0 0 80 80" version="1.1">
<g id="surface1">
<path style=" stroke:none;fill-rule:nonzero;fill:rgb(31.372549%,62.745098%,97.647059%);fill-opacity:1;" d="M 39.960938 51.113281 C 31.484375 51.113281 23.492188 50.117188 17.453125 48.304688 C 12.65625 46.867188 6.941406 44.226562 6.941406 39.8125 C 6.941406 38.710938 7.835938 37.8125 8.941406 37.8125 C 10.046875 37.8125 10.941406 38.710938 10.941406 39.8125 C 10.941406 40.953125 13.335938 42.894531 18.601562 44.472656 C 24.277344 46.175781 31.863281 47.113281 39.960938 47.113281 C 47.75 47.113281 55.128906 46.234375 60.742188 44.644531 C 61.800781 44.339844 62.910156 44.957031 63.210938 46.019531 C 63.511719 47.082031 62.894531 48.1875 61.832031 48.492188 C 55.875 50.183594 48.109375 51.113281 39.960938 51.113281 Z M 39.960938 51.113281 "/>
<path style=" stroke:none;fill-rule:nonzero;fill:rgb(0%,27.843137%,60%);fill-opacity:1;" d="M 62.53125 8.601562 C 56.46875 6.785156 48.457031 5.785156 39.960938 5.785156 C 31.464844 5.785156 23.449219 6.785156 17.390625 8.601562 C 12.527344 10.0625 6.730469 12.753906 6.730469 17.292969 C 6.730469 17.414062 6.738281 17.53125 6.746094 17.648438 C 6.710938 17.800781 6.695312 17.957031 6.695312 18.121094 L 6.695312 62.332031 C 6.695312 62.519531 6.71875 62.699219 6.761719 62.867188 C 7.195312 67.089844 12.722656 69.625 17.390625 71.027344 C 23.449219 72.84375 31.464844 73.84375 39.960938 73.84375 C 48.457031 73.84375 56.46875 72.84375 62.53125 71.027344 C 67.394531 69.566406 73.191406 66.875 73.191406 62.335938 L 73.191406 17.292969 C 73.191406 12.753906 67.394531 10.0625 62.53125 8.601562 Z M 61.261719 66.792969 C 55.601562 68.488281 48.039062 69.421875 39.960938 69.421875 C 31.882812 69.421875 24.320312 68.488281 18.660156 66.792969 C 13.152344 65.140625 11.152344 63.222656 11.152344 62.335938 C 11.152344 62.199219 11.136719 62.066406 11.113281 61.9375 L 11.113281 23.359375 C 13.019531 24.496094 15.292969 25.355469 17.390625 25.988281 C 23.449219 27.804688 31.464844 28.804688 39.960938 28.804688 C 47.828125 28.804688 55.40625 27.929688 61.289062 26.339844 C 62.46875 26.023438 63.164062 24.808594 62.847656 23.628906 C 62.527344 22.453125 61.316406 21.753906 60.136719 22.074219 C 54.617188 23.5625 47.453125 24.382812 39.960938 24.382812 C 31.882812 24.382812 24.320312 23.449219 18.660156 21.753906 C 13.152344 20.101562 11.152344 18.183594 11.152344 17.292969 C 11.152344 16.40625 13.152344 14.488281 18.660156 12.835938 C 24.320312 11.140625 31.882812 10.207031 39.960938 10.207031 C 48.039062 10.207031 55.601562 11.140625 61.261719 12.835938 C 66.769531 14.488281 68.769531 16.40625 68.769531 17.292969 L 68.769531 62.335938 C 68.769531 63.222656 66.769531 65.140625 61.261719 66.792969 Z M 61.261719 66.792969 "/>
<path style=" stroke:none;fill-rule:nonzero;fill:rgb(97.647059%,71.764706%,9.803922%);fill-opacity:1;" d="M 62.535156 36.25 C 62.535156 37.769531 61.304688 38.996094 59.789062 38.996094 C 58.273438 38.996094 57.042969 37.769531 57.042969 36.25 C 57.042969 34.734375 58.273438 33.503906 59.789062 33.503906 C 61.304688 33.503906 62.535156 34.734375 62.535156 36.25 Z M 62.535156 36.25 "/>
<path style=" stroke:none;fill-rule:nonzero;fill:rgb(97.647059%,71.764706%,9.803922%);fill-opacity:1;" d="M 62.535156 57.753906 C 62.535156 59.269531 61.304688 60.5 59.789062 60.5 C 58.273438 60.5 57.042969 59.269531 57.042969 57.753906 C 57.042969 56.238281 58.273438 55.007812 59.789062 55.007812 C 61.304688 55.007812 62.535156 56.238281 62.535156 57.753906 Z M 62.535156 57.753906 "/>
</g>
</svg>
