<?xml version="1.0" encoding="UTF-8"?>
<svg xmlns="http://www.w3.org/2000/svg" xmlns:xlink="http://www.w3.org/1999/xlink" width="80px" height="80px" viewBox="0 0 80 80" version="1.1">
<defs>
<linearGradient id="linear0" gradientUnits="userSpaceOnUse" x1="-30" y1="437" x2="456" y2="437" gradientTransform="matrix(0.15625,0,0,0.15625,7.65625,-22.03125)">
<stop offset="0" style="stop-color:rgb(78.039216%,6.666667%,97.254902%);stop-opacity:1;"/>
<stop offset="0.35" style="stop-color:rgb(100%,29.803922%,49.019608%);stop-opacity:1;"/>
<stop offset="0.655" style="stop-color:rgb(90.980392%,26.27451%,43.921569%);stop-opacity:1;"/>
<stop offset="1" style="stop-color:rgb(99.607843%,25.098039%,45.490196%);stop-opacity:1;"/>
</linearGradient>
<linearGradient id="linear1" gradientUnits="userSpaceOnUse" x1="-30" y1="445.1" x2="456" y2="445.1" gradientTransform="matrix(0.15625,0,0,0.15625,7.65625,-22.03125)">
<stop offset="0" style="stop-color:rgb(78.039216%,6.666667%,97.254902%);stop-opacity:1;"/>
<stop offset="0.35" style="stop-color:rgb(100%,29.803922%,49.019608%);stop-opacity:1;"/>
<stop offset="0.655" style="stop-color:rgb(90.980392%,26.27451%,43.921569%);stop-opacity:1;"/>
<stop offset="1" style="stop-color:rgb(99.607843%,25.098039%,45.490196%);stop-opacity:1;"/>
</linearGradient>
<linearGradient id="linear2" gradientUnits="userSpaceOnUse" x1="-30" y1="446.4" x2="456" y2="446.4" gradientTransform="matrix(0.15625,0,0,0.15625,7.65625,-22.03125)">
<stop offset="0" style="stop-color:rgb(78.039216%,6.666667%,97.254902%);stop-opacity:1;"/>
<stop offset="0.35" style="stop-color:rgb(100%,29.803922%,49.019608%);stop-opacity:1;"/>
<stop offset="0.655" style="stop-color:rgb(90.980392%,26.27451%,43.921569%);stop-opacity:1;"/>
<stop offset="1" style="stop-color:rgb(99.607843%,25.098039%,45.490196%);stop-opacity:1;"/>
</linearGradient>
<linearGradient id="linear3" gradientUnits="userSpaceOnUse" x1="-30" y1="444.651" x2="456" y2="444.651" gradientTransform="matrix(0.15625,0,0,0.15625,7.65625,-22.03125)">
<stop offset="0" style="stop-color:rgb(78.039216%,6.666667%,97.254902%);stop-opacity:1;"/>
<stop offset="0.35" style="stop-color:rgb(100%,29.803922%,49.019608%);stop-opacity:1;"/>
<stop offset="0.655" style="stop-color:rgb(90.980392%,26.27451%,43.921569%);stop-opacity:1;"/>
<stop offset="1" style="stop-color:rgb(99.607843%,25.098039%,45.490196%);stop-opacity:1;"/>
</linearGradient>
</defs>
<g id="surface1">
<path style=" stroke:none;fill-rule:nonzero;fill:url(#linear0);" d="M 71.21875 12.5 L 9.09375 12.5 C 4.078125 12.5 0 16.5 0 21.40625 L 0 70.78125 C 0 75.78125 4.171875 80 9.09375 80 L 71.21875 80 C 76.0625 80 80 75.859375 80 70.78125 L 80 21.40625 C 80 16.40625 76.140625 12.5 71.21875 12.5 Z M 73.75 70.78125 C 73.75 72.421875 72.609375 73.75 71.21875 73.75 L 9.09375 73.75 C 7.609375 73.75 6.25 72.328125 6.25 70.78125 L 6.25 21.40625 C 6.25 19.9375 7.53125 18.75 9.09375 18.75 L 71.21875 18.75 C 72.703125 18.75 73.75 19.84375 73.75 21.40625 Z M 73.75 70.78125 "/>
<path style=" stroke:none;fill-rule:nonzero;fill:url(#linear1);" d="M 27.5625 41.625 C 28.140625 41.234375 28.578125 40.9375 28.890625 40.71875 C 29.578125 40.25 30.71875 39.453125 30.71875 37.796875 C 30.71875 36.078125 29.3125 34.671875 27.59375 34.671875 C 26.8125 34.671875 26.109375 34.953125 25.5625 35.421875 C 24.734375 36.03125 19.640625 39.40625 12.734375 43.953125 C 11.8125 44.5625 11.234375 45.5625 11.203125 46.65625 C 11.15625 47.75 11.65625 48.796875 12.53125 49.484375 L 25.6875 59.703125 C 26.25 60.140625 26.9375 60.359375 27.609375 60.359375 C 28.546875 60.359375 29.46875 59.9375 30.078125 59.15625 C 31.140625 57.796875 30.890625 55.828125 29.53125 54.765625 L 19.515625 46.984375 C 20.75 46.171875 22.171875 45.234375 23.53125 44.328125 C 25.234375 43.203125 26.59375 42.28125 27.5625 41.625 Z M 25.4375 35.546875 C 25.34375 35.640625 25.25 35.734375 25.171875 35.828125 C 25.25 35.71875 25.34375 35.625 25.4375 35.546875 Z M 25.4375 35.546875 "/>
<path style=" stroke:none;fill-rule:nonzero;fill:url(#linear2);" d="M 67.3125 44.15625 C 60.390625 39.609375 55.3125 36.21875 54.484375 35.625 C 53.9375 35.15625 53.234375 34.875 52.453125 34.875 C 50.734375 34.875 49.328125 36.28125 49.328125 38 C 49.328125 39.65625 50.46875 40.453125 51.15625 40.921875 C 51.46875 41.140625 51.90625 41.4375 52.484375 41.828125 C 53.453125 42.484375 54.828125 43.390625 56.546875 44.53125 C 57.90625 45.4375 59.3125 46.375 60.5625 47.1875 L 50.546875 54.96875 C 49.1875 56.03125 48.9375 57.984375 50 59.359375 C 50.609375 60.15625 51.53125 60.5625 52.46875 60.5625 C 53.140625 60.5625 53.8125 60.34375 54.390625 59.90625 L 67.546875 49.6875 C 68.421875 49 68.921875 47.953125 68.875 46.859375 C 68.796875 45.765625 68.21875 44.75 67.3125 44.15625 Z M 54.59375 35.71875 C 54.6875 35.796875 54.765625 35.90625 54.859375 36 C 54.78125 35.90625 54.6875 35.8125 54.59375 35.71875 Z M 54.59375 35.71875 "/>
<path style=" stroke:none;fill-rule:nonzero;fill:url(#linear3);" d="M 44.5625 29.78125 C 42.890625 29.328125 41.1875 30.328125 40.734375 31.984375 L 32.890625 61.28125 C 32.4375 62.953125 33.4375 64.65625 35.09375 65.109375 C 35.359375 65.1875 35.640625 65.21875 35.90625 65.21875 C 37.28125 65.21875 38.546875 64.296875 38.921875 62.90625 L 46.765625 33.609375 C 47.21875 31.9375 46.234375 30.21875 44.5625 29.78125 Z M 44.5625 29.78125 "/>
</g>
</svg>
