<?xml version="1.0" encoding="UTF-8"?>
<svg xmlns="http://www.w3.org/2000/svg" xmlns:xlink="http://www.w3.org/1999/xlink" width="80px" height="80px" viewBox="0 0 80 80" version="1.1">
<g id="surface1">
<path style=" stroke:none;fill-rule:nonzero;fill:rgb(100%,89.803922%,46.666667%);fill-opacity:1;" d="M 69.675781 8.335938 C 77.847656 17.132812 78.597656 61.867188 63.085938 70.308594 C 47.574219 78.75 3.75 79.113281 3.363281 54.144531 C 2.972656 29.175781 0.453125 7.617188 23.722656 5.640625 C 46.992188 3.664062 61.339844 -0.648438 69.675781 8.335938 Z M 69.675781 8.335938 "/>
<path style=" stroke:none;fill-rule:nonzero;fill:rgb(0%,0%,0%);fill-opacity:1;" d="M 72.855469 74.285156 L 7.144531 74.285156 C 6.355469 74.285156 5.714844 73.644531 5.714844 72.855469 L 5.714844 7.144531 C 5.714844 6.355469 6.355469 5.714844 7.144531 5.714844 L 72.855469 5.714844 C 73.644531 5.714844 74.285156 6.355469 74.285156 7.144531 L 74.285156 72.855469 C 74.285156 73.644531 73.644531 74.285156 72.855469 74.285156 Z M 8.570312 71.429688 L 71.429688 71.429688 L 71.429688 8.570312 L 8.570312 8.570312 Z M 33.675781 69.222656 C 31.324219 69.222656 29.148438 68.660156 27.308594 67.558594 C 25.578125 66.519531 24.132812 64.878906 23.132812 62.804688 C 22.8125 62.144531 23.042969 61.347656 23.667969 60.960938 L 28.664062 57.882812 C 28.890625 57.746094 29.148438 57.671875 29.414062 57.671875 C 30.269531 57.671875 30.648438 58.320312 30.875 58.707031 C 31.550781 59.84375 31.929688 60.324219 32.65625 60.691406 C 32.671875 60.65625 33.058594 60.785156 33.539062 60.785156 C 34.089844 60.785156 34.746094 60.648438 35.035156 60.046875 C 35.328125 59.421875 35.304688 57.003906 35.285156 55.234375 L 35.269531 53.238281 L 35.296875 37.347656 C 35.296875 36.558594 35.9375 35.917969 36.726562 35.917969 L 42.878906 35.917969 C 43.277344 35.917969 43.652344 36.082031 43.925781 36.375 C 44.195312 36.664062 44.335938 37.054688 44.304688 37.449219 L 44.304688 43.164062 C 44.3125 46.925781 44.316406 50.675781 44.296875 54.425781 L 44.3125 55.898438 C 44.363281 58.914062 44.410156 61.761719 43.035156 64.265625 C 41.988281 66.398438 39.914062 68.039062 37.21875 68.8125 C 36.007812 69.089844 34.824219 69.222656 33.675781 69.222656 Z M 26.332031 62.679688 C 27.007812 63.71875 27.839844 64.546875 28.773438 65.113281 C 30.847656 66.347656 33.664062 66.691406 36.507812 66.050781 C 37.777344 65.683594 39.578125 64.824219 40.496094 62.953125 C 41.539062 61.050781 41.5 58.6875 41.453125 55.949219 L 41.4375 54.425781 C 41.460938 50.671875 41.453125 46.925781 41.441406 43.171875 L 41.4375 38.777344 L 38.144531 38.777344 L 38.121094 53.242188 L 38.136719 55.207031 C 38.171875 58.542969 38.160156 60.328125 37.550781 61.382812 C 36.46875 63.652344 33.769531 64.023438 31.601562 63.347656 C 30.261719 62.695312 29.53125 61.90625 28.960938 61.058594 Z M 29.410156 59.25 L 28.304688 59.976562 Z M 29.476562 59.207031 L 29.496094 59.195312 Z M 57.296875 68.933594 C 53.453125 68.933594 49.617188 67.597656 47.316406 65.273438 L 46.710938 64.585938 C 45.984375 63.769531 45.355469 63.0625 44.804688 61.804688 C 44.511719 61.132812 44.769531 60.355469 45.402344 59.992188 L 50.414062 57.113281 C 51.074219 56.738281 51.902344 56.9375 52.320312 57.566406 C 53.597656 59.5 54.546875 60.238281 56.242188 60.613281 C 57.6875 60.785156 59.089844 60.507812 59.664062 59.882812 C 59.773438 59.761719 60.101562 59.410156 59.925781 58.484375 C 59.664062 57.644531 57.796875 56.859375 55.996094 56.101562 C 54.25 55.367188 52.269531 54.535156 50.558594 53.257812 C 48.445312 51.835938 46.988281 49.351562 46.625 46.488281 C 46.265625 43.644531 47.050781 40.890625 48.789062 38.925781 C 49.976562 37.457031 51.960938 36.277344 54.203125 35.730469 L 56.292969 35.460938 C 60.375 35.355469 63.199219 36.410156 65.292969 38.757812 C 65.867188 39.3125 66.316406 39.953125 67.039062 41.074219 C 67.242188 41.394531 67.3125 41.789062 67.230469 42.160156 C 67.144531 42.53125 66.914062 42.855469 66.589844 43.058594 C 64.625 44.28125 64.625 44.28125 61.808594 46.121094 C 61.460938 46.347656 61.035156 46.410156 60.636719 46.296875 C 60.238281 46.183594 59.910156 45.90625 59.734375 45.53125 C 59.324219 44.664062 58.6875 44.054688 57.933594 43.824219 C 57.304688 43.632812 56.554688 43.691406 56.078125 43.964844 C 55.730469 44.164062 55.636719 44.417969 55.597656 44.589844 C 55.535156 44.8125 55.480469 44.984375 55.710938 45.8125 C 55.949219 46.324219 57.300781 46.902344 58.601562 47.464844 C 59.023438 47.644531 59.445312 47.828125 59.859375 48.023438 C 65.457031 50.292969 68.261719 53.058594 68.886719 56.957031 C 68.917969 57.144531 68.910156 57.328125 68.867188 57.503906 C 69.113281 59.621094 68.761719 61.164062 68.511719 61.9375 C 67.566406 65.171875 64.929688 67.496094 61.101562 68.46875 C 59.867188 68.785156 58.578125 68.933594 57.296875 68.933594 Z M 48.058594 61.761719 C 48.28125 62.054688 48.535156 62.335938 48.84375 62.6875 L 49.414062 63.339844 C 51.707031 65.652344 56.457031 66.707031 60.394531 65.707031 C 62.023438 65.292969 64.886719 64.148438 65.769531 61.121094 C 65.949219 60.570312 66.28125 59.214844 65.9375 57.25 C 65.910156 57.09375 65.910156 56.941406 65.933594 56.789062 C 65.460938 54.925781 64.015625 52.796875 58.714844 50.644531 C 58.257812 50.433594 57.859375 50.261719 57.46875 50.09375 C 55.65625 49.3125 53.78125 48.503906 53.023438 46.769531 C 52.675781 45.578125 52.558594 44.769531 52.835938 43.855469 C 53.058594 42.898438 53.691406 42.046875 54.644531 41.496094 C 55.808594 40.816406 57.347656 40.664062 58.761719 41.089844 C 59.816406 41.417969 60.738281 42.054688 61.453125 42.9375 C 62.601562 42.1875 63.101562 41.867188 63.816406 41.417969 C 63.601562 41.128906 63.421875 40.925781 63.222656 40.730469 C 61.621094 38.941406 59.644531 38.226562 56.496094 38.308594 L 54.714844 38.539062 C 53.253906 38.90625 51.792969 39.75 50.960938 40.773438 C 49.730469 42.167969 49.195312 44.105469 49.453125 46.132812 C 49.710938 48.148438 50.742188 49.941406 52.207031 50.933594 C 53.695312 52.039062 55.425781 52.769531 57.101562 53.472656 C 59.675781 54.558594 62.109375 55.582031 62.695312 57.789062 C 62.699219 57.8125 62.707031 57.839844 62.710938 57.867188 C 63.117188 59.847656 62.417969 61.113281 61.761719 61.824219 C 60.523438 63.164062 58.332031 63.75 55.753906 63.429688 C 53.359375 62.90625 51.921875 61.785156 50.710938 60.238281 Z M 48.058594 61.761719 "/>
</g>
</svg>
