<?xml version="1.0" encoding="UTF-8"?>
<svg xmlns="http://www.w3.org/2000/svg" xmlns:xlink="http://www.w3.org/1999/xlink" width="560px" height="454px" viewBox="0 0 454 454" version="1.1">
<defs>
<filter id="alpha" filterUnits="objectBoundingBox" x="0%" y="0%" width="100%" height="100%">
  <feColorMatrix type="matrix" in="SourceGraphic" values="0 0 0 0 1 0 0 0 0 1 0 0 0 0 1 0 0 0 1 0"/>
</filter>
<mask id="mask0">
  <g filter="url(#alpha)">
<rect x="0" y="0" width="454" height="454" style="fill:rgb(0%,0%,0%);fill-opacity:0.8;stroke:none;"/>
  </g>
</mask>
<clipPath id="clip1">
  <rect x="0" y="0" width="454" height="454"/>
</clipPath>
<g id="surface5" clip-path="url(#clip1)">
<path style=" stroke:none;fill-rule:nonzero;fill:rgb(17.254902%,37.254902%,44.705882%);fill-opacity:1;" d="M 319.730469 130.308594 L 129.667969 130.59375 L 129.632812 128.089844 L 319.703125 127.804688 Z M 319.730469 130.308594 "/>
</g>
<mask id="mask1">
  <g filter="url(#alpha)">
<rect x="0" y="0" width="454" height="454" style="fill:rgb(0%,0%,0%);fill-opacity:0.321569;stroke:none;"/>
  </g>
</mask>
<linearGradient id="linear0" gradientUnits="userSpaceOnUse" x1="279.65" y1="600" x2="920.35" y2="600" gradientTransform="matrix(0.378333,0,0,0.378333,0,0)">
<stop offset="0" style="stop-color:rgb(99.607843%,94.509804%,93.72549%);stop-opacity:1;"/>
<stop offset="1" style="stop-color:rgb(99.607843%,67.843137%,61.176471%);stop-opacity:1;"/>
</linearGradient>
<clipPath id="clip2">
  <rect x="0" y="0" width="454" height="454"/>
</clipPath>
<g id="surface8" clip-path="url(#clip2)">
<path style=" stroke:none;fill-rule:nonzero;fill:url(#linear0);" d="M 348.191406 323.5 L 348.15625 322.582031 L 347.921875 322.582031 L 327.949219 251.65625 L 327.726562 251.65625 L 327.726562 251.332031 L 325.875 126.480469 C 325.742188 122.953125 322.667969 120.105469 319.011719 120.113281 L 130.148438 120.382812 C 126.484375 120.382812 123.476562 123.246094 123.425781 126.777344 L 124.523438 252.003906 L 124.347656 252.003906 L 106.0625 323.058594 L 106.023438 323.238281 L 105.890625 323.757812 L 105.863281 323.863281 L 105.863281 323.976562 C 105.863281 324.035156 105.863281 324.089844 105.863281 324.144531 C 105.585938 326.300781 106.46875 328.957031 108.175781 331.011719 C 109.691406 332.847656 111.636719 333.902344 113.472656 333.894531 L 340.878906 333.441406 L 341.140625 333.441406 C 342.714844 333.304688 344.179688 332.570312 345.230469 331.386719 C 347.183594 329.230469 348.246094 326.410156 348.191406 323.5 Z M 348.191406 323.5 "/>
</g>
</defs>
<g id="surface1">
<path style=" stroke:none;fill-rule:nonzero;fill:rgb(92.156863%,91.372549%,94.117647%);fill-opacity:1;" d="M 388.582031 349.667969 C 360.964844 369.1875 325.023438 362.449219 293.214844 364.273438 C 270.375 365.664062 248.101562 371.570312 225.738281 376.425781 C 216.332031 378.964844 206.75 380.824219 197.074219 381.988281 C 162.902344 386.003906 128.59375 380.097656 103.1875 355.503906 C 101.167969 353.554688 99.214844 351.488281 97.324219 349.304688 C 79.238281 332.582031 58.496094 323.34375 48.777344 298.773438 C 40.15625 276.976562 45.375 248.570312 65.199219 236.078125 C 67.117188 234.898438 69.097656 233.816406 71.125 232.835938 C 78.066406 229.40625 85.378906 226.480469 89.742188 220.25 C 102.25 200.367188 78.128906 164.417969 81.167969 138.53125 C 79.828125 94.582031 95.339844 75.027344 149.027344 71.175781 C 202.71875 67.324219 237.378906 99.527344 249.566406 106.644531 C 276.28125 122.238281 311.039062 105.628906 340.878906 113.742188 C 367.425781 120.953125 386.085938 149.890625 381.699219 177.058594 C 378.601562 196.230469 365.679688 214.136719 365.148438 232.855469 C 365.054688 235.785156 365.296875 238.714844 365.867188 241.589844 C 377.578125 281.679688 441.417969 302.246094 388.582031 349.667969 Z M 388.582031 349.667969 "/>
<path style=" stroke:none;fill-rule:nonzero;fill:rgb(0.392157%,5.098039%,0%);fill-opacity:1;" d="M 319 120.105469 L 130.148438 120.382812 C 126.484375 120.382812 123.476562 123.246094 123.425781 126.777344 L 124.53125 252.964844 L 327.730469 252.585938 L 325.839844 126.457031 C 325.746094 122.957031 322.65625 120.097656 319 120.105469 Z M 319 120.105469 "/>
<path style=" stroke:none;fill-rule:nonzero;fill:rgb(93.72549%,18.039216%,38.039216%);fill-opacity:1;" d="M 184.394531 199.507812 C 182.628906 199.816406 180.832031 199.910156 178.96875 200.160156 L 173.296875 183.535156 L 173.296875 200.871094 C 171.527344 201.058594 169.917969 201.308594 168.242188 201.558594 L 168.242188 169.777344 L 172.957031 169.777344 L 179.410156 187.800781 L 179.410156 169.792969 L 184.398438 169.792969 L 184.398438 199.507812 Z M 194.167969 181.425781 C 196.089844 181.425781 199.039062 181.332031 200.804688 181.332031 L 200.804688 186.296875 C 198.601562 186.296875 196.03125 186.296875 194.167969 186.386719 L 194.167969 193.769531 C 197.085938 193.585938 200 193.335938 202.945312 193.242188 L 202.945312 198.019531 L 189.203125 199.105469 L 189.203125 169.792969 L 202.945312 169.792969 L 202.945312 174.757812 L 194.167969 174.757812 Z M 221.410156 174.757812 L 216.25 174.757812 L 216.25 197.585938 C 214.578125 197.585938 212.902344 197.585938 211.292969 197.648438 L 211.292969 174.757812 L 206.140625 174.757812 L 206.140625 169.792969 L 221.402344 169.792969 Z M 229.472656 181.085938 L 236.285156 181.085938 L 236.285156 186.046875 L 229.472656 186.046875 L 229.472656 197.304688 L 224.59375 197.304688 L 224.59375 169.792969 L 238.460938 169.792969 L 238.460938 174.757812 L 229.464844 174.757812 Z M 246.527344 192.949219 C 249.347656 193.011719 252.199219 193.226562 254.960938 193.382812 L 254.960938 198.300781 C 250.523438 198.019531 246.089844 197.738281 241.5625 197.648438 L 241.5625 169.792969 L 246.527344 169.792969 Z M 259.160156 198.625 C 260.738281 198.71875 262.410156 198.808594 264.027344 199.003906 L 264.027344 169.792969 L 259.160156 169.792969 Z M 285.769531 169.777344 L 279.476562 184.882812 L 285.769531 201.53125 C 283.910156 201.28125 282.046875 200.941406 280.1875 200.628906 L 276.617188 191.449219 L 272.988281 199.886719 C 271.191406 199.574219 269.457031 199.480469 267.65625 199.234375 L 274.046875 184.6875 L 268.277344 169.765625 L 273.609375 169.765625 L 276.867188 178.113281 L 280.34375 169.792969 Z M 285.769531 169.777344 "/>
<path style=" stroke:none;fill-rule:nonzero;fill:rgb(41.568627%,45.490196%,49.803922%);fill-opacity:1;" d="M 327.765625 252.601562 L 124.5625 252.964844 L 124.609375 249.324219 L 327.628906 248.960938 Z M 327.765625 252.601562 "/>
<path style=" stroke:none;fill-rule:nonzero;fill:rgb(0.392157%,5.098039%,0%);fill-opacity:1;" d="M 147.683594 252.347656 L 304.644531 252.066406 C 304.90625 252.0625 305.15625 251.953125 305.332031 251.765625 C 305.511719 251.574219 305.601562 251.320312 305.585938 251.058594 L 305.527344 249.066406 C 305.511719 248.519531 305.070312 248.074219 304.519531 248.0625 L 147.710938 248.339844 C 147.164062 248.355469 146.730469 248.804688 146.734375 249.351562 L 146.734375 251.34375 C 146.71875 251.882812 147.144531 252.332031 147.683594 252.347656 Z M 147.683594 252.347656 "/>
<path style=" stroke:none;fill-rule:nonzero;fill:rgb(13.72549%,12.156863%,12.54902%);fill-opacity:1;" d="M 322.566406 247.65625 L 129.644531 248 L 128.050781 126.527344 L 321.246094 126.238281 Z M 131.226562 246.398438 L 320.949219 246.058594 L 319.660156 127.84375 L 129.671875 128.121094 Z M 131.226562 246.398438 "/>
<path style=" stroke:none;fill-rule:nonzero;fill:rgb(89.019608%,89.411765%,89.803922%);fill-opacity:1;" d="M 340.851562 332.496094 L 113.472656 332.953125 C 109.730469 332.953125 106.140625 327.726562 106.851562 324.003906 L 347.269531 323.527344 C 347.410156 327.453125 344.585938 332.488281 340.851562 332.496094 Z M 340.851562 332.496094 "/>
<path style=" stroke:none;fill-rule:nonzero;fill:rgb(57.254902%,60%,63.921569%);fill-opacity:1;" d="M 347.921875 322.582031 L 327.949219 251.65625 L 125.078125 252.035156 L 124.351562 252.035156 L 106.0625 323.058594 L 106.023438 323.238281 L 105.890625 323.757812 L 105.863281 323.863281 L 105.863281 323.976562 C 105.863281 324.035156 105.863281 324.089844 105.863281 324.144531 C 105.585938 326.300781 106.46875 328.957031 108.175781 331.011719 C 109.691406 332.847656 111.636719 333.902344 113.472656 333.894531 L 340.878906 333.441406 L 341.140625 333.441406 C 342.714844 333.304688 344.179688 332.570312 345.230469 331.386719 C 347.191406 329.234375 348.253906 326.414062 348.207031 323.503906 L 348.171875 322.585938 Z M 125.839844 253.910156 L 326.539062 253.53125 L 345.980469 322.570312 L 346.28125 323.632812 C 346.269531 323.742188 346.222656 323.839844 346.144531 323.917969 C 345.8125 324.199219 345.414062 324.386719 344.988281 324.460938 C 343.339844 324.894531 340.628906 324.898438 339.425781 324.902344 L 114.636719 325.367188 C 113.429688 325.367188 110.710938 325.367188 109.054688 324.945312 C 108.625 324.871094 108.222656 324.683594 107.886719 324.40625 C 107.804688 324.332031 107.75 324.230469 107.738281 324.121094 L 108.015625 323.058594 Z M 343.84375 330.0625 C 343.199219 330.742188 342.15625 331.550781 340.839844 331.550781 L 113.441406 332.007812 C 112.171875 332.007812 110.792969 331.203125 109.613281 329.808594 C 108.820312 328.859375 108.234375 327.75 107.90625 326.554688 C 109.417969 327.125 111.6875 327.261719 114.660156 327.253906 L 339.433594 326.808594 C 340.433594 326.808594 341.355469 326.808594 342.191406 326.742188 C 343.472656 326.714844 344.746094 326.515625 345.972656 326.152344 C 345.589844 327.609375 344.859375 328.949219 343.84375 330.0625 Z M 343.84375 330.0625 "/>
<path style=" stroke:none;fill-rule:nonzero;fill:rgb(76.470588%,78.039216%,78.823529%);fill-opacity:1;" d="M 346.265625 323.648438 C 346.253906 323.757812 346.207031 323.855469 346.128906 323.933594 C 345.796875 324.210938 345.398438 324.398438 344.972656 324.476562 C 343.324219 324.910156 340.613281 324.914062 339.410156 324.917969 L 114.636719 325.367188 C 113.429688 325.367188 110.710938 325.367188 109.054688 324.945312 C 108.625 324.871094 108.222656 324.683594 107.886719 324.40625 C 107.804688 324.332031 107.75 324.230469 107.738281 324.121094 L 108.015625 323.058594 L 125.820312 253.914062 L 326.515625 253.535156 L 345.960938 322.574219 Z M 346.265625 323.648438 "/>
<path style=" stroke:none;fill-rule:nonzero;fill:rgb(0.784314%,12.156863%,14.901961%);fill-opacity:1;" d="M 141.691406 292.90625 L 311.609375 292.585938 C 312.023438 292.574219 312.414062 292.386719 312.675781 292.066406 C 312.9375 291.75 313.046875 291.332031 312.976562 290.921875 L 307.761719 263.035156 C 307.65625 262.417969 307.121094 261.964844 306.492188 261.960938 L 146.078125 262.253906 C 145.453125 262.253906 144.921875 262.710938 144.828125 263.332031 L 140.289062 291.25 C 140.230469 291.660156 140.347656 292.074219 140.617188 292.390625 C 140.882812 292.707031 141.273438 292.894531 141.691406 292.90625 Z M 141.691406 292.90625 "/>
<path style=" stroke:none;fill-rule:nonzero;fill:rgb(94.509804%,96.078431%,97.647059%);fill-opacity:1;" d="M 144.214844 266.519531 L 309.152344 266.222656 "/>
<path style=" stroke:none;fill-rule:nonzero;fill:rgb(94.509804%,96.078431%,97.647059%);fill-opacity:1;" d="M 143 271.367188 L 309.484375 271.0625 "/>
<path style=" stroke:none;fill-rule:nonzero;fill:rgb(94.509804%,96.078431%,97.647059%);fill-opacity:1;" d="M 142.613281 275.886719 L 310.398438 275.578125 "/>
<path style=" stroke:none;fill-rule:nonzero;fill:rgb(94.509804%,96.078431%,97.647059%);fill-opacity:1;" d="M 141.101562 281.398438 L 311.261719 281.078125 "/>
<path style=" stroke:none;fill-rule:nonzero;fill:rgb(94.509804%,96.078431%,97.647059%);fill-opacity:1;" d="M 140.328125 286.574219 L 312.101562 286.25 "/>
<path style=" stroke:none;fill-rule:nonzero;fill:rgb(94.509804%,96.078431%,97.647059%);fill-opacity:1;" d="M 191.789062 286.472656 L 191.183594 292.816406 "/>
<path style=" stroke:none;fill-rule:nonzero;fill:rgb(94.509804%,96.078431%,97.647059%);fill-opacity:1;" d="M 248.949219 286.367188 L 249.421875 292.703125 "/>
<path style=" stroke:none;fill-rule:nonzero;fill:rgb(0.784314%,12.156863%,14.901961%);fill-opacity:1;" d="M 275.667969 292.652344 L 275.101562 289.492188 L 286.339844 289.46875 L 286.882812 292.632812 Z M 275.667969 292.652344 "/>
<path style=" stroke:none;fill-rule:nonzero;fill:rgb(0.784314%,12.156863%,14.901961%);fill-opacity:1;" d="M 286.9375 289.46875 L 286.394531 286.296875 L 297.65625 286.277344 L 298.175781 289.453125 Z M 286.9375 289.46875 "/>
<path style=" stroke:none;fill-rule:nonzero;fill:rgb(0.784314%,12.156863%,14.901961%);fill-opacity:1;" d="M 298.90625 292.605469 L 298.390625 289.449219 L 309.628906 289.429688 L 310.117188 292.585938 Z M 298.90625 292.605469 "/>
<path style=" stroke:none;fill-rule:nonzero;fill:rgb(0.784314%,12.156863%,14.901961%);fill-opacity:1;" d="M 287.476562 292.628906 L 286.9375 289.46875 L 298.175781 289.453125 L 298.691406 292.609375 Z M 287.476562 292.628906 "/>
<path style=" stroke:none;fill-rule:nonzero;fill:rgb(94.509804%,96.078431%,97.647059%);fill-opacity:1;" d="M 157.265625 266.496094 L 157.554688 271.339844 "/>
<path style=" stroke:none;fill-rule:nonzero;fill:rgb(94.509804%,96.078431%,97.647059%);fill-opacity:1;" d="M 169.386719 266.476562 L 169.632812 271.316406 "/>
<path style=" stroke:none;fill-rule:nonzero;fill:rgb(94.509804%,96.078431%,97.647059%);fill-opacity:1;" d="M 180.710938 266.457031 L 180.917969 271.300781 "/>
<path style=" stroke:none;fill-rule:nonzero;fill:rgb(94.509804%,96.078431%,97.647059%);fill-opacity:1;" d="M 191.710938 266.433594 L 191.882812 271.277344 "/>
<path style=" stroke:none;fill-rule:nonzero;fill:rgb(94.509804%,96.078431%,97.647059%);fill-opacity:1;" d="M 202.714844 266.414062 L 202.851562 271.257812 "/>
<path style=" stroke:none;fill-rule:nonzero;fill:rgb(94.509804%,96.078431%,97.647059%);fill-opacity:1;" d="M 213.714844 266.394531 L 213.816406 271.238281 "/>
<path style=" stroke:none;fill-rule:nonzero;fill:rgb(94.509804%,96.078431%,97.647059%);fill-opacity:1;" d="M 224.714844 266.375 L 224.777344 271.214844 "/>
<path style=" stroke:none;fill-rule:nonzero;fill:rgb(94.509804%,96.078431%,97.647059%);fill-opacity:1;" d="M 235.71875 266.355469 L 235.742188 271.195312 "/>
<path style=" stroke:none;fill-rule:nonzero;fill:rgb(94.509804%,96.078431%,97.647059%);fill-opacity:1;" d="M 246.714844 266.335938 L 246.707031 271.179688 "/>
<path style=" stroke:none;fill-rule:nonzero;fill:rgb(94.509804%,96.078431%,97.647059%);fill-opacity:1;" d="M 257.714844 266.316406 L 257.667969 271.15625 "/>
<path style=" stroke:none;fill-rule:nonzero;fill:rgb(94.509804%,96.078431%,97.647059%);fill-opacity:1;" d="M 268.710938 266.292969 L 268.632812 271.136719 "/>
<path style=" stroke:none;fill-rule:nonzero;fill:rgb(94.509804%,96.078431%,97.647059%);fill-opacity:1;" d="M 279.710938 266.273438 L 279.59375 271.117188 "/>
<path style=" stroke:none;fill-rule:nonzero;fill:rgb(94.509804%,96.078431%,97.647059%);fill-opacity:1;" d="M 290.707031 266.257812 L 290.550781 271.09375 "/>
<path style=" stroke:none;fill-rule:nonzero;fill:rgb(94.509804%,96.078431%,97.647059%);fill-opacity:1;" d="M 164.082031 271.546875 L 164.34375 276.355469 "/>
<path style=" stroke:none;fill-rule:nonzero;fill:rgb(94.509804%,96.078431%,97.647059%);fill-opacity:1;" d="M 176.160156 271.527344 L 176.382812 276.335938 "/>
<path style=" stroke:none;fill-rule:nonzero;fill:rgb(94.509804%,96.078431%,97.647059%);fill-opacity:1;" d="M 187.441406 271.503906 L 187.625 276.316406 "/>
<path style=" stroke:none;fill-rule:nonzero;fill:rgb(94.509804%,96.078431%,97.647059%);fill-opacity:1;" d="M 198.40625 271.484375 L 198.558594 276.292969 "/>
<path style=" stroke:none;fill-rule:nonzero;fill:rgb(94.509804%,96.078431%,97.647059%);fill-opacity:1;" d="M 209.371094 271.464844 L 209.484375 276.273438 "/>
<path style=" stroke:none;fill-rule:nonzero;fill:rgb(94.509804%,96.078431%,97.647059%);fill-opacity:1;" d="M 220.332031 271.441406 L 220.410156 276.25 "/>
<path style=" stroke:none;fill-rule:nonzero;fill:rgb(94.509804%,96.078431%,97.647059%);fill-opacity:1;" d="M 231.292969 271.425781 L 231.335938 276.234375 "/>
<path style=" stroke:none;fill-rule:nonzero;fill:rgb(94.509804%,96.078431%,97.647059%);fill-opacity:1;" d="M 242.257812 271.40625 L 242.261719 276.214844 "/>
<path style=" stroke:none;fill-rule:nonzero;fill:rgb(94.509804%,96.078431%,97.647059%);fill-opacity:1;" d="M 253.21875 271.382812 L 253.1875 276.191406 "/>
<path style=" stroke:none;fill-rule:nonzero;fill:rgb(94.509804%,96.078431%,97.647059%);fill-opacity:1;" d="M 264.179688 271.363281 L 264.113281 276.171875 "/>
<path style=" stroke:none;fill-rule:nonzero;fill:rgb(94.509804%,96.078431%,97.647059%);fill-opacity:1;" d="M 275.140625 271.34375 L 275.035156 276.152344 "/>
<path style=" stroke:none;fill-rule:nonzero;fill:rgb(94.509804%,96.078431%,97.647059%);fill-opacity:1;" d="M 286.097656 271.320312 L 285.960938 276.128906 "/>
<path style=" stroke:none;fill-rule:nonzero;fill:rgb(94.509804%,96.078431%,97.647059%);fill-opacity:1;" d="M 164.628906 281.566406 L 164.890625 286.3125 "/>
<path style=" stroke:none;fill-rule:nonzero;fill:rgb(94.509804%,96.078431%,97.647059%);fill-opacity:1;" d="M 176.625 281.542969 L 176.84375 286.289062 "/>
<path style=" stroke:none;fill-rule:nonzero;fill:rgb(94.509804%,96.078431%,97.647059%);fill-opacity:1;" d="M 187.832031 281.527344 L 188.011719 286.265625 "/>
<path style=" stroke:none;fill-rule:nonzero;fill:rgb(94.509804%,96.078431%,97.647059%);fill-opacity:1;" d="M 198.71875 281.503906 L 198.867188 286.246094 "/>
<path style=" stroke:none;fill-rule:nonzero;fill:rgb(94.509804%,96.078431%,97.647059%);fill-opacity:1;" d="M 209.609375 281.484375 L 209.71875 286.226562 "/>
<path style=" stroke:none;fill-rule:nonzero;fill:rgb(94.509804%,96.078431%,97.647059%);fill-opacity:1;" d="M 220.496094 281.464844 L 220.570312 286.207031 "/>
<path style=" stroke:none;fill-rule:nonzero;fill:rgb(94.509804%,96.078431%,97.647059%);fill-opacity:1;" d="M 231.382812 281.441406 L 231.421875 286.1875 "/>
<path style=" stroke:none;fill-rule:nonzero;fill:rgb(94.509804%,96.078431%,97.647059%);fill-opacity:1;" d="M 242.269531 281.421875 L 242.273438 286.164062 "/>
<path style=" stroke:none;fill-rule:nonzero;fill:rgb(94.509804%,96.078431%,97.647059%);fill-opacity:1;" d="M 253.152344 281.402344 L 253.125 286.144531 "/>
<path style=" stroke:none;fill-rule:nonzero;fill:rgb(94.509804%,96.078431%,97.647059%);fill-opacity:1;" d="M 264.042969 281.382812 L 263.972656 286.125 "/>
<path style=" stroke:none;fill-rule:nonzero;fill:rgb(94.509804%,96.078431%,97.647059%);fill-opacity:1;" d="M 274.925781 281.363281 L 274.824219 286.101562 "/>
<path style=" stroke:none;fill-rule:nonzero;fill:rgb(94.509804%,96.078431%,97.647059%);fill-opacity:1;" d="M 285.8125 281.339844 L 285.675781 286.085938 "/>
<path style=" stroke:none;fill-rule:nonzero;fill:rgb(94.509804%,96.078431%,97.647059%);fill-opacity:1;" d="M 297.054688 271.304688 L 296.882812 276.113281 "/>
<path style=" stroke:none;fill-rule:nonzero;fill:rgb(94.509804%,96.078431%,97.647059%);fill-opacity:1;" d="M 159.445312 276.585938 L 159.726562 281.359375 "/>
<path style=" stroke:none;fill-rule:nonzero;fill:rgb(94.509804%,96.078431%,97.647059%);fill-opacity:1;" d="M 171.484375 276.5625 L 171.722656 281.335938 "/>
<path style=" stroke:none;fill-rule:nonzero;fill:rgb(94.509804%,96.078431%,97.647059%);fill-opacity:1;" d="M 182.726562 276.542969 L 182.929688 281.316406 "/>
<path style=" stroke:none;fill-rule:nonzero;fill:rgb(94.509804%,96.078431%,97.647059%);fill-opacity:1;" d="M 193.652344 276.519531 L 193.820312 281.296875 "/>
<path style=" stroke:none;fill-rule:nonzero;fill:rgb(94.509804%,96.078431%,97.647059%);fill-opacity:1;" d="M 204.578125 276.5 L 204.707031 281.277344 "/>
<path style=" stroke:none;fill-rule:nonzero;fill:rgb(94.509804%,96.078431%,97.647059%);fill-opacity:1;" d="M 215.507812 276.476562 L 215.601562 281.257812 "/>
<path style=" stroke:none;fill-rule:nonzero;fill:rgb(94.509804%,96.078431%,97.647059%);fill-opacity:1;" d="M 226.433594 276.460938 L 226.488281 281.234375 "/>
<path style=" stroke:none;fill-rule:nonzero;fill:rgb(94.509804%,96.078431%,97.647059%);fill-opacity:1;" d="M 237.355469 276.441406 L 237.378906 281.214844 "/>
<path style=" stroke:none;fill-rule:nonzero;fill:rgb(94.509804%,96.078431%,97.647059%);fill-opacity:1;" d="M 248.28125 276.417969 L 248.265625 281.195312 "/>
<path style=" stroke:none;fill-rule:nonzero;fill:rgb(94.509804%,96.078431%,97.647059%);fill-opacity:1;" d="M 259.203125 276.398438 L 259.15625 281.171875 "/>
<path style=" stroke:none;fill-rule:nonzero;fill:rgb(94.509804%,96.078431%,97.647059%);fill-opacity:1;" d="M 270.125 276.378906 L 270.039062 281.15625 "/>
<path style=" stroke:none;fill-rule:nonzero;fill:rgb(94.509804%,96.078431%,97.647059%);fill-opacity:1;" d="M 281.046875 276.355469 L 280.925781 281.136719 "/>
<path style=" stroke:none;fill-rule:nonzero;fill:rgb(94.509804%,96.078431%,97.647059%);fill-opacity:1;" d="M 291.96875 276.339844 L 291.8125 281.113281 "/>
<path style=" stroke:none;fill-rule:nonzero;fill:rgb(94.509804%,96.078431%,97.647059%);fill-opacity:1;" d="M 154.765625 286.546875 L 153.789062 292.882812 "/>
<path style=" stroke:none;fill-rule:nonzero;fill:rgb(94.509804%,96.078431%,97.647059%);fill-opacity:1;" d="M 166.703125 286.523438 L 166.160156 292.859375 "/>
<path style=" stroke:none;fill-rule:nonzero;fill:rgb(94.509804%,96.078431%,97.647059%);fill-opacity:1;" d="M 178.921875 286.285156 L 178.53125 292.835938 "/>
<path style=" stroke:none;fill-rule:nonzero;fill:rgb(94.509804%,96.078431%,97.647059%);fill-opacity:1;" d="M 265.195312 286.335938 L 266.164062 292.671875 "/>
<path style=" stroke:none;fill-rule:nonzero;fill:rgb(70.980392%,74.509804%,77.647059%);fill-opacity:1;" d="M 314.835938 290.59375 L 309.621094 262.707031 C 309.347656 261.179688 308.019531 260.0625 306.46875 260.058594 L 146.054688 260.351562 L 145.890625 260.351562 C 144.410156 260.425781 143.183594 261.53125 142.960938 263 L 138.421875 290.914062 C 138.269531 291.882812 138.550781 292.863281 139.183594 293.609375 C 139.816406 294.351562 140.742188 294.785156 141.71875 294.789062 L 311.640625 294.464844 L 311.804688 294.464844 C 312.742188 294.402344 313.609375 293.945312 314.1875 293.203125 C 314.765625 292.464844 315 291.511719 314.832031 290.585938 Z M 296.855469 287.222656 L 297.066406 288.503906 L 287.734375 288.503906 L 287.515625 287.222656 Z M 299.707031 291.660156 L 299.5 290.394531 L 308.820312 290.394531 L 309.015625 291.660156 Z M 168.488281 267.425781 L 168.636719 270.375 L 158.445312 270.394531 L 158.273438 267.445312 Z M 297.371094 290.398438 L 297.578125 291.664062 L 288.289062 291.695312 L 288.070312 290.425781 Z M 275.804688 285.375 L 275.875 282.089844 L 284.863281 282.089844 L 284.769531 285.371094 Z M 243.238281 285.433594 L 243.238281 282.148438 L 252.226562 282.148438 L 252.226562 285.429688 Z M 188.949219 285.535156 L 188.789062 282.238281 L 197.78125 282.238281 L 197.882812 285.515625 Z M 177.773438 285.535156 L 177.625 282.253906 L 186.929688 282.238281 L 187.054688 285.519531 Z M 165.816406 285.558594 L 165.632812 282.277344 L 175.730469 282.277344 L 175.882812 285.558594 Z M 170.566406 276.765625 L 170.746094 280.375 L 160.636719 280.375 L 160.425781 276.765625 Z M 175.265625 272.226562 L 175.386719 274.851562 L 165.230469 274.871094 L 165.089844 272.222656 Z M 186.542969 272.203125 L 186.644531 274.851562 L 177.28125 274.851562 L 177.160156 272.226562 Z M 197.515625 272.203125 L 197.601562 274.828125 L 188.554688 274.828125 L 188.453125 272.179688 Z M 208.488281 272.179688 L 208.546875 274.808594 L 199.503906 274.808594 L 199.382812 272.210938 Z M 219.460938 272.160156 L 219.5 274.808594 L 210.457031 274.808594 L 210.394531 272.179688 Z M 230.429688 272.160156 L 230.453125 274.789062 L 221.410156 274.804688 L 221.367188 272.15625 Z M 241.402344 272.140625 L 241.402344 274.789062 L 232.355469 274.789062 L 232.335938 272.160156 Z M 252.375 272.140625 L 252.375 274.765625 L 243.332031 274.785156 L 243.332031 272.136719 Z M 263.347656 272.140625 L 263.3125 274.765625 L 254.269531 274.765625 L 254.269531 272.140625 Z M 274.316406 272.117188 L 274.261719 274.765625 L 265.21875 274.765625 L 265.257812 272.140625 Z M 285.269531 272.117188 L 285.195312 274.742188 L 276.152344 274.761719 L 276.210938 272.113281 Z M 296.242188 272.09375 L 296.148438 274.742188 L 287.109375 274.742188 L 287.183594 272.117188 Z M 271.164062 280.269531 L 271.226562 276.660156 L 280.253906 276.660156 L 280.164062 280.269531 Z M 260.265625 280.292969 L 260.304688 276.683594 L 269.335938 276.683594 L 269.269531 280.292969 Z M 249.375 280.292969 L 249.375 276.683594 L 258.40625 276.683594 L 258.367188 280.292969 Z M 238.480469 280.316406 L 238.480469 276.703125 L 247.503906 276.703125 L 247.503906 280.3125 Z M 227.582031 280.332031 L 227.539062 276.722656 L 236.566406 276.722656 L 236.566406 280.332031 Z M 216.6875 280.332031 L 216.613281 276.722656 L 225.644531 276.722656 L 225.691406 280.332031 Z M 205.789062 280.355469 L 205.691406 276.742188 L 214.722656 276.742188 L 214.796875 280.351562 Z M 194.890625 280.355469 L 194.765625 276.746094 L 203.800781 276.726562 L 203.894531 280.339844 Z M 183.996094 280.355469 L 183.84375 276.746094 L 192.875 276.746094 L 193 280.355469 Z M 172.78125 280.378906 L 172.597656 276.769531 L 181.949219 276.75 L 182.097656 280.359375 Z M 199.6875 282.238281 L 208.675781 282.238281 L 208.757812 285.519531 L 199.789062 285.519531 Z M 210.570312 282.214844 L 219.5625 282.214844 L 219.613281 285.496094 L 210.648438 285.496094 Z M 221.453125 282.214844 L 230.441406 282.214844 L 230.472656 285.492188 L 221.507812 285.492188 Z M 232.335938 282.214844 L 241.324219 282.195312 L 241.324219 285.480469 L 232.359375 285.480469 Z M 254.097656 282.171875 L 263.085938 282.152344 L 263.039062 285.4375 L 254.078125 285.4375 Z M 264.933594 285.433594 L 264.976562 282.148438 L 273.960938 282.148438 L 273.914062 285.375 Z M 281.894531 280.226562 L 281.988281 276.617188 L 291.015625 276.617188 L 290.898438 280.230469 Z M 292.910156 276.5625 L 310.285156 276.527344 L 310.960938 280.136719 L 292.800781 280.171875 Z M 297.882812 274.671875 L 297.980469 272.042969 L 309.4375 272.023438 L 309.929688 274.648438 Z M 309.097656 270.128906 L 291.539062 270.164062 L 291.632812 267.214844 L 308.546875 267.183594 Z M 289.648438 270.167969 L 280.566406 270.167969 L 280.640625 267.21875 L 289.71875 267.21875 Z M 278.675781 270.1875 L 269.597656 270.1875 L 269.644531 267.238281 L 278.726562 267.21875 Z M 267.703125 270.1875 L 258.625 270.207031 L 258.652344 267.253906 L 267.75 267.253906 Z M 256.734375 270.210938 L 247.652344 270.210938 L 247.652344 267.257812 L 256.734375 267.257812 Z M 245.761719 270.210938 L 236.679688 270.210938 L 236.664062 267.261719 L 245.765625 267.261719 Z M 234.789062 270.226562 L 225.710938 270.226562 L 225.671875 267.277344 L 234.753906 267.277344 Z M 223.816406 270.25 L 214.738281 270.25 L 214.675781 267.300781 L 223.757812 267.300781 Z M 212.847656 270.25 L 203.765625 270.25 L 203.683594 267.304688 L 212.785156 267.304688 Z M 201.875 270.269531 L 192.792969 270.269531 L 192.6875 267.320312 L 201.792969 267.320312 Z M 190.902344 270.292969 L 181.824219 270.292969 L 181.699219 267.339844 L 190.796875 267.339844 Z M 179.929688 270.3125 L 170.535156 270.3125 L 170.382812 267.359375 L 179.804688 267.339844 Z M 163.175781 272.234375 L 163.320312 274.882812 L 142.9375 274.917969 L 143.367188 272.269531 Z M 158.511719 276.773438 L 158.722656 280.382812 L 142.042969 280.414062 L 142.632812 276.800781 Z M 163.71875 282.265625 L 163.902344 285.546875 L 141.203125 285.59375 L 141.734375 282.304688 Z M 165.667969 287.4375 L 165.21875 292.734375 L 166.164062 292.828125 L 154.75 292.847656 L 155.578125 287.457031 Z M 167.558594 287.4375 L 177.890625 287.417969 L 177.574219 292.742188 L 178.523438 292.808594 L 167.101562 292.828125 Z M 179.789062 287.414062 L 190.738281 287.414062 L 190.230469 292.707031 L 191.171875 292.8125 L 179.46875 292.8125 Z M 192.652344 287.390625 L 248.074219 287.285156 L 248.453125 292.675781 L 192.132812 292.828125 Z M 249.96875 287.28125 L 264.382812 287.253906 L 265.210938 292.671875 L 249.421875 292.703125 L 250.367188 292.644531 Z M 266.292969 287.25 L 285.589844 287.214844 L 285.808594 288.5 L 273.960938 288.519531 L 274.695312 292.625 L 266.152344 292.625 L 267.089844 292.492188 Z M 285.761719 291.695312 L 276.457031 291.695312 L 276.230469 290.421875 L 285.542969 290.421875 Z M 286.640625 285.359375 L 286.734375 282.078125 L 311.273438 282.03125 L 311.273438 281.796875 L 311.933594 285.3125 Z M 146.011719 262.28125 L 146.078125 262.28125 L 306.492188 261.988281 C 307.121094 261.988281 307.65625 262.445312 307.761719 263.0625 L 308.179688 265.300781 L 144.464844 265.589844 L 144.84375 263.347656 C 144.921875 262.75 145.410156 262.296875 146.011719 262.257812 Z M 144.21875 267.101562 L 144.21875 267.480469 L 156.367188 267.457031 L 156.542969 270.40625 L 143.679688 270.433594 Z M 140.28125 291.261719 L 140.886719 287.53125 L 153.660156 287.503906 L 152.847656 292.730469 L 153.78125 292.882812 L 141.675781 292.90625 C 141.261719 292.894531 140.871094 292.707031 140.605469 292.390625 C 140.339844 292.074219 140.222656 291.65625 140.28125 291.25 Z M 311.667969 292.59375 L 311.0625 292.59375 L 310.421875 288.492188 L 298.964844 288.511719 L 298.757812 287.230469 L 312.125 287.191406 L 312.125 286.246094 L 312.976562 290.9375 C 313.042969 291.332031 312.9375 291.734375 312.691406 292.046875 C 312.445312 292.359375 312.078125 292.554688 311.679688 292.585938 Z M 311.667969 292.59375 "/>
<path style=" stroke:none;fill-rule:nonzero;fill:rgb(94.509804%,96.078431%,97.647059%);fill-opacity:1;" d="M 246.230469 328.71875 L 207.964844 328.792969 C 207.371094 328.78125 206.894531 328.285156 206.90625 327.691406 L 206.882812 324.328125 C 206.875 324.042969 206.980469 323.765625 207.175781 323.558594 C 207.371094 323.351562 207.640625 323.230469 207.925781 323.222656 L 246.136719 323.144531 C 246.730469 323.164062 247.207031 323.652344 247.203125 324.246094 L 247.257812 327.609375 C 247.273438 327.894531 247.171875 328.171875 246.980469 328.382812 C 246.785156 328.589844 246.515625 328.710938 246.230469 328.71875 Z M 246.230469 328.71875 "/>
<path style=" stroke:none;fill-rule:nonzero;fill:rgb(57.254902%,60%,63.921569%);fill-opacity:1;" d="M 246.332031 329.472656 L 246.242188 329.472656 L 207.972656 329.546875 C 207.5 329.546875 207.042969 329.359375 206.710938 329.019531 C 206.355469 328.667969 206.152344 328.1875 206.148438 327.6875 L 206.128906 324.320312 C 206.109375 323.3125 206.910156 322.480469 207.917969 322.460938 L 246.128906 322.386719 C 247.140625 322.402344 247.953125 323.222656 247.960938 324.234375 L 248.015625 327.601562 C 248.027344 328.101562 247.839844 328.585938 247.492188 328.941406 C 247.183594 329.257812 246.773438 329.445312 246.332031 329.472656 Z M 207.921875 323.976562 C 207.75 324.003906 207.628906 324.15625 207.640625 324.328125 L 207.664062 327.695312 C 207.664062 327.792969 207.699219 327.886719 207.769531 327.957031 C 207.820312 328.007812 207.886719 328.035156 207.953125 328.039062 L 246.222656 327.960938 C 246.292969 327.960938 246.359375 327.929688 246.410156 327.878906 C 246.476562 327.808594 246.511719 327.714844 246.507812 327.617188 L 246.449219 324.25 C 246.457031 324.074219 246.324219 323.921875 246.148438 323.902344 L 207.9375 323.976562 Z M 207.921875 323.976562 "/>
<use xlink:href="#surface5" mask="url(#mask0)"/>
<path style=" stroke:none;fill-rule:nonzero;fill:rgb(3.137255%,1.960784%,3.137255%);fill-opacity:1;" d="M 131.632812 128.976562 C 131.714844 128.976562 131.820312 128.90625 131.949219 128.925781 C 132.0625 128.933594 132.164062 128.992188 132.230469 129.082031 C 132.117188 129.152344 132.050781 129.273438 132.050781 129.40625 C 132.054688 129.542969 132.136719 129.660156 132.265625 129.710938 C 132.242188 129.757812 132.070312 130.152344 131.886719 130.136719 C 131.773438 130.136719 131.78125 130.050781 131.628906 130.050781 C 131.476562 130.050781 131.488281 130.125 131.375 130.121094 C 131.261719 130.117188 130.949219 129.71875 130.960938 129.363281 C 130.972656 129.007812 131.21875 128.886719 131.367188 128.890625 C 131.519531 128.894531 131.519531 128.972656 131.632812 128.976562 Z M 131.632812 128.976562 "/>
<path style=" stroke:none;fill-rule:nonzero;fill:rgb(3.137255%,1.960784%,3.137255%);fill-opacity:1;" d="M 131.605469 128.894531 C 131.601562 128.707031 131.746094 128.546875 131.9375 128.539062 C 131.941406 128.628906 131.910156 128.71875 131.847656 128.785156 C 131.785156 128.851562 131.699219 128.890625 131.609375 128.894531 Z M 131.605469 128.894531 "/>
<path style=" stroke:none;fill-rule:nonzero;fill:rgb(41.568627%,45.490196%,49.803922%);fill-opacity:1;" d="M 238.945312 250.9375 L 213.386719 250.988281 L 213.371094 248.984375 L 238.914062 248.9375 Z M 238.945312 250.9375 "/>
<path style=" stroke:none;fill-rule:nonzero;fill:rgb(76.470588%,78.039216%,78.823529%);fill-opacity:1;" d="M 272.0625 318.871094 L 181.890625 319.046875 L 184.804688 297.621094 L 268.636719 297.457031 Z M 272.0625 318.871094 "/>
<path style=" stroke:none;fill-rule:nonzero;fill:rgb(57.254902%,60%,63.921569%);fill-opacity:1;" d="M 274.292969 320.757812 L 273.195312 320.757812 L 179.746094 320.945312 L 183.175781 295.726562 L 270.273438 295.5625 Z M 181.902344 319.046875 L 272.074219 318.871094 L 268.648438 297.457031 L 184.816406 297.617188 Z M 181.902344 319.046875 "/>
<use xlink:href="#surface8" mask="url(#mask1)"/>
</g>
</svg>
