<?xml version="1.0" encoding="UTF-8"?>
<svg xmlns="http://www.w3.org/2000/svg" xmlns:xlink="http://www.w3.org/1999/xlink" width="80px" height="80px" viewBox="0 0 80 80" version="1.1">
<defs>
<filter id="alpha" filterUnits="objectBoundingBox" x="0%" y="0%" width="100%" height="100%">
  <feColorMatrix type="matrix" in="SourceGraphic" values="0 0 0 0 1 0 0 0 0 1 0 0 0 0 1 0 0 0 1 0"/>
</filter>
<mask id="mask0">
  <g filter="url(#alpha)">
<rect x="0" y="0" width="80" height="80" style="fill:rgb(0%,0%,0%);fill-opacity:0.301961;stroke:none;"/>
  </g>
</mask>
<clipPath id="clip1">
  <rect x="0" y="0" width="80" height="80"/>
</clipPath>
<g id="surface5" clip-path="url(#clip1)">
<path style=" stroke:none;fill-rule:nonzero;fill:rgb(0%,0%,0%);fill-opacity:1;" d="M 58.75 33.4375 L 49.375 36.09375 L 37.34375 24.84375 L 23.90625 26.25 L 23.4375 38.4375 L 20.3125 55.78125 L 45.625 71.71875 L 72.96875 71.71875 L 72.96875 43.90625 Z M 7.03125 7.96875 L 72.96875 7.96875 L 72.96875 10.15625 L 7.03125 10.15625 Z M 7.03125 7.96875 "/>
</g>
</defs>
<g id="surface1">
<path style=" stroke:none;fill-rule:nonzero;fill:rgb(49.411765%,73.72549%,97.647059%);fill-opacity:1;" d="M 1.09375 1.875 L 79.0625 1.875 L 79.0625 77.8125 L 1.09375 77.8125 Z M 1.09375 1.875 "/>
<path style=" stroke:none;fill-rule:nonzero;fill:rgb(18.823529%,14.901961%,49.411765%);fill-opacity:1;" d="M 7.03125 7.972656 L 72.96875 7.972656 L 72.96875 71.714844 L 7.03125 71.714844 Z M 7.03125 7.972656 "/>
<use xlink:href="#surface5" mask="url(#mask0)"/>
<path style=" stroke:none;fill-rule:nonzero;fill:rgb(49.411765%,73.72549%,97.647059%);fill-opacity:1;" d="M 20.300781 24.023438 C 22.402344 23.640625 25.3125 23.355469 29.277344 23.355469 C 33.574219 23.355469 36.722656 24.261719 38.773438 25.980469 C 40.683594 27.554688 41.925781 30.085938 41.925781 33.09375 C 41.925781 36.148438 40.972656 38.675781 39.15625 40.394531 C 36.816406 42.734375 33.144531 43.832031 28.988281 43.832031 C 27.890625 43.832031 26.890625 43.785156 26.125 43.640625 L 26.125 55.765625 L 20.300781 55.765625 Z M 26.125 39.011719 C 26.839844 39.203125 27.796875 39.25 28.988281 39.25 C 33.382812 39.25 36.054688 37.101562 36.054688 33.332031 C 36.054688 29.75 33.570312 27.839844 29.515625 27.839844 C 27.890625 27.839844 26.746094 27.984375 26.125 28.128906 Z M 44.550781 50.371094 C 45.886719 51.183594 48.417969 52.042969 50.515625 52.042969 C 53.09375 52.042969 54.242188 50.992188 54.242188 49.464844 C 54.242188 47.890625 53.285156 47.078125 50.421875 46.074219 C 45.886719 44.5 43.976562 42.019531 44.027344 39.296875 C 44.027344 35.191406 47.414062 31.996094 52.808594 31.996094 C 55.386719 31.996094 57.628906 32.664062 58.964844 33.378906 L 57.820312 37.53125 C 56.816406 36.957031 54.957031 36.195312 52.902344 36.195312 C 50.804688 36.195312 49.65625 37.199219 49.65625 38.628906 C 49.65625 40.109375 50.757812 40.824219 53.714844 41.875 C 57.917969 43.402344 59.875 45.550781 59.921875 48.988281 C 59.921875 53.1875 56.628906 56.242188 50.46875 56.242188 C 47.652344 56.242188 45.125 55.574219 43.40625 54.621094 Z M 44.550781 50.371094 "/>
</g>
</svg>
