<?xml version="1.0" encoding="UTF-8"?>
<svg xmlns="http://www.w3.org/2000/svg" xmlns:xlink="http://www.w3.org/1999/xlink" width="80px" height="80px" viewBox="0 0 80 80" version="1.1">
<g id="surface1">
<path style=" stroke:none;fill-rule:nonzero;fill:rgb(20.784314%,40%,56.078431%);fill-opacity:1;" d="M 13.109375 58.332031 L 17.304688 58.332031 L 17.304688 50.105469 C 17.304688 44.15625 24.199219 37.636719 30.191406 37.636719 L 47.8125 37.636719 C 52.714844 37.636719 56.625 34.785156 56.625 29.761719 L 56.625 12.59375 C 56.625 7.707031 52.601562 4.046875 47.8125 3.222656 C 41.90625 2.226562 35.484375 2.28125 30.191406 3.238281 C 22.734375 4.585938 21.378906 7.402344 21.378906 12.605469 L 21.378906 21.761719 L 39.023438 21.761719 L 14.761719 21.761719 C 9.625 21.761719 5.136719 24.914062 3.738281 30.898438 C 2.121094 37.757812 2.054688 42.035156 3.738281 49.199219 C 4.988281 54.523438 7.980469 58.332031 13.109375 58.332031 Z M 13.109375 58.332031 "/>
<path style=" stroke:none;fill-rule:nonzero;fill:rgb(0%,0%,0%);fill-opacity:1;" d="M 60.769531 24.523438 L 60.773438 24.523438 L 60.773438 24.511719 Z M 60.769531 24.523438 "/>
<path style=" stroke:none;fill-rule:nonzero;fill:rgb(94.901961%,73.333333%,18.823529%);fill-opacity:1;" d="M 66.941406 57.359375 C 72.171875 57.359375 75.386719 55.285156 77.199219 49.480469 C 79.082031 43.5 79 37.746094 77.199219 30.085938 C 75.90625 24.570312 73.453125 20.40625 68.222656 20.40625 L 62.5 20.40625 L 62.5 28.875 C 62.5 35.445312 57.28125 42.023438 51.296875 42.023438 L 33.347656 42.023438 C 28.4375 42.023438 23.332031 45.449219 23.332031 50.679688 L 23.332031 66.433594 C 23.332031 71.609375 27.570312 74.648438 32.308594 76.128906 C 37.988281 77.898438 43.457031 78.214844 50.261719 76.128906 C 54.785156 74.738281 59.238281 71.929688 59.238281 66.433594 L 58.585938 58.511719 L 40.648438 58.511719 Z M 66.941406 57.359375 "/>
<path style=" stroke:none;fill-rule:nonzero;fill:rgb(100%,100%,100%);fill-opacity:1;" d="M 46.664062 63.035156 C 48.527344 63.035156 50.039062 64.660156 50.039062 66.660156 C 50.039062 68.679688 48.527344 70.304688 46.664062 70.304688 C 44.8125 70.304688 43.285156 68.660156 43.285156 66.660156 C 43.300781 64.640625 44.8125 63.035156 46.664062 63.035156 Z M 34.164062 9.699219 C 36.027344 9.699219 37.539062 11.328125 37.539062 13.328125 C 37.539062 15.347656 36.027344 16.96875 34.164062 16.96875 C 32.3125 16.96875 30.785156 15.328125 30.785156 13.328125 C 30.800781 11.308594 32.3125 9.699219 34.164062 9.699219 Z M 34.164062 9.699219 "/>
<path style=" stroke:none;fill-rule:nonzero;fill:rgb(0%,0%,0%);fill-opacity:1;" d="M 23.332031 60.832031 C 21.953125 60.832031 20.832031 59.714844 20.832031 58.332031 L 20.832031 49.800781 C 20.933594 44.171875 24.496094 40.832031 30.363281 40.832031 L 48.664062 40.832031 C 56.28125 40.832031 60.828125 36.546875 60.828125 29.367188 L 60.828125 20.832031 C 60.828125 19.453125 61.945312 18.332031 63.328125 18.332031 C 64.707031 18.332031 65.828125 19.453125 65.828125 20.832031 L 65.828125 29.167969 C 65.828125 39.371094 59.089844 45.832031 48.664062 45.832031 L 30.363281 45.832031 C 26.433594 45.832031 25.867188 47.859375 25.832031 49.847656 L 25.832031 58.332031 C 25.832031 59.714844 24.714844 60.832031 23.332031 60.832031 Z M 23.332031 60.832031 "/>
<path style=" stroke:none;fill-rule:nonzero;fill:rgb(0%,0%,0%);fill-opacity:1;" d="M 40.5625 80 C 37.34375 80 34.058594 79.746094 30.925781 79.238281 C 24.789062 78.195312 20.832031 73.488281 20.832031 67.234375 L 20.832031 49.800781 C 20.832031 48.421875 21.953125 47.300781 23.332031 47.300781 C 24.714844 47.300781 25.832031 48.421875 25.832031 49.800781 L 25.832031 67.230469 C 25.832031 71.035156 28.042969 73.671875 31.746094 74.300781 C 37.535156 75.238281 43.898438 75.234375 49.175781 74.265625 C 52.300781 73.734375 54.257812 72.941406 55.183594 71.847656 C 55.9375 70.957031 56.257812 69.578125 56.257812 67.226562 L 56.257812 59.160156 L 42.492188 59.160156 C 41.113281 59.160156 39.992188 58.039062 39.992188 56.660156 C 39.992188 55.28125 41.113281 54.160156 42.492188 54.160156 L 58.757812 54.160156 C 60.136719 54.160156 61.257812 55.28125 61.257812 56.660156 L 61.257812 67.226562 C 61.257812 69.644531 61 72.714844 58.996094 75.078125 C 57.257812 77.128906 54.414062 78.441406 50.046875 79.1875 C 47.113281 79.730469 43.875 80 40.5625 80 Z M 40.5625 80 "/>
<path style=" stroke:none;fill-rule:nonzero;fill:rgb(0%,0%,0%);fill-opacity:1;" d="M 65.625 59.167969 L 58.761719 59.167969 C 57.378906 59.167969 56.261719 58.046875 56.261719 56.667969 C 56.261719 55.285156 57.378906 54.167969 58.761719 54.167969 L 65.625 54.167969 C 70.445312 54.167969 72.738281 52.460938 73.796875 48.078125 C 75.40625 41.351562 75.40625 37.441406 73.792969 30.644531 C 72.332031 24.578125 70.148438 23.332031 67.328125 23.332031 L 65.828125 23.332031 L 65.828125 29.167969 C 65.828125 30.546875 64.707031 31.765625 63.328125 31.765625 C 61.945312 31.765625 60.828125 30.742188 60.828125 29.363281 L 60.828125 20.832031 C 60.828125 19.453125 61.945312 18.332031 63.328125 18.332031 L 67.328125 18.332031 C 75.078125 18.332031 77.503906 24.691406 78.65625 29.480469 C 80.441406 37 80.441406 41.800781 78.65625 49.25 C 77.066406 55.828125 72.683594 59.167969 65.625 59.167969 Z M 46.664062 72.5 C 43.445312 72.5 40.828125 69.878906 40.828125 66.660156 C 40.828125 63.445312 43.445312 60.832031 46.664062 60.832031 C 49.878906 60.832031 52.496094 63.445312 52.496094 66.660156 C 52.464844 69.894531 49.847656 72.5 46.664062 72.5 Z M 46.664062 65.832031 C 46.203125 65.832031 45.828125 66.203125 45.828125 66.660156 C 45.828125 67.566406 47.488281 67.578125 47.496094 66.636719 C 47.496094 66.203125 47.121094 65.832031 46.664062 65.832031 Z M 46.664062 65.832031 "/>
<path style=" stroke:none;fill-rule:nonzero;fill:rgb(0%,0%,0%);fill-opacity:1;" d="M 16.671875 61.667969 C 15.292969 61.667969 14.171875 60.546875 14.171875 59.167969 L 14.171875 50.832031 C 14.171875 40.628906 20.910156 34.167969 31.335938 34.167969 L 49.636719 34.167969 C 53.566406 34.167969 54.132812 32.140625 54.167969 30.15625 L 54.167969 21.667969 C 54.167969 20.285156 55.285156 19.167969 56.667969 19.167969 C 58.046875 19.167969 59.167969 20.285156 59.167969 21.667969 L 59.167969 30.203125 C 59.066406 35.832031 55.503906 39.167969 49.636719 39.167969 L 31.335938 39.167969 C 23.71875 39.167969 19.171875 43.453125 19.171875 50.632812 L 19.171875 59.167969 C 19.171875 60.546875 18.054688 61.667969 16.671875 61.667969 Z M 16.671875 61.667969 "/>
<path style=" stroke:none;fill-rule:nonzero;fill:rgb(0%,0%,0%);fill-opacity:1;" d="M 56.667969 32.703125 C 55.285156 32.703125 54.167969 31.582031 54.167969 30.203125 L 54.167969 12.765625 C 54.167969 8.964844 51.957031 6.324219 48.253906 5.695312 C 42.464844 4.757812 36.101562 4.761719 30.824219 5.730469 C 27.699219 6.261719 25.742188 7.054688 24.8125 8.148438 C 24.058594 9.035156 23.738281 10.417969 23.738281 12.765625 L 23.738281 20.832031 L 37.503906 20.832031 C 38.882812 20.832031 40.003906 21.953125 40.003906 23.332031 C 40.003906 24.714844 38.882812 25.832031 37.503906 25.832031 L 21.238281 25.832031 C 19.859375 25.832031 18.738281 24.714844 18.738281 23.332031 L 18.738281 12.765625 C 18.738281 10.351562 18.996094 7.28125 21 4.917969 C 22.738281 2.863281 25.582031 1.554688 29.949219 0.808594 C 35.75 -0.246094 42.726562 -0.265625 49.074219 0.765625 C 55.214844 1.808594 59.171875 6.515625 59.171875 12.769531 L 59.171875 30.203125 C 59.167969 31.582031 58.050781 32.703125 56.667969 32.703125 Z M 56.667969 32.703125 "/>
<path style=" stroke:none;fill-rule:nonzero;fill:rgb(0%,0%,0%);fill-opacity:1;" d="M 16.671875 61.667969 L 12.671875 61.667969 C 4.921875 61.667969 2.496094 55.308594 1.34375 50.519531 C -0.441406 43 -0.441406 38.199219 1.34375 30.75 C 2.933594 24.171875 7.316406 20.832031 14.375 20.832031 L 21.238281 20.832031 C 22.621094 20.832031 23.738281 21.953125 23.738281 23.332031 C 23.738281 24.714844 22.621094 25.832031 21.238281 25.832031 L 14.375 25.832031 C 9.554688 25.832031 7.261719 27.539062 6.203125 31.921875 C 4.59375 38.648438 4.59375 42.558594 6.207031 49.355469 C 7.667969 55.421875 9.851562 56.667969 12.671875 56.667969 L 14.171875 56.667969 L 14.171875 50.832031 C 14.171875 49.453125 15.292969 48.234375 16.671875 48.234375 C 18.054688 48.234375 19.171875 49.257812 19.171875 50.636719 L 19.171875 59.171875 C 19.171875 60.546875 18.054688 61.667969 16.671875 61.667969 Z M 33.335938 19.167969 C 30.121094 19.167969 27.503906 16.554688 27.503906 13.339844 C 27.535156 10.105469 30.148438 7.5 33.335938 7.5 C 36.554688 7.5 39.171875 10.121094 39.171875 13.339844 C 39.171875 16.554688 36.554688 19.167969 33.335938 19.167969 Z M 33.335938 12.5 C 32.875 12.5 32.507812 12.878906 32.503906 13.363281 C 32.503906 14.230469 34.171875 14.253906 34.171875 13.339844 C 34.171875 12.894531 33.785156 12.5 33.335938 12.5 Z M 33.335938 12.5 "/>
</g>
</svg>
