<svg xmlns="http://www.w3.org/2000/svg" xmlns:xlink="http://www.w3.org/1999/xlink" width="560px" height="454px" viewBox="0 0 2278 454" version="1.1">
<g id="surface1">
<path style=" stroke:none;fill-rule:nonzero;fill:#e8505b;fill-opacity:1;" d="M 515.425781 280.148438 L 489.261719 277.96875 C 469.109375 276.332031 460.929688 268.160156 460.929688 254.53125 C 460.929688 238.175781 473.460938 227.824219 496.878906 227.824219 C 513.769531 227.824219 528.46875 231.652344 539.921875 240.910156 L 555.171875 225.652344 C 540.464844 213.660156 520.292969 208.203125 496.871094 208.203125 C 462.550781 208.203125 437.484375 226.183594 437.484375 255.625 C 437.484375 282.332031 454.371094 296.503906 485.980469 299.226562 L 512.675781 301.40625 C 531.199219 303.046875 539.371094 310.664062 539.371094 324.847656 C 539.371094 343.921875 523.023438 353.191406 496.328125 353.191406 C 476.171875 353.191406 458.730469 347.742188 446.203125 334.65625 L 430.398438 350.464844 C 448.375 367.363281 469.640625 373.90625 496.871094 373.90625 C 536.113281 373.90625 562.808594 355.921875 562.808594 324.855469 C 563.34375 293.253906 543.738281 282.882812 515.40625 280.167969 Z M 718.105469 207.109375 C 691.941406 207.109375 675.605469 212.003906 661.4375 230.546875 L 676.691406 245.804688 C 685.945312 232.183594 696.84375 227.273438 717.550781 227.273438 C 746.96875 227.273438 758.957031 239.261719 758.957031 262.703125 L 758.957031 278.511719 L 710.460938 278.511719 C 674.511719 278.511719 654.890625 297.046875 654.890625 325.390625 C 654.890625 338.476562 659.339844 350.464844 666.875 358.09375 C 677.222656 368.449219 690.304688 372.808594 712.640625 372.808594 C 734.441406 372.808594 745.875 368.359375 759.5 355.363281 L 759.5 371.171875 L 782.929688 371.171875 L 782.929688 261.054688 C 782.394531 226.160156 761.128906 207.089844 718.09375 207.089844 Z M 758.964844 313.933594 C 758.964844 327.550781 756.242188 336.828125 750.796875 341.734375 C 740.449219 351.542969 728.550781 352.636719 714.847656 352.636719 C 689.238281 352.636719 677.792969 343.914062 677.792969 324.835938 C 677.792969 306.304688 689.78125 296.492188 713.742188 296.492188 L 758.964844 296.492188 L 758.964844 313.941406 Z M 875.019531 228.359375 C 890.269531 228.359375 900.085938 232.808594 912.070312 246.339844 L 927.875 231.082031 C 911.527344 213.097656 897.355469 207.644531 875.019531 207.644531 C 834.15625 207.644531 803.652344 235.445312 803.652344 290.492188 C 803.652344 345.542969 834.796875 373.34375 875.019531 373.34375 C 897.265625 373.34375 911.519531 367.34375 928.410156 349.363281 L 912.0625 334.105469 C 900.078125 347.722656 890.261719 352.636719 875.011719 352.636719 C 859.207031 352.636719 846.132812 346.636719 837.414062 334.105469 C 829.789062 323.75 827.066406 311.207031 827.066406 290.503906 C 827.066406 270.339844 829.789062 257.796875 837.414062 246.898438 C 846.132812 234.367188 859.214844 228.367188 875.011719 228.367188 Z M 1077.699219 209.28125 L 1048.28125 209.28125 L 974.726562 280.675781 L 974.726562 137.335938 L 951.296875 137.335938 L 951.296875 371.171875 L 974.726562 371.171875 L 974.726562 312.304688 L 1003.601562 283.417969 L 1057.542969 371.171875 L 1086.960938 371.171875 L 1019.957031 267.0625 L 1077.796875 209.199219 Z M 1188.839844 200.558594 C 1163.773438 200.558594 1147.4375 210.367188 1137.078125 221.273438 C 1121.824219 237.082031 1118.007812 256.167969 1118.007812 286.683594 C 1118.007812 317.199219 1121.835938 336.285156 1137.078125 352.09375 C 1147.425781 363 1164.308594 372.808594 1188.839844 372.808594 C 1213.90625 372.808594 1230.796875 363 1241.144531 352.09375 C 1256.398438 336.285156 1260.214844 317.199219 1260.214844 286.683594 C 1260.214844 256.167969 1256.386719 237.082031 1241.144531 221.273438 C 1230.796875 210.367188 1213.355469 200.558594 1188.839844 200.558594 Z M 1208.453125 327.550781 C 1203.558594 332.449219 1197.007812 335.179688 1188.839844 335.179688 C 1180.671875 335.179688 1174.132812 332.457031 1169.226562 327.550781 C 1160.507812 318.828125 1159.421875 304.113281 1159.421875 286.675781 C 1159.421875 269.234375 1160.507812 254.511719 1169.226562 245.796875 C 1174.121094 240.902344 1180.128906 238.167969 1188.839844 238.167969 C 1197.007812 238.167969 1203.550781 240.890625 1208.453125 245.796875 C 1217.171875 254.519531 1218.257812 269.234375 1218.257812 286.675781 C 1218.257812 304.113281 1217.171875 318.835938 1208.453125 327.550781 Z M 1371.917969 202.730469 L 1338.136719 306.835938 L 1303.816406 202.730469 L 1259.679688 202.730469 L 1321.792969 371.152344 L 1354.484375 371.152344 L 1416.0625 202.730469 Z M 1487.96875 200.546875 C 1444.386719 200.546875 1414.414062 231.703125 1414.414062 286.664062 C 1414.414062 354.800781 1452.554688 372.78125 1492.332031 372.78125 C 1522.851562 372.78125 1539.1875 363.523438 1556.078125 346.078125 L 1530.46875 321 C 1519.570312 331.90625 1510.855469 336.808594 1492.332031 336.808594 C 1468.902344 336.808594 1455.277344 321 1455.277344 299.199219 L 1560.429688 299.199219 L 1560.429688 280.664062 C 1560.964844 234.882812 1534.269531 200.546875 1487.960938 200.546875 Z M 1455.820312 270.875 C 1456.355469 263.246094 1456.90625 258.882812 1459.644531 252.890625 C 1464.09375 243.082031 1473.261719 235.445312 1487.980469 235.445312 C 1502.144531 235.445312 1511.410156 243.074219 1516.3125 252.890625 C 1519.035156 258.890625 1520.136719 263.796875 1520.136719 270.875 Z M 1623.082031 218.546875 L 1623.082031 202.210938 L 1582.140625 202.210938 L 1582.140625 371.171875 L 1624.097656 371.171875 L 1624.097656 269.777344 C 1624.097656 248.519531 1638.265625 238.621094 1651.328125 238.621094 C 1661.675781 238.621094 1667.132812 241.886719 1673.574219 248.429688 L 1705.164062 216.828125 C 1693.71875 205.382812 1681.734375 201.019531 1665.386719 201.019531 C 1646.859375 200.484375 1631.066406 209.191406 1622.886719 218.46875 Z M 1717.886719 185.296875 L 1717.886719 371.171875 L 1759.84375 371.171875 L 1759.84375 238.265625 L 1790.988281 238.265625 L 1790.988281 206.101562 L 1759.84375 206.101562 L 1759.84375 187.570312 C 1759.84375 177.757812 1764.738281 172.3125 1774.554688 172.3125 L 1790.898438 172.3125 L 1790.898438 136.78125 L 1766.925781 136.78125 C 1733.148438 136.78125 1717.898438 161.308594 1717.898438 185.296875 Z M 1964.160156 200.558594 C 1939.09375 200.558594 1922.757812 210.367188 1912.398438 221.273438 C 1897.148438 237.082031 1893.328125 256.167969 1893.328125 286.683594 C 1893.328125 317.199219 1897.15625 336.285156 1912.398438 352.09375 C 1922.746094 363 1939.628906 372.808594 1964.160156 372.808594 C 1989.226562 372.808594 2006.117188 363 2016.464844 352.09375 C 2031.71875 336.285156 2035.535156 317.199219 2035.535156 286.683594 C 2035.535156 256.167969 2031.710938 237.082031 2016.464844 221.273438 C 2006.117188 210.367188 1988.675781 200.558594 1964.160156 200.558594 Z M 1983.773438 327.550781 C 1978.878906 332.449219 1972.328125 335.179688 1964.160156 335.179688 C 1955.992188 335.179688 1949.453125 332.457031 1944.550781 327.550781 C 1935.828125 318.828125 1934.742188 304.113281 1934.742188 286.675781 C 1934.742188 269.234375 1935.828125 254.511719 1944.550781 245.796875 C 1949.441406 240.902344 1955.449219 238.167969 1964.160156 238.167969 C 1972.328125 238.167969 1978.871094 240.890625 1983.773438 245.796875 C 1992.492188 254.519531 1993.578125 269.234375 1993.578125 286.675781 C 1993.578125 304.113281 1992.492188 318.835938 1983.773438 327.550781 Z M 2233.863281 202.65625 L 2206.632812 306.765625 L 2172.3125 202.65625 L 2141.792969 202.65625 L 2107.46875 306.765625 L 2080.242188 202.65625 L 2035.570312 202.65625 L 2087.332031 371.082031 L 2121.65625 371.082031 L 2157.070312 265.34375 L 2192.484375 371.082031 L 2226.808594 371.082031 L 2278 202.65625 Z M 1853.011719 320.394531 L 1853.011719 136.78125 L 1811.054688 136.78125 L 1811.054688 322.65625 C 1811.054688 346.636719 1825.761719 370.621094 1860.085938 370.621094 L 1884.058594 370.621094 L 1884.058594 335.191406 L 1867.710938 335.191406 C 1857.363281 335.191406 1853 330.292969 1853 320.476562 Z M 628.761719 234.902344 L 650.566406 213.089844 L 605.894531 213.089844 L 605.894531 159.679688 L 582.464844 159.679688 L 582.464844 327.570312 C 582.464844 351.550781 596.078125 371.171875 623.871094 371.171875 L 640.757812 371.171875 L 640.757812 351.007812 L 628.230469 351.007812 C 612.976562 351.007812 606.429688 342.285156 606.429688 327.570312 L 606.429688 234.902344 Z M 628.761719 234.902344 "/>
<path style=" stroke:none;fill-rule:nonzero;fill:#6b6666;fill-opacity:1;" d="M 0 450.753906 L 0 291.054688 L 39.777344 291.054688 L 39.777344 410.964844 L 318.742188 410.964844 L 318.742188 291.054688 L 359.050781 291.054688 L 359.050781 450.753906 Z M 0 450.753906 "/>
<path style=" stroke:none;fill-rule:nonzero;fill:#e8505b;fill-opacity:1;" d="M 83.914062 280.148438 L 279.5 321.027344 L 287.667969 281.769531 L 92.082031 240.890625 Z M 109.523438 186.410156 L 290.410156 270.890625 L 307.296875 234.925781 L 126.410156 149.894531 Z M 159.648438 97.570312 L 313.289062 225.089844 L 338.898438 194.558594 L 185.246094 67.027344 L 159.636719 97.5625 Z M 258.800781 3.253906 L 226.644531 27.234375 L 345.972656 187.472656 L 378.121094 163.488281 Z M 79.550781 370.636719 L 278.878906 370.636719 L 278.878906 330.847656 L 79.550781 330.847656 Z M 79.550781 370.636719 "/>
</g>
</svg>