<?xml version="1.0" encoding="UTF-8"?>
<svg xmlns="http://www.w3.org/2000/svg" xmlns:xlink="http://www.w3.org/1999/xlink" width="80px" height="80px" viewBox="0 0 80 80" version="1.1">
<g id="surface1">
<path style=" stroke:none;fill-rule:nonzero;fill:rgb(8.627451%,49.803922%,98.823529%);fill-opacity:1;" d="M 52.632812 25.261719 C 52.632812 33.402344 46.03125 40 37.894531 40 C 29.753906 40 23.15625 33.402344 23.15625 25.261719 C 23.15625 17.121094 29.753906 10.523438 37.894531 10.523438 C 46.035156 10.523438 52.632812 17.125 52.632812 25.261719 "/>
<path style=" stroke:none;fill-rule:nonzero;fill:rgb(8.627451%,49.803922%,98.823529%);fill-opacity:1;" d="M 73.683594 31.578125 C 73.683594 38.554688 68.027344 44.210938 61.050781 44.210938 C 54.074219 44.210938 48.417969 38.554688 48.417969 31.578125 C 48.417969 24.601562 54.074219 18.949219 61.050781 18.949219 C 68.027344 18.949219 73.683594 24.601562 73.683594 31.578125 "/>
<path style=" stroke:none;fill-rule:nonzero;fill:rgb(57.647059%,57.647059%,59.607843%);fill-opacity:1;" d="M 48.421875 25.261719 C 48.421875 31.078125 43.707031 35.789062 37.894531 35.789062 C 32.078125 35.789062 27.367188 31.074219 27.367188 25.261719 C 27.367188 19.445312 32.082031 14.734375 37.894531 14.734375 C 43.707031 14.734375 48.421875 19.449219 48.421875 25.261719 "/>
<path style=" stroke:none;fill-rule:nonzero;fill:rgb(32.54902%,84.705882%,41.568627%);fill-opacity:1;" d="M 42.105469 25.261719 C 42.105469 27.585938 40 29.472656 37.894531 29.472656 C 35.789062 29.472656 33.683594 27.585938 33.683594 25.261719 C 33.683594 22.9375 35.570312 21.050781 37.894531 21.050781 C 40.21875 21.050781 42.105469 22.9375 42.105469 25.261719 "/>
<path style=" stroke:none;fill-rule:nonzero;fill:rgb(8.627451%,49.803922%,98.823529%);fill-opacity:1;" d="M 65.261719 63.15625 C 65.261719 67.808594 61.492188 71.578125 56.84375 71.578125 L 29.472656 71.578125 C 24.824219 71.578125 21.050781 67.808594 21.050781 63.15625 L 21.050781 46.316406 C 21.050781 41.664062 24.824219 37.894531 29.472656 37.894531 L 56.84375 37.894531 C 61.492188 37.894531 65.261719 41.664062 65.261719 46.316406 Z M 65.261719 63.15625 "/>
<path style=" stroke:none;fill-rule:nonzero;fill:rgb(8.627451%,49.803922%,98.823529%);fill-opacity:1;" d="M 50.527344 40 L 44.210938 40 L 44.210938 33.683594 L 50.527344 33.683594 Z M 50.527344 40 "/>
<path style=" stroke:none;fill-rule:nonzero;fill:rgb(57.647059%,57.647059%,59.607843%);fill-opacity:1;" d="M 69.472656 31.578125 C 69.472656 36.230469 65.703125 40 61.050781 40 C 56.398438 40 52.628906 36.230469 52.628906 31.578125 C 52.628906 26.929688 56.398438 23.15625 61.050781 23.15625 C 65.703125 23.15625 69.472656 26.929688 69.472656 31.578125 "/>
<path style=" stroke:none;fill-rule:nonzero;fill:rgb(32.54902%,84.705882%,41.568627%);fill-opacity:1;" d="M 65.261719 31.578125 C 65.261719 33.90625 63.375 35.789062 61.046875 35.789062 C 58.722656 35.789062 56.835938 33.902344 56.839844 31.578125 C 56.839844 29.25 58.722656 27.367188 61.050781 27.367188 C 63.375 27.367188 65.261719 29.253906 65.261719 31.578125 "/>
<path style=" stroke:none;fill-rule:nonzero;fill:rgb(8.627451%,49.803922%,98.823529%);fill-opacity:1;" d="M 23.15625 46.316406 L 18.949219 46.316406 L 6.316406 37.894531 L 4.210938 37.894531 L 4.210938 67.367188 L 6.316406 67.367188 L 18.949219 58.949219 L 23.15625 58.949219 C 26.644531 58.949219 29.472656 56.121094 29.472656 52.632812 C 29.472656 49.144531 26.644531 46.316406 23.15625 46.316406 "/>
<path style=" stroke:none;fill-rule:nonzero;fill:rgb(8.627451%,49.803922%,98.823529%);fill-opacity:1;" d="M 69.472656 46.316406 L 69.472656 48.421875 L 58.949219 48.421875 C 56.621094 48.421875 54.738281 50.304688 54.738281 52.632812 C 54.738281 54.957031 56.621094 56.84375 58.949219 56.84375 L 69.472656 56.84375 L 69.472656 58.949219 L 75.789062 58.949219 L 75.789062 46.316406 Z M 69.472656 46.316406 "/>
<path style=" stroke:none;fill-rule:nonzero;fill:rgb(34.901961%,35.686275%,83.137255%);fill-opacity:1;" d="M 58.949219 65.261719 L 37.894531 65.261719 L 37.894531 44.210938 L 58.949219 44.210938 Z M 58.949219 65.261719 "/>
<path style=" stroke:none;fill-rule:nonzero;fill:rgb(8.627451%,49.803922%,98.823529%);fill-opacity:1;" d="M 54.738281 61.050781 L 42.105469 61.050781 L 42.105469 48.421875 L 54.738281 48.421875 Z M 54.738281 61.050781 "/>
<path style=" stroke:none;fill-rule:nonzero;fill:rgb(34.901961%,35.686275%,83.137255%);fill-opacity:1;" d="M 33.683594 61.050781 C 33.679688 63.378906 31.796875 65.265625 29.46875 65.261719 C 27.144531 65.261719 25.257812 63.375 25.257812 61.050781 C 25.257812 58.722656 27.144531 56.839844 29.472656 56.839844 C 31.796875 56.839844 33.683594 58.726562 33.683594 61.050781 "/>
</g>
</svg>
