<?xml version="1.0" encoding="UTF-8"?>
<svg xmlns="http://www.w3.org/2000/svg" xmlns:xlink="http://www.w3.org/1999/xlink" width="80px" height="80px" viewBox="0 0 80 80" version="1.1">
<g id="surface1">
<path style=" stroke:none;fill-rule:nonzero;fill:rgb(34.901961%,35.686275%,83.137255%);fill-opacity:1;" d="M 73.75 7.5 L 6.25 7.5 C 4.109375 7.574219 2.433594 9.367188 2.5 11.507812 L 2.5 53.5 C 2.4375 55.636719 4.113281 57.425781 6.25 57.5 L 33.75 57.5 L 33.75 62.5 L 25 62.5 C 24.308594 62.5 23.75 63.058594 23.75 63.75 L 23.75 70 L 21.25 70 L 21.25 72.5 L 58.75 72.5 L 58.75 70 L 56.25 70 L 56.25 63.75 C 56.25 63.058594 55.691406 62.5 55 62.5 L 46.25 62.5 L 46.25 57.5 L 73.75 57.5 C 75.886719 57.425781 77.5625 55.636719 77.5 53.5 L 77.5 11.507812 C 77.566406 9.367188 75.890625 7.574219 73.75 7.5 Z M 6.25 10 L 73.75 10 C 74.507812 10.078125 75.0625 10.746094 75 11.507812 L 75 47.5 L 5 47.5 L 5 11.507812 C 4.9375 10.746094 5.492188 10.078125 6.25 10 Z M 53.75 70 L 26.25 70 L 26.25 65 L 53.75 65 Z M 43.75 62.5 L 36.25 62.5 L 36.25 57.5 L 43.75 57.5 Z M 73.75 55 L 6.25 55 C 5.496094 54.921875 4.941406 54.257812 5 53.5 L 5 50 L 75 50 L 75 53.5 C 75.058594 54.257812 74.503906 54.921875 73.75 55 Z M 73.75 55 "/>
<path style=" stroke:none;fill-rule:nonzero;fill:rgb(34.901961%,35.686275%,83.137255%);fill-opacity:1;" d="M 68.75 51.25 L 71.25 51.25 L 71.25 53.75 L 68.75 53.75 Z M 42.5 32.5 L 45.652344 32.5 C 45.785156 32.871094 45.9375 33.234375 46.105469 33.589844 L 43.875 35.820312 C 43.386719 36.308594 43.386719 37.101562 43.875 37.589844 L 47.410156 41.125 C 47.898438 41.613281 48.691406 41.613281 49.179688 41.125 L 51.410156 38.894531 C 51.765625 39.066406 52.128906 39.214844 52.5 39.347656 L 52.5 42.5 C 52.5 43.191406 53.058594 43.75 53.75 43.75 L 58.75 43.75 C 59.441406 43.75 60 43.191406 60 42.5 L 60 39.347656 C 60.371094 39.214844 60.734375 39.0625 61.089844 38.894531 L 63.320312 41.125 C 63.808594 41.613281 64.601562 41.613281 65.089844 41.125 L 68.625 37.589844 C 69.113281 37.101562 69.113281 36.308594 68.625 35.820312 L 66.394531 33.589844 C 66.566406 33.234375 66.714844 32.871094 66.847656 32.5 L 70 32.5 C 70.691406 32.5 71.25 31.941406 71.25 31.25 L 71.25 26.25 C 71.25 25.558594 70.691406 25 70 25 L 66.847656 25 C 66.714844 24.628906 66.5625 24.265625 66.394531 23.910156 L 68.625 21.679688 C 69.113281 21.191406 69.113281 20.398438 68.625 19.910156 L 65.089844 16.375 C 64.601562 15.886719 63.808594 15.886719 63.320312 16.375 L 61.089844 18.605469 C 60.734375 18.433594 60.371094 18.285156 60 18.152344 L 60 15 C 60 14.308594 59.441406 13.75 58.75 13.75 L 53.75 13.75 C 53.058594 13.75 52.5 14.308594 52.5 15 L 52.5 18.152344 C 52.128906 18.285156 51.765625 18.4375 51.410156 18.605469 L 49.179688 16.375 C 48.691406 15.886719 47.898438 15.886719 47.410156 16.375 L 43.875 19.910156 C 43.386719 20.398438 43.386719 21.191406 43.875 21.679688 L 46.105469 23.910156 C 45.933594 24.265625 45.785156 24.628906 45.652344 25 L 42.5 25 C 41.808594 25 41.25 25.558594 41.25 26.25 L 41.25 31.25 C 41.25 31.941406 41.808594 32.5 42.5 32.5 Z M 43.75 27.5 L 46.578125 27.5 C 47.148438 27.5 47.644531 27.113281 47.789062 26.5625 C 47.992188 25.773438 48.304688 25.015625 48.71875 24.3125 C 49.007812 23.820312 48.929688 23.195312 48.527344 22.792969 L 46.527344 20.792969 L 48.292969 19.023438 L 50.292969 21.023438 C 50.695312 21.429688 51.324219 21.507812 51.8125 21.21875 C 52.515625 20.804688 53.273438 20.492188 54.0625 20.285156 C 54.617188 20.144531 55 19.644531 55 19.078125 L 55 16.25 L 57.5 16.25 L 57.5 19.078125 C 57.5 19.648438 57.886719 20.144531 58.4375 20.289062 C 59.226562 20.492188 59.984375 20.804688 60.6875 21.21875 C 61.179688 21.507812 61.804688 21.429688 62.207031 21.027344 L 64.207031 19.027344 L 65.976562 20.792969 L 63.976562 22.792969 C 63.574219 23.195312 63.492188 23.824219 63.785156 24.3125 C 64.199219 25.015625 64.511719 25.773438 64.714844 26.5625 C 64.859375 27.117188 65.355469 27.5 65.925781 27.5 L 68.75 27.5 L 68.75 30 L 65.921875 30 C 65.351562 30 64.855469 30.386719 64.710938 30.9375 C 64.507812 31.726562 64.195312 32.484375 63.78125 33.1875 C 63.492188 33.679688 63.570312 34.304688 63.972656 34.707031 L 65.972656 36.707031 L 64.207031 38.476562 L 62.207031 36.476562 C 61.804688 36.074219 61.175781 35.992188 60.6875 36.285156 C 59.984375 36.699219 59.226562 37.011719 58.4375 37.214844 C 57.882812 37.359375 57.5 37.855469 57.5 38.425781 L 57.5 41.25 L 55 41.25 L 55 38.421875 C 55 37.851562 54.613281 37.355469 54.0625 37.210938 C 53.273438 37.007812 52.515625 36.695312 51.8125 36.28125 C 51.320312 35.992188 50.695312 36.070312 50.292969 36.472656 L 48.292969 38.472656 L 46.523438 36.707031 L 48.523438 34.707031 C 48.929688 34.304688 49.007812 33.675781 48.71875 33.1875 C 48.304688 32.484375 47.992188 31.726562 47.785156 30.9375 C 47.644531 30.382812 47.144531 30 46.578125 30 L 43.75 30 Z M 43.75 27.5 "/>
<path style=" stroke:none;fill-rule:nonzero;fill:rgb(34.901961%,35.686275%,83.137255%);fill-opacity:1;" d="M 56.25 35 C 59.703125 35 62.5 32.203125 62.5 28.75 C 62.5 25.296875 59.703125 22.5 56.25 22.5 C 52.796875 22.5 50 25.296875 50 28.75 C 50.003906 32.199219 52.800781 34.996094 56.25 35 Z M 56.25 25 C 58.320312 25 60 26.679688 60 28.75 C 60 30.820312 58.320312 32.5 56.25 32.5 C 54.179688 32.5 52.5 30.820312 52.5 28.75 C 52.5 26.679688 54.179688 25 56.25 25 Z M 11.617188 20.882812 L 13.382812 19.117188 L 11.765625 17.5 L 13.382812 15.882812 L 11.617188 14.117188 L 9.117188 16.617188 C 8.628906 17.105469 8.628906 17.894531 9.117188 18.382812 Z M 15.25 19.25 L 19 14.25 L 21 15.75 L 17.25 20.75 Z M 24.632812 20.882812 L 27.132812 18.382812 C 27.621094 17.894531 27.621094 17.105469 27.132812 16.617188 L 24.632812 14.117188 L 22.867188 15.882812 L 24.484375 17.5 L 22.867188 19.117188 Z M 30 18.75 L 32.5 18.75 L 32.5 21.25 L 30 21.25 Z M 11.25 23.75 L 16.25 23.75 L 16.25 26.25 L 11.25 26.25 Z M 18.75 23.75 L 21.25 23.75 L 21.25 26.25 L 18.75 26.25 Z M 23.75 23.75 L 31.25 23.75 L 31.25 26.25 L 23.75 26.25 Z M 33.75 23.75 L 36.25 23.75 L 36.25 26.25 L 33.75 26.25 Z M 13.75 28.75 L 16.25 28.75 L 16.25 31.25 L 13.75 31.25 Z M 18.75 28.75 L 23.75 28.75 L 23.75 31.25 L 18.75 31.25 Z M 26.25 28.75 L 28.75 28.75 L 28.75 31.25 L 26.25 31.25 Z M 31.25 28.75 L 36.25 28.75 L 36.25 31.25 L 31.25 31.25 Z M 11.25 36.25 L 16.25 36.25 L 16.25 38.75 L 11.25 38.75 Z M 18.75 36.25 L 21.25 36.25 L 21.25 38.75 L 18.75 38.75 Z M 23.75 36.25 L 31.25 36.25 L 31.25 38.75 L 23.75 38.75 Z M 33.75 36.25 L 36.25 36.25 L 36.25 38.75 L 33.75 38.75 Z M 13.75 41.25 L 16.25 41.25 L 16.25 43.75 L 13.75 43.75 Z M 18.75 41.25 L 23.75 41.25 L 23.75 43.75 L 18.75 43.75 Z M 26.25 41.25 L 28.75 41.25 L 28.75 43.75 L 26.25 43.75 Z M 31.25 41.25 L 36.25 41.25 L 36.25 43.75 L 31.25 43.75 Z M 31.25 41.25 "/>
</g>
</svg>
